<svg width="500" height="500" viewBox="0 0 500 500" fill="none" xmlns="http://www.w3.org/2000/svg">
<g clip-path="url(#clip0_9_1827)">
<rect width="501" height="501" rx="20.4143" fill="#F4EDE8"/>
<path d="M158.414 430.635H327.05V416.473L318.373 413.944L327.05 409.784V384.957L321.095 382.765L327.05 379.293V351.545L320.489 349.465L327.05 346.717V344.423L314.437 339.478L327.05 338.438V327.549H158.414V337.724L162.48 339.478L158.414 341.803V379.992L163.69 383.066L158.414 386.395V411.191L167.02 414.546L158.414 419.44V430.635Z" fill="#A86531"/>
<path d="M176.615 402.346C184.388 397.982 193.198 393.037 211.068 390.03C224.575 387.756 233.634 383.82 237.259 378.641C238.803 376.438 239.359 374.063 238.905 371.59C237.605 364.494 212.486 362.302 196.939 362.592C187.345 362.771 171.561 362.016 158.414 358.911V359.513C171.598 362.602 187.341 363.352 196.95 363.184C212.954 362.883 237.167 365.386 238.324 371.697C238.747 374.007 238.227 376.229 236.774 378.304C233.236 383.346 224.315 387.2 210.969 389.443C192.999 392.472 184.141 397.442 176.324 401.831C174.35 402.938 172.484 403.988 170.572 404.941C167.607 406.42 163.173 407.98 158.414 409.453V410.07C163.265 408.571 167.806 406.98 170.836 405.471C172.761 404.513 174.634 403.458 176.615 402.346Z" fill="#8F562A"/>
<path d="M266.256 342.746C273.082 344.326 278.684 345.845 283.624 347.186C297.404 350.923 306.774 353.456 327.049 353.558V352.967C306.836 352.865 297.511 350.336 283.777 346.615C278.832 345.274 273.225 343.75 266.388 342.169C259.521 340.579 250.89 338.111 240.898 335.257C232.425 332.83 222.984 330.133 213.087 327.548H210.712C221.414 330.306 231.63 333.222 240.735 335.822C250.737 338.682 259.373 341.155 266.256 342.746Z" fill="#8F562A"/>
<path d="M204.014 386.232C216.943 383.362 223.938 380.242 225.39 376.704C226.247 374.618 225.069 372.788 224.208 371.448L224.045 371.193C221.965 367.925 209.965 366.91 194.865 368.725C183.893 370.04 170.244 369.536 158.414 368.231V368.827C170.269 370.127 183.937 370.632 194.936 369.311C209.584 367.553 221.613 368.481 223.545 371.509L223.708 371.769C224.544 373.069 225.584 374.68 224.845 376.474C223.484 379.778 216.435 382.867 203.884 385.656L198.779 386.787C182.937 390.29 170.085 393.134 158.414 397.509V398.141C170.106 393.731 182.996 390.881 198.907 387.363L204.014 386.232Z" fill="#8F562A"/>
<path d="M230.508 340.13C240.796 341.298 247.592 342.068 260.357 346.534C262.921 347.431 265.46 348.338 268.009 349.256C284.45 355.149 301.447 361.231 327.049 364.213V363.622C301.549 360.64 284.603 354.578 268.208 348.695C265.659 347.783 263.115 346.87 260.551 345.973C247.724 341.487 240.903 340.712 230.574 339.539C224.661 338.866 217.952 338.107 208.376 336.475C195.65 334.309 182.511 330.816 170.596 327.549H168.356C180.825 330.98 194.774 334.757 208.276 337.061C217.87 338.693 224.584 339.458 230.508 340.13Z" fill="#8F562A"/>
<path d="M300.509 430.635H303.822C311.403 429.345 319.137 428.433 327.049 427.898V427.306C317.98 427.918 309.15 429.029 300.509 430.635Z" fill="#8F562A"/>
<path d="M175.447 386.512C179.948 384.876 184.38 383.831 188.29 382.913C193.909 381.588 197.968 380.629 198.862 378.661C199.158 378.009 199.091 377.27 198.665 376.464C198.003 375.215 195.704 374.756 192.28 374.756C188.18 374.756 182.464 375.414 176.01 376.158C170.273 376.816 164.119 377.524 158.414 377.825V378.422C164.147 378.116 170.321 377.407 176.079 376.744C186.772 375.516 196.875 374.348 198.142 376.744C198.482 377.387 198.541 377.932 198.322 378.417C197.549 380.119 193.403 381.098 188.154 382.337C184.228 383.26 179.778 384.31 175.246 385.957C169.318 388.113 163.628 389.698 158.414 390.927V391.539C163.682 390.3 169.442 388.699 175.447 386.512Z" fill="#8F562A"/>
<path d="M327.048 394.756V394.164C284.587 395.347 274.462 397.952 256.987 404.931C251.741 407.026 243.604 411.997 233.312 418.288C227.168 422.04 220.21 426.292 212.686 430.635H213.873C221.061 426.47 227.719 422.402 233.617 418.798C243.89 412.517 252.006 407.557 257.211 405.482C274.61 398.533 284.699 395.938 327.048 394.756Z" fill="#8F562A"/>
<path d="M262.254 329.924C285.424 335.124 305.592 333.855 321.798 332.83C323.603 332.718 325.357 332.606 327.049 332.509V331.918C325.341 332.014 323.578 332.127 321.763 332.239C305.587 333.258 285.47 334.528 262.381 329.348C259.985 328.808 257.416 328.201 254.719 327.549H252.216C255.779 328.425 259.159 329.231 262.254 329.924Z" fill="#8F562A"/>
<path d="M327.05 405.584V404.992C284.227 405.645 269.636 408.969 252.721 421.015C249.316 423.442 243.784 426.812 236.841 430.635H238.059C244.59 427.016 249.805 423.824 253.068 421.5C269.861 409.535 284.385 406.236 327.05 405.584Z" fill="#8F562A"/>
<path d="M267.601 428.739C280.524 423.957 293.861 419.032 327.049 417.064V416.473H327.044C293.652 418.482 279.76 423.61 267.397 428.183C265.088 429.035 262.88 429.845 260.581 430.635H262.365C264.109 430.018 265.827 429.396 267.601 428.739Z" fill="#8F562A"/>
<path d="M184.163 427.357C187.184 425.787 190.443 423.962 193.895 422.03C205.122 415.744 219.094 407.919 234.964 403.448C250.706 399.012 254.785 395.515 262.197 389.163C264.608 387.093 267.346 384.748 270.961 381.944C282.283 373.181 291.22 374.221 312.805 376.734C317.113 377.239 321.788 377.779 327.049 378.32V377.723C321.813 377.188 317.159 376.648 312.871 376.148C304.194 375.133 297.547 374.358 291.954 374.358C283.532 374.358 277.517 376.117 270.599 381.475C266.969 384.289 264.231 386.64 261.81 388.714C254.463 395.01 250.421 398.477 234.806 402.877C218.869 407.368 204.861 415.209 193.606 421.515C190.159 423.442 186.903 425.267 183.889 426.832C181.316 428.168 178.43 429.432 175.266 430.635H176.915C179.542 429.59 181.963 428.499 184.163 427.357Z" fill="#8F562A"/>
<path d="M327.05 372.732C300.204 369.108 278.394 362.868 262.167 354.165C245.828 345.402 237.269 344.867 224.325 344.061C221.18 343.867 217.927 343.663 214.19 343.332C199.608 342.027 182.762 339.605 158.414 331.642V332.264C182.716 340.197 199.557 342.613 214.137 343.923C217.881 344.255 221.287 344.469 224.284 344.652C237.157 345.458 245.66 345.983 261.887 354.685C278.19 363.428 300.097 369.694 327.05 373.334V372.732Z" fill="#8F562A"/>
<path d="M271.899 390.657C262.05 397.06 240.832 407.067 225.574 412.517C220.894 414.184 212.894 418.349 203.63 423.177C199.11 425.527 194.21 428.081 189.133 430.635H190.449C195.154 428.26 199.693 425.894 203.905 423.702C213.149 418.884 221.133 414.73 225.773 413.073C241.067 407.613 262.341 397.58 272.226 391.151C281.937 384.84 292.638 384.774 327.049 384.988V384.957L325.495 384.386C321.003 384.356 316.915 384.335 313.193 384.335C289.334 384.335 280.301 385.197 271.899 390.657Z" fill="#8F562A"/>
<path d="M229.362 398.656C247.159 395.021 266.123 389.591 265.828 371.055C265.558 354.379 227.7 350.938 205.084 348.884C202.797 348.675 200.676 348.481 198.778 348.292C184.203 346.829 173.417 345.223 159.351 341.267L158.625 341.68C173.011 345.769 183.91 347.395 198.718 348.884C200.618 349.072 202.742 349.266 205.029 349.475C227.45 351.509 264.976 354.925 265.231 371.065C265.522 389.148 247.613 394.322 229.239 398.074C211.048 401.791 204.145 403.55 192.115 412.853C184.314 418.884 172.855 423.044 158.414 425.17V425.772C173.002 423.636 184.583 419.43 192.479 413.317C204.404 404.095 211.268 402.352 229.362 398.656Z" fill="#8F562A"/>
<path d="M187.095 406.899C194.53 401.301 210.077 395.311 225.406 394.704C242.29 394.037 251.237 387.241 251.278 375.052C251.324 360.895 210.795 354.864 200.761 354.129C199.22 354.017 197.435 353.915 195.452 353.798C185.905 353.248 171.79 352.422 158.414 348.996V349.608C171.801 353.013 185.88 353.839 195.418 354.39C197.398 354.502 199.18 354.609 200.716 354.721C210.643 355.445 250.733 361.348 250.687 375.052C250.646 387.037 242.132 393.45 225.385 394.113C209.932 394.725 194.247 400.771 186.739 406.43C183.052 409.208 176.381 411.849 166.643 414.403L167.02 414.546L165.836 415.219C176.191 412.568 183.236 409.81 187.095 406.899Z" fill="#8F562A"/>
<path d="M158.414 395.693H327.045V398.064H158.414V395.693Z" fill="#7D4B25"/>
<path d="M158.414 361.139H327.045V363.51H158.414V361.139Z" fill="#7D4B25"/>
<path d="M154.251 337.903C135.589 296.966 146.307 259.062 151.619 244.987C153.029 241.255 154.049 239.2 154.049 239.2L178.804 247.903C178.804 247.903 176.243 259.71 175.544 274.392C174.773 290.476 176.255 310.027 185.799 321.242C205.527 344.423 168.3 368.725 154.251 337.903Z" fill="#C97946"/>
<path d="M331.208 337.903C317.158 368.725 279.933 344.423 299.662 321.242C309.205 310.027 310.674 290.476 309.904 274.392C309.216 259.71 306.656 247.903 306.656 247.903L331.412 239.2C331.412 239.2 332.432 241.255 333.844 244.987C339.151 259.062 349.872 296.966 331.208 337.903Z" fill="#C97946"/>
<path d="M251.635 97.6597C249.295 97.6597 247.077 96.2628 246.144 93.9585C245.767 93.0154 236.805 70.4364 236.805 31.2277C236.805 11.2232 239.43 -1.86338 245.589 -12.5284C250.325 -20.726 257.192 -29.6219 272.256 -33.4913C288.213 -37.585 302.839 -33.2568 312.382 -21.618C321.732 -10.2189 324.281 6.00796 318.587 17.8455C312.26 30.9932 298.521 35.0359 288.422 33.2261C278.083 31.3704 271.089 24.0753 270.161 14.1749C269.855 10.9173 272.251 8.02679 275.509 7.72091C278.766 7.40993 281.662 9.811 281.963 13.0686C282.564 19.4513 288.141 21.1336 290.512 21.5568C296.329 22.5968 304.261 20.2772 307.906 12.7067C311.551 5.12597 309.533 -6.39552 303.216 -14.1037C299.393 -18.7582 290.675 -25.9718 275.203 -22.0056C264.986 -19.3852 260.225 -14.1699 255.856 -6.59938C250.809 2.13858 248.658 13.451 248.658 31.2277C248.658 67.9129 257.054 89.3092 257.141 89.5182C258.354 92.5566 256.886 96.0079 253.852 97.2263C253.123 97.522 252.374 97.6597 251.635 97.6597Z" fill="#C97946"/>
<path d="M285.193 105.485C285.193 105.485 315.445 100.535 325.896 77.4969C330.882 66.5107 330.846 28.0566 345.701 28.4746C361.184 28.9131 360.001 55.4277 356.703 74.1322C353.399 92.8317 341.847 119.785 298.943 126.937L285.193 105.485Z" fill="#C97946"/>
<path d="M212.034 97.2315C212.034 97.2315 201.492 83.2987 197.183 48.8261C193.883 22.4235 209.285 -3.42835 190.582 -6.72675C171.88 -10.0302 159.779 20.7769 166.38 59.2769C170.842 85.3073 193.883 115.385 193.883 115.385L212.034 97.2315Z" fill="#C97946"/>
<path d="M307.906 167.543C304.48 192.595 296.344 212.197 296.344 212.197H189.121C189.121 212.197 180.976 192.595 177.55 167.558C176.044 156.506 175.451 144.403 176.874 132.438C181.545 93.3878 218.253 78.5323 242.733 78.5323C267.204 78.5323 303.919 93.3878 308.579 132.438C310.001 144.393 309.41 156.496 307.906 167.543Z" fill="#C97946"/>
<path d="M307.906 167.543C304.48 192.595 296.344 212.197 296.344 212.197H189.121C189.121 212.197 180.976 192.595 177.55 167.558C192.749 148.064 216.306 135.854 242.733 135.854C269.161 135.854 292.704 148.064 307.906 167.543Z" fill="#B56D3F"/>
<path d="M154.049 239.2L178.804 247.903C178.804 247.903 176.242 259.71 175.544 274.392C166.248 267.025 159.644 257.059 156.717 243.911C155.08 244.416 153.373 244.788 151.618 244.987C153.029 241.255 154.049 239.2 154.049 239.2Z" fill="#B56D3F"/>
<path d="M333.845 244.987C332.086 244.788 330.378 244.416 328.747 243.911C325.815 257.059 319.198 267.025 309.905 274.392C309.216 259.71 306.657 247.903 306.657 247.903L331.413 239.2C331.413 239.2 332.433 241.255 333.845 244.987Z" fill="#B56D3F"/>
<path d="M177.559 215.709C177.559 200.364 165.122 187.925 149.78 187.925C134.438 187.925 122 200.364 122 215.709C122 231.049 134.438 243.488 149.78 243.488C165.122 243.488 177.559 231.049 177.559 215.709Z" fill="#C97946"/>
<path d="M167.575 215.709C167.575 205.88 159.607 197.912 149.779 197.912C139.95 197.912 131.982 205.88 131.982 215.709C131.982 225.538 139.95 233.501 149.779 233.501C159.607 233.501 167.575 225.538 167.575 215.709Z" fill="#FFDEA6"/>
<path d="M307.9 215.709C307.9 200.364 320.34 187.925 335.679 187.925C351.024 187.925 363.458 200.364 363.458 215.709C363.458 231.049 351.024 243.488 335.679 243.488C320.34 243.488 307.9 231.049 307.9 215.709Z" fill="#C97946"/>
<path d="M317.883 215.709C317.883 205.88 325.851 197.912 335.68 197.912C345.509 197.912 353.477 205.88 353.477 215.709C353.477 225.538 345.509 233.501 335.68 233.501C325.851 233.501 317.883 225.538 317.883 215.709Z" fill="#FFDEA6"/>
<path d="M329.139 226.267C329.139 178.544 290.456 141.778 242.728 141.778C195.007 141.778 156.32 178.544 156.32 226.267C156.32 273.989 195.007 289.635 242.728 289.635C290.456 289.635 329.139 273.989 329.139 226.267Z" fill="#C97946"/>
<path d="M277.838 170.214C255.438 168.863 242.728 182.531 242.728 182.531C242.728 182.531 230.024 168.863 207.623 170.214C175.231 172.162 167.363 213.338 170.39 233.195C173.197 251.604 185.446 280.112 242.728 280.112C300.014 280.112 312.265 251.604 315.069 233.195C318.097 213.338 310.231 172.162 277.838 170.214Z" fill="#FFDEA6"/>
<path d="M207.529 208.465C207.529 203.749 203.706 199.925 198.991 199.925C194.276 199.925 190.454 203.749 190.454 208.465C190.454 213.18 194.276 217.004 198.991 217.004C203.706 217.004 207.529 213.18 207.529 208.465Z" fill="black"/>
<path d="M295.009 208.465C295.009 203.749 291.185 199.925 286.47 199.925C281.754 199.925 277.931 203.749 277.931 208.465C277.931 213.18 281.754 217.004 286.47 217.004C291.185 217.004 295.009 213.18 295.009 208.465Z" fill="black"/>
<path d="M231.207 250.36C226.507 250.36 222.23 247.923 219.161 243.493C218.6 242.687 218.804 241.581 219.609 241.02C220.415 240.46 221.526 240.664 222.082 241.469C224.503 244.956 227.659 246.801 231.207 246.801C237.06 246.801 240.95 243.916 240.95 229.825C240.95 228.841 241.75 228.046 242.729 228.046C243.713 228.046 244.508 228.841 244.508 229.825C244.508 239.384 242.999 250.36 231.207 250.36Z" fill="black"/>
<path d="M254.25 250.36C242.463 250.36 240.949 239.384 240.949 229.825C240.949 228.841 241.75 228.046 242.728 228.046C243.712 228.046 244.508 228.841 244.508 229.825C244.508 243.916 248.403 246.801 254.25 246.801C257.803 246.801 260.959 244.956 263.375 241.469C263.936 240.658 265.042 240.46 265.853 241.02C266.658 241.581 266.862 242.687 266.302 243.493C263.233 247.923 258.955 250.36 254.25 250.36Z" fill="black"/>
<path d="M254.25 229.825C254.25 225.584 249.096 222.143 242.728 222.143C236.366 222.143 231.207 225.584 231.207 229.825C231.207 234.067 236.366 237.508 242.728 237.508C249.096 237.508 254.25 234.067 254.25 229.825Z" fill="black"/>
<path d="M275.203 -22.0056C282.987 -23.9989 289.054 -23.1679 293.658 -21.251C297.002 -21.2204 305.877 -21.1337 312.734 -21.1592C312.612 -21.3122 312.505 -21.4702 312.382 -21.618C302.839 -33.2568 288.213 -37.585 272.256 -33.4913C257.192 -29.6219 250.325 -20.726 245.589 -12.5284C239.43 -1.86338 236.805 11.2232 236.805 31.2277C236.805 70.4364 245.767 93.0154 246.144 93.9585C247.077 96.2628 249.295 97.6597 251.635 97.6597C252.374 97.6597 253.123 97.522 253.852 97.2263C256.886 96.0079 258.354 92.5566 257.141 89.5182C257.054 89.3092 248.658 67.9129 248.658 31.2277C248.658 13.451 250.809 2.13858 255.856 -6.59938C260.225 -14.1699 264.986 -19.3852 275.203 -22.0056Z" fill="#C97946"/>
<path d="M309.018 -1.99597C310.185 3.23967 309.9 8.562 307.907 12.7067C304.262 20.2772 296.329 22.5968 290.512 21.5568C288.142 21.1336 282.564 19.4513 281.963 13.0686C281.662 9.81098 278.767 7.40991 275.509 7.72089C272.251 8.02677 269.855 10.9173 270.161 14.1749C271.089 24.0752 278.083 31.3704 288.422 33.2261C298.521 35.0359 312.26 30.9932 318.587 17.8455C321.457 11.8859 322.227 4.80985 321.1 -2.19989C318.454 -2.13362 313.846 -2.03676 309.018 -1.99597Z" fill="#C97946"/>
<path d="M222.557 367.84C224.344 367.84 226.317 368.187 228.477 368.88C228.957 369.253 229.197 369.667 229.197 370.12C229.197 370.547 228.971 370.933 228.517 371.28C228.091 371.6 227.597 371.76 227.037 371.76C225.597 371.387 224.251 371.2 222.997 371.2C220.117 371.2 217.931 372.053 216.437 373.76C214.944 375.467 214.197 378 214.197 381.36C214.197 384.72 215.077 387.347 216.837 389.24C217.744 390.227 218.824 390.72 220.077 390.72C221.331 390.72 223.331 390.053 226.077 388.72C227.037 388.267 227.677 388.04 227.997 388.04C228.691 388.04 229.037 388.4 229.037 389.12C229.037 389.84 228.704 390.44 228.037 390.92C225.744 392.12 223.957 392.933 222.677 393.36C221.397 393.76 220.291 393.96 219.357 393.96C217.437 393.96 215.797 393.253 214.437 391.84C212.011 389.227 210.797 385.667 210.797 381.16C210.797 376.627 211.944 373.28 214.237 371.12C216.557 368.933 219.331 367.84 222.557 367.84ZM243.711 375.32C244.885 375.32 245.471 376.32 245.471 378.32C245.471 378.533 245.471 378.76 245.471 379L245.391 381.8C245.365 382.68 245.351 383.547 245.351 384.4L245.951 393.44C245.951 394.107 245.271 394.44 243.911 394.44C243.831 394.44 243.631 394.44 243.311 394.44C243.018 394.44 242.805 394.32 242.671 394.08C242.565 393.84 242.551 393.547 242.631 393.2C242.738 392.853 242.711 392.467 242.551 392.04C241.325 393.347 239.698 394 237.671 394C233.911 394 232.031 391.093 232.031 385.28C232.031 382.053 232.631 379.613 233.831 377.96C235.058 376.307 236.805 375.48 239.071 375.48C240.138 375.48 241.205 375.667 242.271 376.04C242.618 375.56 243.098 375.32 243.711 375.32ZM239.551 378.96C238.031 378.96 236.898 379.4 236.151 380.28C235.405 381.16 235.031 382.773 235.031 385.12C235.031 389.067 236.098 391.04 238.231 391.04C238.791 391.04 239.405 390.787 240.071 390.28C240.765 389.773 241.245 389.2 241.511 388.56C242.018 387.12 242.271 385.547 242.271 383.84C242.271 382.133 242.058 380.893 241.631 380.12C241.231 379.347 240.538 378.96 239.551 378.96ZM248.895 380.4C248.895 378.827 249.455 377.573 250.575 376.64C251.695 375.707 252.989 375.24 254.455 375.24C255.949 375.24 257.375 375.507 258.735 376.04C260.095 376.573 260.775 377.28 260.775 378.16C260.775 378.613 260.602 378.973 260.255 379.24C259.909 379.507 259.602 379.64 259.335 379.64C259.095 379.64 258.895 379.64 258.735 379.64C258.602 379.613 258.069 379.36 257.135 378.88C256.229 378.4 255.389 378.16 254.615 378.16C253.842 378.16 253.175 378.36 252.615 378.76C252.082 379.133 251.815 379.693 251.815 380.44C251.815 381.187 252.122 381.773 252.735 382.2C253.375 382.627 254.482 383 256.055 383.32C257.629 383.613 258.829 384.04 259.655 384.6C260.509 385.16 260.935 386.2 260.935 387.72C260.935 389.933 260.349 391.507 259.175 392.44C258.029 393.347 256.629 393.8 254.975 393.8C253.322 393.8 251.909 393.573 250.735 393.12C249.589 392.667 249.015 391.987 249.015 391.08C249.015 390.04 249.535 389.52 250.575 389.52C250.842 389.52 251.429 389.707 252.335 390.08C253.242 390.453 254.135 390.64 255.015 390.64C255.922 390.64 256.602 390.36 257.055 389.8C257.535 389.213 257.775 388.547 257.775 387.8C257.775 387.053 257.469 386.52 256.855 386.2C256.242 385.853 255.309 385.573 254.055 385.36C252.802 385.147 251.882 384.92 251.295 384.68C249.695 384.04 248.895 382.613 248.895 380.4ZM267.886 381.04L268.206 390.48C268.206 391.653 268.153 392.333 268.046 392.52C267.993 393 267.833 393.373 267.566 393.64C267.326 393.907 266.846 394.04 266.126 394.04C265.779 394.04 265.499 393.827 265.286 393.4C265.073 392.947 264.953 392.44 264.926 391.88C264.739 387.187 264.486 382.787 264.166 378.68C263.873 374.547 263.726 370.707 263.726 367.16C263.726 366.6 263.913 366.16 264.286 365.84C264.659 365.52 265.099 365.36 265.606 365.36C266.353 365.36 266.793 366 266.926 367.28C267.086 368.56 267.179 370.16 267.206 372.08C267.259 374 267.313 375.4 267.366 376.28C268.699 375.587 270.033 375.24 271.366 375.24C274.459 375.24 276.419 376.6 277.246 379.32C277.726 380.867 277.966 382.853 277.966 385.28C277.966 386.08 277.886 387.347 277.726 389.08C277.593 390.787 277.513 391.893 277.486 392.4C277.459 392.907 277.233 393.307 276.806 393.6C276.406 393.867 275.966 394 275.486 394C274.739 394 274.366 393.6 274.366 392.8L274.646 385.84C274.646 385.253 274.619 384.28 274.566 382.92C274.513 381.56 274.233 380.48 273.726 379.68C273.246 378.88 272.393 378.48 271.166 378.48C268.979 378.48 267.886 379.333 267.886 381.04Z" fill="white"/>
</g>
<defs>
<clipPath id="clip0_9_1827">
<rect width="500" height="500" fill="white"/>
</clipPath>
</defs>
</svg>
