<svg width="501" height="501" viewBox="0 0 501 501" fill="none" xmlns="http://www.w3.org/2000/svg">
<rect width="501" height="501" rx="20.4143" fill="#EFEBE8"/>
<path d="M337.847 252.783C337.847 252.783 371.305 261.232 385.131 294.015C398.955 326.805 391.862 359.958 346.824 359.958L337.847 252.783Z" fill="#B6B4C2"/>
<path d="M155.281 405.475C155.281 405.475 130.063 413.884 121.263 413.622C110.241 413.286 98.1842 420.399 103.15 445.982C108.646 474.298 129.507 477.039 152.514 465.923C176.326 454.418 211.536 436.015 215.524 432.428L155.281 405.475Z" fill="#B6B4C2"/>
<path d="M135.139 441.18C131.321 425.356 120.774 414.327 111.58 416.55C110.085 416.906 108.733 417.625 107.508 418.599C102.878 423.307 100.398 431.803 103.15 445.982C106.678 464.163 116.542 471.787 129.238 471.988C135.721 467.125 138.376 454.599 135.139 441.18Z" fill="#F2F2F2"/>
<path d="M344.621 405.475C344.621 405.475 369.839 413.884 378.639 413.622C389.661 413.286 401.718 420.399 396.752 445.982C391.257 474.298 370.395 477.039 347.389 465.923C323.576 454.418 288.367 436.015 284.378 432.428L344.621 405.475Z" fill="#B6B4C2"/>
<path d="M364.764 441.18C368.581 425.356 379.128 414.327 388.322 416.55C389.818 416.906 391.17 417.625 392.395 418.599C397.025 423.307 399.504 431.803 396.753 445.982C393.224 464.163 383.36 471.787 370.665 471.988C364.182 467.125 361.527 454.599 364.764 441.18Z" fill="#F2F2F2"/>
<path d="M249.951 442.154C148.298 442.154 133.538 410.197 136.818 352.388C139.13 311.633 153.671 272.402 162.043 252.783C163.215 250.029 164.262 247.672 165.136 245.751C166.901 241.909 167.979 239.8 167.979 239.8H331.939C331.939 239.8 333.328 242.52 335.515 247.39C336.218 248.968 337.015 250.768 337.858 252.763C346.246 272.382 360.772 311.619 363.084 352.388C366.364 410.197 351.604 442.154 249.951 442.154Z" fill="#B6B4C2"/>
<path d="M337.859 252.763C317.553 269.319 285.721 274.208 249.952 274.208C214.182 274.208 182.35 269.319 162.044 252.783C163.216 250.029 164.262 247.672 165.137 245.751C166.902 241.909 167.979 239.8 167.979 239.8H331.939C331.939 239.8 333.329 242.52 335.516 247.39C336.219 248.968 337.016 250.768 337.859 252.763Z" fill="#A09FAB"/>
<path d="M199.976 57.697C194.773 40.1671 181.15 31.2947 168.691 34.9954C156.233 38.6895 149.657 53.5597 154.86 71.0896C160.063 88.6196 175.075 102.167 187.534 98.4726C199.991 94.7718 205.179 75.227 199.976 57.697Z" fill="#B6B4C2"/>
<path d="M195.043 65.9449C191.405 53.6873 181.878 47.4813 173.166 50.0672C164.453 52.653 159.855 63.0501 163.494 75.3076C167.133 87.5651 177.63 97.0421 186.342 94.4562C195.054 91.8704 198.681 78.2024 195.043 65.9449Z" fill="#F2F2F2"/>
<path d="M299.914 57.697C305.118 40.1671 318.741 31.2947 331.2 34.9954C343.658 38.6895 350.233 53.5597 345.031 71.0896C339.828 88.6196 324.816 102.167 312.357 98.4726C299.899 94.7718 294.712 75.227 299.914 57.697Z" fill="#B6B4C2"/>
<path d="M304.848 65.9449C308.487 53.6873 318.013 47.4813 326.725 50.0672C335.438 52.653 340.036 63.0501 336.397 75.3076C332.759 87.5651 322.261 97.0421 313.549 94.4562C304.838 91.8704 301.209 78.2024 304.848 65.9449Z" fill="#F2F2F2"/>
<path d="M380.592 187.6C380.592 124.727 322.1 70.0418 249.945 70.0418C177.791 70.0418 119.298 124.727 119.298 187.6C119.298 250.473 177.791 264.839 249.945 264.839C322.1 264.839 380.592 250.473 380.592 187.6Z" fill="#B6B4C2"/>
<path d="M203.567 157.9C203.567 151.687 198.531 146.65 192.32 146.65C186.108 146.65 181.072 151.687 181.072 157.9C181.072 164.106 186.108 169.143 192.32 169.143C198.531 169.143 203.567 164.106 203.567 157.9Z" fill="black"/>
<path d="M318.819 157.9C318.819 151.687 313.783 146.65 307.571 146.65C301.359 146.65 296.324 151.687 296.324 157.9C296.324 164.106 301.359 169.143 307.571 169.143C313.783 169.143 318.819 164.106 318.819 157.9Z" fill="black"/>
<path d="M249.945 235.481C223.795 235.481 209.809 222.633 209.227 222.089C208.284 221.202 208.237 219.718 209.122 218.778C210.011 217.831 211.493 217.784 212.434 218.67C212.56 218.791 225.752 230.8 249.945 230.8C274.139 230.8 287.33 218.791 287.46 218.67C288.407 217.79 289.89 217.837 290.77 218.778C291.651 219.725 291.606 221.202 290.663 222.089C290.082 222.633 276.096 235.481 249.945 235.481Z" fill="black"/>
<path d="M225.025 195.814C225.025 191.704 221.694 188.372 217.585 188.372C213.476 188.372 210.146 191.704 210.146 195.814C210.146 199.925 213.476 203.256 217.585 203.256C221.694 203.256 225.025 199.925 225.025 195.814Z" fill="#999999"/>
<path d="M289.745 195.814C289.745 191.704 286.415 188.372 282.306 188.372C278.196 188.372 274.866 191.704 274.866 195.814C274.866 199.925 278.196 203.256 282.306 203.256C286.415 203.256 289.745 199.925 289.745 195.814Z" fill="#9997A3"/>
<path d="M279.762 164.898C276.949 153.077 268.753 125.748 249.945 107.58C231.138 125.748 222.942 153.077 220.129 164.898C219.348 166.745 218.906 168.686 218.906 170.708C218.906 182.327 232.803 191.751 249.945 191.751C267.088 191.751 280.985 182.327 280.985 170.708C280.985 168.686 280.542 166.745 279.762 164.898Z" fill="#F2F2F2"/>
<path d="M162.044 252.783C162.044 252.783 128.586 261.232 114.761 294.015C100.936 326.805 108.029 359.958 153.067 359.958L162.044 252.783Z" fill="#B6B4C2"/>
<path d="M361.03 267.297H138.861V275.498L154.28 278.527L138.861 282.927V287.319L146.703 290.059L138.861 294.741V312.183V312.822V327.497L147.501 330.09L138.861 334.751V341.165L145.64 346.834L138.861 349.681V357.708V369.072L148.83 373.055L138.861 376.191V403.232H361.03V391.525L347.698 387.945L361.03 380.47L352.484 378.079L361.03 373.686V357.708V349.863L355.142 347.902L361.03 344.953V327.396L348.495 324.501L361.03 319.316V312.822V312.183V282.403L347.698 278.924L361.03 275.444V267.297Z" fill="#A86531"/>
<path d="M325.528 313.198C299.084 322.063 274.106 330.432 223.387 325.657C187.846 322.305 165.105 319.243 148.5 317.006C145.034 316.543 141.858 316.113 138.861 315.723V316.509C141.826 316.898 144.97 317.322 148.395 317.778C165.008 320.015 187.758 323.084 223.315 326.429C233.554 327.396 242.741 327.826 251.111 327.826C284.335 327.826 304.588 321.043 325.776 313.937C331.615 311.982 337.652 309.96 344.063 308.033C350.287 306.166 355.836 304.601 361.03 303.271V302.458C355.771 303.808 350.15 305.393 343.837 307.287C337.416 309.215 331.372 311.237 325.528 313.198Z" fill="#90592F"/>
<path d="M215.28 337.195C266.956 337.195 293.396 336.174 329.703 326.422C339.391 323.816 349.077 321.593 359.727 319.853L361.03 319.316V318.859C349.787 320.633 339.645 322.943 329.501 325.663C293.284 335.395 266.884 336.409 215.28 336.409C184.239 336.409 160.879 334.892 141.732 333.199L140.486 333.871C159.869 335.604 183.564 337.195 215.28 337.195Z" fill="#90592F"/>
<path d="M358.645 335.946C350.321 335.966 341.714 335.98 330.038 336.41C302.79 337.424 291.914 338.975 272.17 341.803C265.409 342.77 257.745 343.865 247.98 345.154C218.277 349.083 173.255 350.245 138.861 349.829V350.615C143.162 350.662 147.622 350.689 152.206 350.689C184.302 350.689 222.065 349.372 248.083 345.933C257.851 344.644 265.518 343.542 272.281 342.575C291.998 339.754 302.86 338.203 330.065 337.195C341.729 336.759 350.329 336.745 358.647 336.732C359.438 336.725 360.233 336.725 361.03 336.725V335.946C360.233 335.946 359.438 335.946 358.645 335.946Z" fill="#90592F"/>
<path d="M244.887 293.445C254.325 293.445 264.557 292.128 277.223 289.663C305.08 284.236 322.951 279.689 343.916 267.297H342.357C321.979 279.118 304.319 283.592 277.073 288.898C241.383 295.849 225.199 292.948 197.499 281.281C186.615 276.694 177.707 271.939 169.186 267.297H167.552C176.474 272.16 185.74 277.171 197.197 282C215.874 289.865 229.303 293.445 244.887 293.445Z" fill="#90592F"/>
<path d="M175.5 368.561C191.683 368.561 206.13 367.372 217.604 364.961C244.725 359.259 273.125 356.552 309.08 353.134L311.707 352.885C325.99 351.522 341.097 350.084 358.532 349.03L356.55 348.372C339.917 349.413 325.395 350.796 311.634 352.106L309.006 352.354C273.027 355.78 244.609 358.487 217.442 364.202C197.881 368.313 169.627 368.843 138.861 365.996V366.781C151.653 367.964 164.015 368.561 175.5 368.561Z" fill="#90592F"/>
<path d="M244.262 282.067C253.503 282.067 262.214 279.629 271.468 275.854C283.627 270.904 302.024 269.097 315.458 267.774C317.13 267.613 318.744 267.452 320.279 267.297H312.379C299.259 268.6 282.551 270.494 271.172 275.136C251.842 283.007 234.92 285.029 210.319 270.783C208.266 269.594 206.074 268.439 203.788 267.297H202.019C204.81 268.661 207.471 270.038 209.929 271.462C223.03 279.044 233.976 282.067 244.262 282.067Z" fill="#90592F"/>
<path d="M173.924 289.656C203.794 298.347 224.455 301.638 253.297 301.638C258.554 301.638 264.084 301.531 269.99 301.329C300.433 300.262 311.258 294.935 330.911 285.264C336.227 282.644 342.252 279.682 349.49 276.391C353.624 274.511 357.431 272.811 361.03 271.253V270.4C357.337 271.999 353.422 273.745 349.167 275.679C341.918 278.977 335.887 281.946 330.567 284.565C311.01 294.19 300.238 299.489 269.962 300.544C231.284 301.894 209.794 299.281 174.144 288.904C162.469 285.506 151.982 283.229 143.166 281.697L141.43 282.194C150.538 283.719 161.562 286.056 173.924 289.656Z" fill="#90592F"/>
<path d="M138.861 395.212V395.991C166.926 396.052 199.837 398.92 220.593 403.232H224.201C203.703 398.497 168.57 395.279 138.861 395.212Z" fill="#90592F"/>
<path d="M341.18 356.633C335.864 357.741 331.601 358.775 327.839 359.689C317.284 362.241 310.31 363.934 293.506 364.189C270.785 364.538 251.862 365.761 250.44 377.165C248.992 388.771 274.107 398.557 291.342 402.305C292.561 402.567 293.698 402.889 294.794 403.232H297.193C295.451 402.567 293.578 401.989 291.507 401.539C274.555 397.859 249.831 388.348 251.215 377.259C252.557 366.493 271.991 365.304 293.518 364.975C310.409 364.713 317.417 363.014 328.023 360.448C331.779 359.534 336.035 358.507 341.339 357.392C346.492 356.317 353.24 355.646 361.03 355.364V354.584C353.177 354.873 346.373 355.545 341.18 356.633Z" fill="#90592F"/>
<path d="M353.227 292.524C349.603 293.787 345.758 295.124 341.581 296.548C338.065 297.75 334.661 298.932 331.34 300.08C299.366 311.189 276.262 319.216 238.652 313.554C223.205 311.23 207.682 308.133 192.67 305.145C174.022 301.43 156.117 297.871 138.861 295.775V296.561C156.061 298.656 173.919 302.203 192.518 305.91C207.538 308.899 223.07 311.995 238.536 314.326C246.913 315.589 254.627 316.153 261.903 316.153C287.46 316.153 307.566 309.168 331.596 300.819C334.915 299.671 338.32 298.489 341.835 297.286C346.011 295.862 349.858 294.526 353.484 293.263C356.106 292.35 358.607 291.483 361.03 290.65V289.824C358.527 290.684 355.941 291.584 353.227 292.524Z" fill="#90592F"/>
<path d="M204.961 382.028C228.805 382.464 237.619 387.596 257.658 403.232H258.928C238.578 387.314 229.257 381.692 204.976 381.242C195.676 381.074 182.921 380.335 168.153 379.482C158.719 378.945 148.784 378.367 138.861 377.891V378.676C148.768 379.153 158.686 379.724 168.107 380.268C182.884 381.114 195.646 381.853 204.961 382.028Z" fill="#90592F"/>
<path d="M328.363 367.252C318.195 370.489 307.72 371.033 299.305 371.476C289.089 372.007 281.708 372.396 280.361 377.105C279.983 378.428 280.265 379.858 281.197 381.363C286.044 389.194 308.283 398.57 333.031 403.232H337.678C336.271 403.017 334.899 402.788 333.598 402.547C309.279 398.02 286.554 388.536 281.862 380.953C281.049 379.644 280.797 378.421 281.112 377.32C282.306 373.149 289.452 372.773 299.344 372.255C307.805 371.812 318.336 371.261 328.6 367.997C336.24 365.566 347.897 364.827 361.03 365.015V364.236C347.82 364.048 336.08 364.793 328.363 367.252Z" fill="#90592F"/>
<path d="M323.434 383.237C322.43 385.023 322.502 386.81 323.649 388.556C327.654 394.662 344.566 399.162 361.03 400.451V399.685C344.804 398.436 328.2 394.071 324.302 388.133C323.315 386.629 323.252 385.151 324.114 383.62C326.561 379.267 337.739 377.75 353.406 377.602L354.9 376.836C338.166 376.923 326.102 378.495 323.434 383.237Z" fill="#90592F"/>
<path d="M361.03 313.399H138.861V310.276H361.03V313.399Z" fill="#8F562A"/>
<path d="M361.03 358.923H138.861V355.793H361.03V358.923Z" fill="#8F562A"/>
<path d="M135.233 307.307C135.233 307.307 170.066 313.862 169.529 335.342C168.992 356.821 147.273 363.84 130.485 356.257L135.233 307.307Z" fill="#B6B4C2"/>
<path d="M364.657 307.307C364.657 307.307 329.825 313.862 330.362 335.342C330.899 356.821 352.618 363.84 369.406 356.257L364.657 307.307Z" fill="#B6B4C2"/>
<path d="M182.567 348.72C182.167 348.427 181.967 348.107 181.967 347.76C181.967 347.387 182.114 347.08 182.407 346.84C181.9 343.027 181.647 338.653 181.647 333.72C181.647 332.227 181.714 329.32 181.847 325C181.98 324.6 182.247 324.253 182.647 323.96C183.074 323.667 183.474 323.52 183.847 323.52C184.22 323.52 184.447 323.533 184.527 323.56C188.34 324.627 191.66 326.693 194.487 329.76C197.314 332.8 198.794 336.453 198.927 340.72C198.927 345.413 196.98 348.36 193.087 349.56C191.967 349.907 190.78 350.08 189.527 350.08C188.3 350.08 187.22 349.987 186.287 349.8C186.394 350.013 186.447 350.293 186.447 350.64C186.447 351.013 186.22 351.36 185.767 351.68C185.34 352.027 184.82 352.2 184.207 352.2C183.62 352.2 183.247 351.84 183.087 351.12L182.567 348.72ZM184.967 333.4C184.967 338.067 185.234 342.493 185.767 346.68C186.407 346.867 187.487 346.96 189.007 346.96C190.527 346.96 191.98 346.707 193.367 346.2C194.78 345.693 195.527 344.947 195.607 343.96C195.687 343.213 195.727 342.64 195.727 342.24C195.727 338.773 194.794 335.707 192.927 333.04C191.087 330.373 188.5 328.347 185.167 326.96C185.034 330.107 184.967 332.253 184.967 333.4ZM206.471 331.48C207.885 331.48 209.231 331.893 210.511 332.72C211.791 333.547 212.431 334.573 212.431 335.8C212.431 337 211.911 338.173 210.871 339.32C209.831 340.44 208.445 341.12 206.711 341.36C205.965 341.467 204.845 341.52 203.351 341.52C203.645 343.787 204.218 345.28 205.071 346C205.338 346.293 205.698 346.44 206.151 346.44C207.805 346.44 209.191 345.92 210.311 344.88C211.431 343.813 212.231 343.28 212.711 343.28C212.925 343.28 213.245 343.48 213.671 343.88C214.098 344.28 214.311 344.653 214.311 345C214.311 345.693 213.471 346.693 211.791 348C211.045 348.613 210.138 349.133 209.071 349.56C208.031 349.96 207.058 350.16 206.151 350.16C203.831 350.16 202.125 348.667 201.031 345.68C200.338 343.84 199.991 341.813 199.991 339.6C199.991 337.387 200.511 335.48 201.551 333.88C202.591 332.28 204.231 331.48 206.471 331.48ZM206.671 334.24C205.658 334.24 204.791 334.813 204.071 335.96C203.805 336.36 203.551 337.267 203.311 338.68C207.045 338.68 208.911 337.76 208.911 335.92C208.911 334.8 208.165 334.24 206.671 334.24ZM217.649 331.32L219.649 331.36C220.102 331.36 220.356 331.347 220.409 331.32V323.12C220.436 322.667 220.662 322.28 221.089 321.96C221.516 321.64 221.916 321.48 222.289 321.48C222.662 321.48 222.956 321.6 223.169 321.84C223.409 322.08 223.516 322.453 223.489 322.96C223.462 323.467 223.449 326.24 223.449 331.28L228.129 331.12C228.929 331.12 229.329 331.587 229.329 332.52C229.329 333.213 229.116 333.733 228.689 334.08C228.289 334.427 227.849 334.613 227.369 334.64C226.916 334.667 226.462 334.68 226.009 334.68L223.569 334.64C223.569 335.733 223.676 337.893 223.889 341.12C224.129 344.347 224.316 346.44 224.449 347.4C224.582 348.333 224.609 348.947 224.529 349.24C224.449 349.507 224.302 349.693 224.089 349.8C223.742 349.96 223.276 350.04 222.689 350.04C222.102 350.04 221.756 349.72 221.649 349.08C221.116 345.587 220.756 340.787 220.569 334.68C220.329 334.707 219.409 334.72 217.809 334.72C216.209 334.72 215.409 334.253 215.409 333.32C215.409 331.987 216.156 331.32 217.649 331.32ZM236.159 331.48C237.572 331.48 238.919 331.893 240.199 332.72C241.479 333.547 242.119 334.573 242.119 335.8C242.119 337 241.599 338.173 240.559 339.32C239.519 340.44 238.132 341.12 236.399 341.36C235.652 341.467 234.532 341.52 233.039 341.52C233.332 343.787 233.906 345.28 234.759 346C235.026 346.293 235.386 346.44 235.839 346.44C237.492 346.44 238.879 345.92 239.999 344.88C241.119 343.813 241.919 343.28 242.399 343.28C242.612 343.28 242.932 343.48 243.359 343.88C243.786 344.28 243.999 344.653 243.999 345C243.999 345.693 243.159 346.693 241.479 348C240.732 348.613 239.826 349.133 238.759 349.56C237.719 349.96 236.746 350.16 235.839 350.16C233.519 350.16 231.812 348.667 230.719 345.68C230.026 343.84 229.679 341.813 229.679 339.6C229.679 337.387 230.199 335.48 231.239 333.88C232.279 332.28 233.919 331.48 236.159 331.48ZM236.359 334.24C235.346 334.24 234.479 334.813 233.759 335.96C233.492 336.36 233.239 337.267 232.999 338.68C236.732 338.68 238.599 337.76 238.599 335.92C238.599 334.8 237.852 334.24 236.359 334.24ZM251.496 344.16L251.536 348.28C251.536 348.76 251.31 349.2 250.856 349.6C250.43 350 250.003 350.2 249.576 350.2C248.963 350.2 248.576 349.72 248.416 348.76C248.39 348.547 248.283 346.6 248.096 342.92C247.91 339.213 247.55 336.307 247.016 334.2C246.776 333.187 246.656 332.587 246.656 332.4C246.656 331.52 247.19 331.08 248.256 331.08C248.71 331.08 249.07 331.253 249.336 331.6C249.603 331.947 249.763 332.307 249.816 332.68C249.896 333.027 249.963 333.507 250.016 334.12C250.07 334.733 250.11 335.12 250.136 335.28C250.696 333.947 251.536 332.947 252.656 332.28C253.776 331.613 255.003 331.28 256.336 331.28C258.523 331.28 259.616 331.84 259.616 332.96C259.616 333.52 259.416 333.973 259.016 334.32C258.643 334.64 258.203 334.8 257.696 334.8C255.43 334.8 253.83 335.52 252.896 336.96C251.963 338.4 251.496 340.8 251.496 344.16ZM273.207 348.36C272.247 349.48 271.034 350.04 269.567 350.04C268.1 350.04 266.834 349.587 265.767 348.68C263.527 346.947 262.407 344.293 262.407 340.72C262.407 337.92 263.18 335.68 264.727 334C266.274 332.293 268.18 331.44 270.447 331.44C272.714 331.44 274.26 332.213 275.087 333.76C275.807 335.12 276.167 337.173 276.167 339.92L276.087 343.2C276.087 344.747 276.154 346.893 276.287 349.64C276.447 352.36 276.527 354.413 276.527 355.8C276.527 358.093 275.954 359.773 274.807 360.84C273.687 361.933 271.967 362.48 269.647 362.48C268.26 362.48 266.847 362.187 265.407 361.6C263.967 361.013 263.247 360.333 263.247 359.56C263.247 359 263.394 358.573 263.687 358.28C264.007 357.987 264.367 357.84 264.767 357.84C265.167 357.84 266.06 358.133 267.447 358.72C268.86 359.307 269.874 359.6 270.487 359.6C272.407 359.6 273.367 358.027 273.367 354.88C273.367 351.733 273.314 349.56 273.207 348.36ZM273.167 339.92C273.167 337.973 272.874 336.613 272.287 335.84C271.727 335.04 270.834 334.64 269.607 334.64C268.38 334.64 267.394 335.2 266.647 336.32C265.9 337.44 265.527 338.867 265.527 340.6C265.527 342.307 265.874 343.667 266.567 344.68C267.287 345.693 268.38 346.2 269.847 346.2C271.314 346.2 272.26 345.573 272.687 344.32C273.007 343.307 273.167 341.84 273.167 339.92ZM285.3 331.48C286.713 331.48 288.06 331.893 289.34 332.72C290.62 333.547 291.26 334.573 291.26 335.8C291.26 337 290.74 338.173 289.7 339.32C288.66 340.44 287.273 341.12 285.54 341.36C284.793 341.467 283.673 341.52 282.18 341.52C282.473 343.787 283.046 345.28 283.9 346C284.166 346.293 284.526 346.44 284.98 346.44C286.633 346.44 288.02 345.92 289.14 344.88C290.26 343.813 291.06 343.28 291.54 343.28C291.753 343.28 292.073 343.48 292.5 343.88C292.926 344.28 293.14 344.653 293.14 345C293.14 345.693 292.3 346.693 290.62 348C289.873 348.613 288.966 349.133 287.9 349.56C286.86 349.96 285.886 350.16 284.98 350.16C282.66 350.16 280.953 348.667 279.86 345.68C279.166 343.84 278.82 341.813 278.82 339.6C278.82 337.387 279.34 335.48 280.38 333.88C281.42 332.28 283.06 331.48 285.3 331.48ZM285.5 334.24C284.486 334.24 283.62 334.813 282.9 335.96C282.633 336.36 282.38 337.267 282.14 338.68C285.873 338.68 287.74 337.76 287.74 335.92C287.74 334.8 286.993 334.24 285.5 334.24ZM296.997 348.76L296.557 332.52C296.557 332.013 296.73 331.6 297.077 331.28C297.424 330.96 297.77 330.8 298.117 330.8C298.97 330.8 299.464 331.16 299.597 331.88C299.704 332.6 299.757 333.347 299.757 334.12C301.197 332.227 302.997 331.28 305.157 331.28C308.464 331.28 310.117 335.053 310.117 342.6C310.117 343.293 310.117 344.347 310.117 345.76C310.117 347.147 310.037 348.16 309.877 348.8C309.69 349.6 309.117 350 308.157 350C307.517 350 307.197 349.573 307.197 348.72L307.237 346.48C307.237 343.387 307.13 341.28 306.917 340.16C306.73 339.013 306.544 338.107 306.357 337.44C305.904 336 305.17 335.28 304.157 335.28C302.824 335.28 301.89 335.76 301.357 336.72C300.77 337.76 300.424 338.987 300.317 340.4C300.13 342.88 300.037 345.507 300.037 348.28C300.037 348.813 299.837 349.24 299.437 349.56C299.037 349.88 298.557 350.04 297.997 350.04C297.33 350.04 296.997 349.613 296.997 348.76ZM314.563 331.32L316.563 331.36C317.016 331.36 317.27 331.347 317.323 331.32V323.12C317.35 322.667 317.576 322.28 318.003 321.96C318.43 321.64 318.83 321.48 319.203 321.48C319.576 321.48 319.87 321.6 320.083 321.84C320.323 322.08 320.43 322.453 320.403 322.96C320.376 323.467 320.363 326.24 320.363 331.28L325.043 331.12C325.843 331.12 326.243 331.587 326.243 332.52C326.243 333.213 326.03 333.733 325.603 334.08C325.203 334.427 324.763 334.613 324.283 334.64C323.83 334.667 323.376 334.68 322.923 334.68L320.483 334.64C320.483 335.733 320.59 337.893 320.803 341.12C321.043 344.347 321.23 346.44 321.363 347.4C321.496 348.333 321.523 348.947 321.443 349.24C321.363 349.507 321.216 349.693 321.003 349.8C320.656 349.96 320.19 350.04 319.603 350.04C319.016 350.04 318.67 349.72 318.563 349.08C318.03 345.587 317.67 340.787 317.483 334.68C317.243 334.707 316.323 334.72 314.723 334.72C313.123 334.72 312.323 334.253 312.323 333.32C312.323 331.987 313.07 331.32 314.563 331.32Z" fill="white"/>
</svg>
