<svg width="501" height="501" viewBox="0 0 501 501" fill="none" xmlns="http://www.w3.org/2000/svg">
<rect width="501" height="501" rx="20.4143" fill="#F3F1F0"/>
<path d="M171.01 403.706C171.01 403.706 147.086 412.794 134.231 417.002C121.376 421.217 105 417.275 105 431.537C105 445.806 116.517 468.302 134.231 465.809C151.945 463.317 206.388 430.669 206.388 430.669L171.01 403.706Z" fill="#F69B39"/>
<path d="M161.32 422.89C165.052 421.329 165.913 414.495 163.833 406.402C159.346 408.075 153.317 410.309 147.394 412.437C151.763 420.013 157.462 424.507 161.32 422.89Z" fill="#453D39"/>
<path d="M141.59 433.903C146.47 431.859 147.842 423.394 145.644 413.06C141.506 414.537 137.508 415.931 134.231 417.002C130.339 418.283 126.124 418.808 122.133 419.319C128.245 429.892 136.206 436.158 141.59 433.903Z" fill="#453D39"/>
<path d="M329.075 403.706C329.075 403.706 352.999 412.794 365.853 417.002C378.708 421.217 395.084 417.275 395.084 431.537C395.084 445.806 383.574 468.302 365.853 465.809C348.14 463.317 293.696 430.669 293.696 430.669L329.075 403.706Z" fill="#F69B39"/>
<path d="M338.772 422.89C335.033 421.329 334.172 414.495 336.251 406.402C340.739 408.075 346.774 410.309 352.691 412.437C348.322 420.013 342.622 424.507 338.772 422.89Z" fill="#453D39"/>
<path d="M358.502 433.903C353.622 431.859 352.243 423.394 354.441 413.06C358.579 414.537 362.577 415.931 365.854 417.002C369.753 418.283 373.968 418.808 377.952 419.319C371.84 429.892 363.886 436.158 358.502 433.903Z" fill="#453D39"/>
<path d="M323.312 241.769L331.49 351.86C373.044 357.931 387.271 353.163 387.432 326.424C387.453 324.744 387.404 322.972 387.306 321.117C386.963 314.571 385.71 308.444 383.756 302.703V302.682C383.056 300.582 382.258 298.551 381.376 296.563C378.659 290.346 375.144 284.646 371.216 279.479C352.228 254.505 323.312 241.769 323.312 241.769Z" fill="#F69B39"/>
<path d="M387.432 326.424C387.453 324.744 387.404 322.972 387.306 321.117C386.963 314.571 385.71 308.444 383.756 302.703C376.006 303.662 370.65 306.365 369.851 310.405C368.773 315.81 376.069 322.076 387.432 326.424Z" fill="#453D39"/>
<path d="M364.068 288.567C364.67 293.013 371.672 295.989 381.376 296.563C378.659 290.346 375.144 284.646 371.216 279.479C366.399 282.217 363.648 285.459 364.068 288.567Z" fill="#453D39"/>
<path d="M176.772 241.769L168.602 351.86C127.048 357.931 112.814 353.163 112.653 326.424C112.632 324.744 112.688 322.972 112.779 321.117C113.122 314.571 114.375 308.444 116.329 302.703V302.682C117.029 300.582 117.827 298.551 118.709 296.563C121.426 290.346 124.947 284.646 128.868 279.479C147.856 254.505 176.772 241.769 176.772 241.769Z" fill="#F69B39"/>
<path d="M112.653 326.424C112.632 324.744 112.688 322.972 112.779 321.117C113.122 314.571 114.375 308.444 116.329 302.703C124.079 303.662 129.435 306.365 130.233 310.405C131.312 315.81 124.016 322.076 112.653 326.424Z" fill="#453D39"/>
<path d="M136.017 288.567C135.414 293.013 128.413 295.989 118.709 296.563C121.426 290.346 124.947 284.646 128.868 279.479C133.692 282.217 136.437 285.459 136.017 288.567Z" fill="#453D39"/>
<path d="M344.954 358.26C344.821 363.301 344.464 368.09 343.897 372.62V372.634C343.099 378.774 341.894 384.424 340.312 389.668C337.841 397.902 334.417 405.051 330.167 411.24C313.594 435.486 284.482 444.798 250.042 444.798C223.668 444.798 200.381 439.33 183.479 425.845C176.919 420.615 171.304 414.187 166.858 406.388C164.463 402.201 162.391 397.629 160.704 392.63C158.239 385.383 156.552 377.276 155.704 368.223C155.396 365.03 155.2 361.69 155.116 358.26C153.961 311.245 168.699 263.95 176.772 241.769C177.164 240.677 177.556 239.641 177.913 238.661C180.287 232.325 181.855 228.733 181.855 228.733H318.215C318.215 228.733 319.784 232.324 322.157 238.675C322.514 239.641 322.906 240.663 323.299 241.755C330.559 261.682 343.197 301.919 344.842 343.991C345.017 348.731 345.066 353.499 344.954 358.26Z" fill="#F69B39"/>
<path d="M294.165 228.726H205.898C205.898 228.726 187.561 283.344 188.583 337.514C189.598 391.685 215.742 410.183 250.028 410.183C284.314 410.183 310.458 391.685 311.473 337.514C312.495 283.344 294.165 228.726 294.165 228.726Z" fill="#F1E4C9"/>
<path d="M160.689 392.63C158.232 385.383 156.537 377.276 155.697 368.223C168.818 366.136 180.006 369.119 181.358 375.385C182.723 381.708 173.656 389.129 160.689 392.63Z" fill="#453D39"/>
<path d="M344.947 358.26C344.814 363.308 344.457 368.09 343.89 372.62C331.756 370.841 322.885 365.128 322.885 358.372C322.885 351.454 332.211 345.622 344.828 343.998C345.01 348.731 345.059 353.506 344.947 358.26Z" fill="#453D39"/>
<path d="M323.299 241.755C305.27 256.864 279.119 262.76 250.028 262.76C220.93 262.76 194.78 256.864 176.772 241.769C177.164 240.677 177.556 239.641 177.913 238.661C180.287 232.324 181.855 228.733 181.855 228.733H318.215C318.215 228.733 319.784 232.324 322.157 238.675C322.514 239.641 322.907 240.663 323.299 241.755Z" fill="#E38F35"/>
<path d="M210.288 75.0786C202.629 62.0348 190.061 45.6233 171.647 36.0243C167.579 33.9029 162.615 34.9812 159.787 38.587C139.427 64.5554 145.462 113.783 147.541 127.008C161.292 102.951 183.522 84.4815 210.288 75.0786Z" fill="#F69B39"/>
<path d="M194.906 81.7369C190.355 71.9278 182.94 59.3743 172.109 50.7695C169.7 48.8581 166.269 49.2781 164.386 51.7006C151.923 67.7619 154.486 97.1751 157.035 112.956C167.215 100.067 180.104 89.4035 194.906 81.7369Z" fill="#FFE9D4"/>
<path d="M289.769 75.0786C297.428 62.0348 309.996 45.6233 328.403 36.0243C332.477 33.9029 337.434 34.9812 340.27 38.587C360.63 64.5554 354.595 113.783 352.516 127.008C338.758 102.951 316.535 84.4815 289.769 75.0786Z" fill="#F69B39"/>
<path d="M305.15 81.7369C309.701 71.9278 317.109 59.3743 327.94 50.7695C330.349 48.8581 333.786 49.2781 335.67 51.7006C348.132 67.7619 345.57 97.1751 343.021 112.956C332.841 100.067 319.951 89.4035 305.15 81.7369Z" fill="#FFE9D4"/>
<path d="M368.703 168.331C368.703 102.79 315.569 52.2958 250.028 52.2958C184.488 52.2958 131.354 102.79 131.354 168.331C131.354 233.879 184.488 255.359 250.028 255.359C315.569 255.359 368.703 233.879 368.703 168.331Z" fill="#F69B39"/>
<path d="M305.151 190.28C305.151 163.465 280.471 138.47 250.028 138.47C219.586 138.47 194.906 163.465 194.906 190.28C194.906 217.096 219.586 235.58 250.028 235.58C280.471 235.58 305.151 217.096 305.151 190.28Z" fill="#F1E4C9"/>
<path d="M201.683 143.882C201.683 137.406 196.432 132.161 189.955 132.161C183.479 132.161 178.228 137.406 178.228 143.882C178.228 150.358 183.479 155.609 189.955 155.609C196.432 155.609 201.683 150.358 201.683 143.882Z" fill="black"/>
<path d="M321.821 143.882C321.821 137.406 316.577 132.161 310.101 132.161C303.625 132.161 298.374 137.406 298.374 143.882C298.374 150.358 303.625 155.609 310.101 155.609C316.577 155.609 321.821 150.358 321.821 143.882Z" fill="black"/>
<path d="M234.205 201.42C227.749 201.42 221.868 198.073 217.653 191.989C216.89 190.883 217.163 189.363 218.276 188.593C219.382 187.83 220.902 188.103 221.672 189.209C224.991 194.005 229.324 196.533 234.205 196.533C242.235 196.533 247.584 192.57 247.584 173.218C247.584 171.874 248.677 170.775 250.028 170.775C251.379 170.775 252.471 171.874 252.471 173.218C252.471 186.353 250.392 201.42 234.205 201.42Z" fill="black"/>
<path d="M265.852 201.42C249.664 201.42 247.585 186.353 247.585 173.218C247.585 171.874 248.677 170.775 250.028 170.775C251.38 170.775 252.472 171.874 252.472 173.218C252.472 192.57 257.821 196.533 265.852 196.533C270.732 196.533 275.066 194.005 278.384 189.209C279.155 188.103 280.674 187.83 281.78 188.593C282.893 189.363 283.166 190.883 282.396 191.989C278.188 198.073 272.307 201.42 265.852 201.42Z" fill="black"/>
<path d="M265.852 173.218C265.852 167.393 258.766 162.674 250.028 162.674C241.291 162.674 234.205 167.393 234.205 173.218C234.205 179.043 241.291 183.769 250.028 183.769C258.766 183.769 265.852 179.043 265.852 173.218Z" fill="black"/>
<path d="M294.712 73.1252C294.712 67.825 284.483 63.2531 269.633 61.0757C269.717 58.7022 269.787 56.3076 269.829 53.8711C264.83 53.059 259.719 52.5688 254.503 52.3728C253.039 52.3238 251.527 52.2958 250.029 52.2958C248.53 52.2958 247.018 52.3238 245.548 52.3728C240.339 52.5688 235.227 53.059 230.228 53.8711C230.27 56.3076 230.34 58.7022 230.424 61.0757C215.574 63.2531 205.345 67.825 205.345 73.1252C205.345 78.6283 216.429 83.3613 232.259 85.4197C232.525 87.6882 232.812 89.8936 233.127 92.0361C219.628 93.9405 210.288 98.0574 210.288 102.825C210.288 108.133 221.827 112.62 237.776 114.168C241.151 125.433 245.401 132.161 250.029 132.161C254.657 132.161 258.906 125.433 262.281 114.168C278.231 112.62 289.769 108.133 289.769 102.825C289.769 98.0574 280.422 93.9405 266.93 92.0361C267.245 89.8936 267.532 87.6882 267.798 85.4197C283.629 83.3613 294.712 78.6283 294.712 73.1252Z" fill="#453D39"/>
<path d="M352.46 220.051C346.809 227.136 339.822 232.983 331.763 237.765C321.863 225.911 317.242 215.528 320.89 211.243C324.86 206.587 337.582 210.48 352.46 220.051Z" fill="#453D39"/>
<path d="M368.675 166.707C346.81 169.465 329.649 166.84 328.249 159.901C326.814 152.753 342.462 143.413 364.608 137.518C367.135 146.78 368.549 156.569 368.675 166.707Z" fill="#453D39"/>
<path d="M368.367 176.985C367.408 189.524 364.313 200.286 359.447 209.437C338.232 203.261 323.984 194.376 325.217 186.969C326.519 179.183 344.548 175.389 368.367 176.985Z" fill="#453D39"/>
<path d="M168.293 237.765C160.227 232.983 153.247 227.136 147.597 220.051C162.475 210.48 175.196 206.587 179.166 211.243C182.814 215.528 178.186 225.911 168.293 237.765Z" fill="#453D39"/>
<path d="M171.808 159.901C170.408 166.84 153.247 169.465 131.375 166.707C131.508 156.569 132.922 146.78 135.449 137.518C157.595 143.413 173.236 152.753 171.808 159.901Z" fill="#453D39"/>
<path d="M140.609 209.437C135.743 200.286 132.649 189.524 131.689 176.985C155.508 175.389 173.53 179.183 174.832 186.969C176.072 194.376 161.824 203.261 140.609 209.437Z" fill="#453D39"/>
<path d="M365.825 251.515H134.231V270.966L146.147 274.445L134.231 280.151V314.256L142.402 317.266L134.231 322.034V360.136L143.235 362.993L134.231 366.767V369.917L151.553 376.709L134.231 378.137V393.092H365.825V379.117L360.245 376.709L365.825 373.523V321.075L358.579 316.846L365.825 312.281V278.226L354.007 273.612L365.825 266.891V251.515Z" fill="#A86531"/>
<path d="M340.83 290.367C330.153 296.36 318.054 303.151 293.514 307.282C274.96 310.405 262.526 315.817 257.541 322.923C255.419 325.955 254.656 329.211 255.279 332.613C257.072 342.359 291.561 345.363 312.915 344.971C326.092 344.719 347.769 345.762 365.825 350.026V349.2C347.72 344.957 326.099 343.921 312.901 344.152C290.924 344.572 257.667 341.127 256.077 332.466C255.496 329.288 256.217 326.235 258.206 323.392C263.065 316.468 275.317 311.175 293.647 308.087C318.327 303.935 330.496 297.102 341.229 291.081C343.939 289.554 346.501 288.119 349.127 286.81C353.202 284.779 359.293 282.637 365.825 280.613V279.759C359.16 281.818 352.929 284.002 348.763 286.082C346.123 287.398 343.547 288.84 340.83 290.367Z" fill="#8F562A"/>
<path d="M217.716 372.221C208.341 370.05 200.654 367.964 193.862 366.129C174.944 360.997 162.076 357.518 134.231 357.371V358.183C161.985 358.323 174.79 361.803 193.652 366.914C200.444 368.755 208.145 370.841 217.534 373.019C226.965 375.196 238.819 378.585 252.542 382.513C264.185 385.846 277.145 389.542 290.742 393.092H293.997C279.301 389.311 265.27 385.306 252.766 381.729C239.036 377.801 227.168 374.412 217.716 372.221Z" fill="#8F562A"/>
<path d="M303.197 312.498C285.441 316.447 275.843 320.725 273.84 325.591C272.664 328.447 274.281 330.968 275.464 332.802L275.689 333.159C278.545 337.64 295.026 339.041 315.765 336.548C330.832 334.742 349.575 335.435 365.825 337.227V336.408C349.547 334.616 330.776 333.93 315.667 335.743C295.552 338.152 279.028 336.884 276.382 332.718L276.151 332.361C275.002 330.583 273.581 328.363 274.596 325.899C276.459 321.369 286.142 317.126 303.379 313.296L310.388 311.742C332.148 306.932 349.799 303.025 365.825 297.011V296.143C349.771 302.199 332.064 306.113 310.213 310.944L303.197 312.498Z" fill="#8F562A"/>
<path d="M266.811 375.819C252.682 374.216 243.356 373.159 225.824 367.026C222.302 365.793 218.809 364.54 215.308 363.287C192.728 355.186 169.385 346.833 134.231 342.738V343.557C169.245 347.653 192.518 355.977 215.035 364.05C218.536 365.31 222.029 366.557 225.551 367.789C243.167 373.957 252.542 375.021 266.72 376.632C274.848 377.549 284.055 378.599 297.211 380.839C314.687 383.815 332.729 388.611 349.092 393.092H352.172C335.047 388.387 315.891 383.192 297.344 380.034C284.167 377.787 274.946 376.744 266.811 375.819Z" fill="#8F562A"/>
<path d="M170.674 251.515H166.13C155.711 253.294 145.09 254.54 134.231 255.275V256.087C146.68 255.254 158.806 253.721 170.674 251.515Z" fill="#8F562A"/>
<path d="M342.433 312.113C336.251 314.361 330.167 315.796 324.797 317.063C317.081 318.884 311.501 320.193 310.276 322.902C309.87 323.792 309.961 324.807 310.549 325.913C311.459 327.635 314.61 328.266 319.315 328.266C324.944 328.266 332.799 327.362 341.656 326.34C349.54 325.43 357.991 324.464 365.825 324.044V323.231C357.949 323.645 349.47 324.618 341.565 325.528C326.876 327.222 313.006 328.819 311.263 325.535C310.801 324.653 310.717 323.897 311.018 323.238C312.082 320.893 317.774 319.556 324.979 317.854C330.37 316.58 336.482 315.145 342.706 312.876C350.849 309.915 358.663 307.744 365.825 306.05V305.217C358.593 306.918 350.681 309.116 342.433 312.113Z" fill="#8F562A"/>
<path d="M134.231 300.792V301.611C192.539 299.987 206.444 296.402 230.445 286.824C237.65 283.946 248.824 277.12 262.967 268.473C271.397 263.32 280.954 257.481 291.288 251.515H289.656C279.784 257.243 270.647 262.83 262.54 267.78C248.432 276.399 237.285 283.211 230.144 286.068C206.241 295.604 192.385 299.174 134.231 300.792Z" fill="#8F562A"/>
<path d="M223.213 389.829C191.398 382.688 163.693 384.438 141.435 385.839C138.957 385.993 136.555 386.147 134.231 386.28V387.099C136.569 386.966 138.992 386.812 141.491 386.651C163.7 385.25 191.335 383.507 223.037 390.628C226.328 391.363 229.857 392.196 233.561 393.092H237.005C232.104 391.895 227.462 390.789 223.213 389.829Z" fill="#8F562A"/>
<path d="M134.231 285.921V286.733C193.036 285.837 213.074 281.279 236.305 264.727C240.982 261.395 248.579 256.767 258.115 251.515H256.441C247.473 256.493 240.31 260.876 235.829 264.069C212.766 280.494 192.826 285.024 134.231 285.921Z" fill="#8F562A"/>
<path d="M215.868 254.127C198.119 260.687 179.803 267.451 134.231 270.16V270.965V270.973C180.091 268.214 199.17 261.17 216.148 254.89C219.327 253.714 222.351 252.608 225.516 251.515H223.058C220.671 252.363 218.305 253.224 215.868 254.127Z" fill="#8F562A"/>
<path d="M330.461 256.024C326.309 258.174 321.835 260.68 317.095 263.334C301.678 271.974 282.487 282.721 260.691 288.854C239.071 294.945 233.47 299.755 223.297 308.479C219.978 311.322 216.218 314.543 211.254 318.386C195.704 330.429 183.43 329.001 153.786 325.542C147.877 324.856 141.456 324.107 134.231 323.364V324.184C141.414 324.926 147.807 325.668 153.695 326.354C165.619 327.74 174.748 328.805 182.422 328.805C193.988 328.805 202.25 326.389 211.751 319.03C216.736 315.173 220.503 311.945 223.822 309.095C233.911 300.449 239.463 295.681 260.915 289.638C282.802 283.477 302.035 272.702 317.494 264.048C322.227 261.394 326.701 258.895 330.839 256.745C334.375 254.911 338.338 253.168 342.678 251.515H340.417C336.804 252.951 333.486 254.456 330.461 256.024Z" fill="#8F562A"/>
<path d="M134.231 331.038C171.094 336.023 201.046 344.593 223.332 356.544C245.778 368.58 257.527 369.308 275.31 370.414C279.63 370.68 284.09 370.96 289.222 371.422C309.253 373.215 332.386 376.541 365.825 387.477V386.616C332.449 375.721 309.323 372.403 289.299 370.61C284.153 370.148 279.483 369.861 275.359 369.602C257.681 368.503 246.002 367.775 223.717 355.823C201.326 343.816 171.241 335.211 134.231 330.219V331.038Z" fill="#8F562A"/>
<path d="M209.966 306.421C223.493 297.627 252.633 283.883 273.588 276.406C280.015 274.109 291.001 268.389 303.729 261.766C309.933 258.531 316.661 255.03 323.634 251.515H321.828C315.366 254.785 309.135 258.034 303.351 261.044C290.658 267.654 279.693 273.367 273.315 275.642C252.311 283.134 223.093 296.92 209.525 305.742C196.18 314.41 181.484 314.508 134.231 314.207V314.256L136.359 315.04C142.528 315.075 148.15 315.103 153.254 315.103C186.021 315.103 198.427 313.92 209.966 306.421Z" fill="#8F562A"/>
<path d="M268.393 295.443C243.944 300.428 217.898 307.891 218.311 333.341C218.676 356.243 270.668 360.969 301.734 363.798C304.871 364.078 307.783 364.344 310.388 364.603C330.405 366.612 345.22 368.825 364.537 374.258L365.538 373.684C345.78 368.076 330.811 365.835 310.472 363.798C307.86 363.539 304.948 363.273 301.804 362.986C271.012 360.185 219.481 355.501 219.124 333.334C218.725 308.493 243.321 301.387 268.554 296.241C293.535 291.137 303.022 288.721 319.539 275.943C330.258 267.654 345.99 261.941 365.825 259.021V258.202C345.794 261.135 329.887 266.912 319.042 275.299C302.665 287.965 293.241 290.366 268.393 295.443Z" fill="#8F562A"/>
<path d="M326.436 284.114C316.227 291.809 294.873 300.036 273.82 300.869C250.631 301.786 238.343 311.119 238.287 327.852C238.224 347.302 293.886 355.585 307.672 356.593C309.786 356.747 312.237 356.887 314.96 357.041C328.074 357.805 347.454 358.939 365.826 363.644V362.804C347.44 358.12 328.102 356.985 315.002 356.229C312.286 356.075 309.842 355.935 307.728 355.781C294.096 354.78 239.036 346.679 239.099 327.859C239.155 311.399 250.848 302.591 273.855 301.681C295.069 300.841 316.613 292.537 326.926 284.765C331.988 280.95 341.153 277.323 354.526 273.815L354.007 273.612L355.632 272.688C341.412 276.336 331.736 280.116 326.436 284.114Z" fill="#8F562A"/>
<path d="M365.825 299.51H134.231V296.255H365.825V299.51Z" fill="#7D4B25"/>
<path d="M365.825 346.966H134.231V343.711H365.825V346.966Z" fill="#7D4B25"/>
<path d="M131.353 311.714C131.353 311.714 163.112 313.1 164.001 330.282C164.883 347.471 150.677 357.126 130.345 353.128L131.353 311.714Z" fill="#F69B39"/>
<path d="M368.731 311.714C368.731 311.714 336.973 313.1 336.083 330.282C335.201 347.471 349.407 357.126 369.739 353.128L368.731 311.714Z" fill="#F69B39"/>
<path d="M215.197 303.76C215.464 303.6 215.811 303.52 216.237 303.52C216.664 303.52 217.051 303.707 217.397 304.08C217.744 304.427 217.917 304.84 217.917 305.32C217.917 315.747 217.957 322.053 218.037 324.24C218.144 326.4 218.197 327.507 218.197 327.56C218.197 328.147 218.037 328.707 217.717 329.24C217.397 329.747 217.037 330 216.637 330C216.264 330 215.971 329.987 215.757 329.96C215.571 329.907 215.397 329.853 215.237 329.8C215.077 329.747 214.917 329.64 214.757 329.48L214.357 329.08C214.251 328.973 214.104 328.773 213.917 328.48C213.757 328.16 213.624 327.907 213.517 327.72C213.411 327.533 213.237 327.213 212.997 326.76C212.784 326.28 212.291 325.32 211.517 323.88C210.771 322.44 210.091 321.147 209.477 320C207.371 316.133 205.411 313.08 203.597 310.84C203.597 319.507 203.357 325.52 202.877 328.88C202.797 329.52 202.304 329.84 201.397 329.84C200.971 329.84 200.611 329.733 200.317 329.52C200.051 329.307 199.917 328.96 199.917 328.48C199.917 328 200.011 325.36 200.197 320.56C200.411 315.76 200.517 312.773 200.517 311.6C200.517 310.4 200.517 309.64 200.517 309.32C200.517 307.4 200.664 306.32 200.957 306.08C201.251 305.84 201.557 305.72 201.877 305.72C203.344 305.72 205.584 308.12 208.597 312.92C209.184 313.853 210.304 315.813 211.957 318.8C213.611 321.76 214.597 323.587 214.917 324.28L214.437 307.68C214.437 305.387 214.691 304.08 215.197 303.76ZM232.246 311.32C233.42 311.32 234.006 312.32 234.006 314.32C234.006 314.533 234.006 314.76 234.006 315L233.926 317.8C233.9 318.68 233.886 319.547 233.886 320.4L234.486 329.44C234.486 330.107 233.806 330.44 232.446 330.44C232.366 330.44 232.166 330.44 231.846 330.44C231.553 330.44 231.34 330.32 231.206 330.08C231.1 329.84 231.086 329.547 231.166 329.2C231.273 328.853 231.246 328.467 231.086 328.04C229.86 329.347 228.233 330 226.206 330C222.446 330 220.566 327.093 220.566 321.28C220.566 318.053 221.166 315.613 222.366 313.96C223.593 312.307 225.34 311.48 227.606 311.48C228.673 311.48 229.74 311.667 230.806 312.04C231.153 311.56 231.633 311.32 232.246 311.32ZM228.086 314.96C226.566 314.96 225.433 315.4 224.686 316.28C223.94 317.16 223.566 318.773 223.566 321.12C223.566 325.067 224.633 327.04 226.766 327.04C227.326 327.04 227.94 326.787 228.606 326.28C229.3 325.773 229.78 325.2 230.046 324.56C230.553 323.12 230.806 321.547 230.806 319.84C230.806 318.133 230.593 316.893 230.166 316.12C229.766 315.347 229.073 314.96 228.086 314.96ZM243.07 329.96C242.164 329.96 241.324 329.653 240.55 329.04C240.55 329.04 240.377 328.893 240.03 328.6V340.6C239.87 341.133 239.59 341.573 239.19 341.92C238.79 342.293 238.364 342.48 237.91 342.48C237.217 342.48 236.87 342.013 236.87 341.08V313.2C237.03 312.507 237.217 312.013 237.43 311.72C237.67 311.427 238.03 311.28 238.51 311.28C239.017 311.28 239.337 311.4 239.47 311.64C239.63 311.853 239.817 312.467 240.03 313.48C240.137 312.947 240.564 312.453 241.31 312C242.057 311.547 243.057 311.32 244.31 311.32C247.03 311.32 248.964 312.307 250.11 314.28C251.257 316.253 251.83 318.587 251.83 321.28C251.83 323.947 251.044 326.067 249.47 327.64C247.924 329.187 245.79 329.96 243.07 329.96ZM240.03 317.96V325.4C240.19 325.48 240.377 325.613 240.59 325.8C241.364 326.493 242.204 326.84 243.11 326.84C246.79 326.84 248.63 324.947 248.63 321.16C248.63 317.933 247.804 315.893 246.15 315.04C245.457 314.667 244.604 314.48 243.59 314.48C242.604 314.613 241.764 315.053 241.07 315.8C240.377 316.52 240.03 317.24 240.03 317.96ZM260.18 329.96C259.273 329.96 258.433 329.653 257.66 329.04C257.66 329.04 257.487 328.893 257.14 328.6V340.6C256.98 341.133 256.7 341.573 256.3 341.92C255.9 342.293 255.473 342.48 255.02 342.48C254.327 342.48 253.98 342.013 253.98 341.08V313.2C254.14 312.507 254.327 312.013 254.54 311.72C254.78 311.427 255.14 311.28 255.62 311.28C256.127 311.28 256.447 311.4 256.58 311.64C256.74 311.853 256.927 312.467 257.14 313.48C257.247 312.947 257.673 312.453 258.42 312C259.167 311.547 260.167 311.32 261.42 311.32C264.14 311.32 266.073 312.307 267.22 314.28C268.367 316.253 268.94 318.587 268.94 321.28C268.94 323.947 268.153 326.067 266.58 327.64C265.033 329.187 262.9 329.96 260.18 329.96ZM257.14 317.96V325.4C257.3 325.48 257.487 325.613 257.7 325.8C258.473 326.493 259.313 326.84 260.22 326.84C263.9 326.84 265.74 324.947 265.74 321.16C265.74 317.933 264.913 315.893 263.26 315.04C262.567 314.667 261.713 314.48 260.7 314.48C259.713 314.613 258.873 315.053 258.18 315.8C257.487 316.52 257.14 317.24 257.14 317.96ZM273.609 304.72C274.089 304.72 274.543 304.947 274.969 305.4C275.396 305.853 275.609 306.333 275.609 306.84C275.609 307.32 275.369 307.813 274.889 308.32C274.436 308.827 273.956 309.08 273.449 309.08C272.943 309.08 272.476 308.867 272.049 308.44C271.649 308.013 271.449 307.467 271.449 306.8C271.449 305.52 272.143 304.827 273.529 304.72C273.556 304.72 273.583 304.72 273.609 304.72ZM275.289 325.68L275.329 328.48C275.329 328.987 275.129 329.413 274.729 329.76C274.329 330.08 273.903 330.24 273.449 330.24C272.783 330.24 272.436 329.907 272.409 329.24C272.063 320.733 271.889 316.027 271.889 315.12C271.889 314.213 271.929 313.107 272.009 311.8C272.063 311.32 272.369 311.08 272.929 311.08C274.343 311.08 275.143 311.653 275.329 312.8C275.409 313.387 275.449 313.853 275.449 314.2L275.289 316.72V325.68ZM285.675 311.48C287.088 311.48 288.435 311.893 289.715 312.72C290.995 313.547 291.635 314.573 291.635 315.8C291.635 317 291.115 318.173 290.075 319.32C289.035 320.44 287.648 321.12 285.915 321.36C285.168 321.467 284.048 321.52 282.555 321.52C282.848 323.787 283.421 325.28 284.275 326C284.541 326.293 284.901 326.44 285.355 326.44C287.008 326.44 288.395 325.92 289.515 324.88C290.635 323.813 291.435 323.28 291.915 323.28C292.128 323.28 292.448 323.48 292.875 323.88C293.301 324.28 293.515 324.653 293.515 325C293.515 325.693 292.675 326.693 290.995 328C290.248 328.613 289.341 329.133 288.275 329.56C287.235 329.96 286.261 330.16 285.355 330.16C283.035 330.16 281.328 328.667 280.235 325.68C279.541 323.84 279.195 321.813 279.195 319.6C279.195 317.387 279.715 315.48 280.755 313.88C281.795 312.28 283.435 311.48 285.675 311.48ZM285.875 314.24C284.861 314.24 283.995 314.813 283.275 315.96C283.008 316.36 282.755 317.267 282.515 318.68C286.248 318.68 288.115 317.76 288.115 315.92C288.115 314.8 287.368 314.24 285.875 314.24ZM296.532 316.4C296.532 314.827 297.092 313.573 298.212 312.64C299.332 311.707 300.625 311.24 302.092 311.24C303.585 311.24 305.012 311.507 306.372 312.04C307.732 312.573 308.412 313.28 308.412 314.16C308.412 314.613 308.239 314.973 307.892 315.24C307.545 315.507 307.239 315.64 306.972 315.64C306.732 315.64 306.532 315.64 306.372 315.64C306.239 315.613 305.705 315.36 304.772 314.88C303.865 314.4 303.025 314.16 302.252 314.16C301.479 314.16 300.812 314.36 300.252 314.76C299.719 315.133 299.452 315.693 299.452 316.44C299.452 317.187 299.759 317.773 300.372 318.2C301.012 318.627 302.119 319 303.692 319.32C305.265 319.613 306.465 320.04 307.292 320.6C308.145 321.16 308.572 322.2 308.572 323.72C308.572 325.933 307.985 327.507 306.812 328.44C305.665 329.347 304.265 329.8 302.612 329.8C300.959 329.8 299.545 329.573 298.372 329.12C297.225 328.667 296.652 327.987 296.652 327.08C296.652 326.04 297.172 325.52 298.212 325.52C298.479 325.52 299.065 325.707 299.972 326.08C300.879 326.453 301.772 326.64 302.652 326.64C303.559 326.64 304.239 326.36 304.692 325.8C305.172 325.213 305.412 324.547 305.412 323.8C305.412 323.053 305.105 322.52 304.492 322.2C303.879 321.853 302.945 321.573 301.692 321.36C300.439 321.147 299.519 320.92 298.932 320.68C297.332 320.04 296.532 318.613 296.532 316.4Z" fill="white"/>
</svg>
