<svg width="501" height="501" viewBox="0 0 501 501" fill="none" xmlns="http://www.w3.org/2000/svg">
<rect width="501" height="501" rx="20.4143" fill="#EAEBE8"/>
<path d="M327.809 255.805C327.809 255.805 368.24 275.658 383.828 314.305C399.416 352.953 361.387 378.343 311.658 355.848C261.929 333.352 297.725 303.746 315.266 302.78C332.808 301.813 320.989 266.245 320.989 266.245L327.809 255.805Z" fill="#F7D46B"/>
<path d="M176.531 255.805C176.531 255.805 136.1 275.658 120.512 314.306C104.924 352.953 142.953 378.343 192.682 355.848C242.411 333.352 206.615 303.746 189.074 302.78C171.532 301.812 183.351 266.245 183.351 266.245L176.531 255.805Z" fill="#F7D46B"/>
<path d="M234.674 426.699C234.674 426.699 215.399 438.084 160.943 464.755C116.673 486.436 94.8634 437.53 101.026 416.767C108.82 390.507 144.38 403.128 144.38 403.128C161.624 400.405 167.519 379.429 167.519 379.429L234.674 426.699Z" fill="#F7D46B"/>
<path d="M134.014 455.282C141.278 452.19 143.273 440.535 138.47 429.249C133.666 417.964 123.884 411.321 116.62 414.412C109.356 417.504 107.361 429.159 112.164 440.445C116.968 451.731 126.75 458.374 134.014 455.282Z" fill="#F1E4C9"/>
<path d="M269.665 426.699C269.665 426.699 288.94 438.084 343.396 464.755C387.666 486.436 409.476 437.53 403.313 416.767C395.519 390.507 359.959 403.128 359.959 403.128C342.715 400.405 336.82 379.429 336.82 379.429L269.665 426.699Z" fill="#F7D46B"/>
<path d="M392.152 440.481C396.955 429.195 394.96 417.54 387.696 414.448C380.432 411.357 370.65 418 365.847 429.285C361.043 440.571 363.038 452.227 370.302 455.318C377.566 458.41 387.348 451.767 392.152 440.481Z" fill="#F1E4C9"/>
<path d="M317.263 405.302C306.162 405.302 294.794 403.967 283.666 401.22C279.829 400.272 277.487 396.395 278.435 392.559C279.382 388.722 283.266 386.374 287.096 387.327C318.582 395.105 353.204 390.056 373.253 374.773C384.374 366.298 390.18 355.589 390.511 342.946C391.871 290.994 418.426 275.22 427.153 270.038L427.689 269.718C431.081 267.692 435.475 268.797 437.502 272.188C439.529 275.58 438.423 279.973 435.032 282.001L434.461 282.341C426.668 286.969 405.97 299.265 404.815 343.32C404.372 360.268 396.458 375.079 381.928 386.153C365.566 398.624 342.09 405.302 317.263 405.302Z" fill="#F0CF68"/>
<path d="M425.49 282.816C419.417 273.539 423.118 263.513 434.485 255.77C444.856 248.706 450.89 250.448 452.789 253.331C455.676 257.711 448.344 262.783 448.344 262.783C448.344 262.783 456.648 260.891 458.39 264.386C460.132 267.88 454.267 273.082 454.267 273.082C454.267 273.082 460.999 270.038 462.529 276.125C464.048 282.162 434.692 296.875 425.49 282.816Z" fill="#F69B39"/>
<path d="M345.606 386.937C339.983 416.786 301.991 426.359 275.118 429.321C265.717 430.351 257.675 430.581 252.853 430.581C248.031 430.581 239.989 430.352 230.588 429.321C203.715 426.359 165.723 416.786 160.1 386.937C152.359 345.783 176.642 242.598 176.642 242.598H329.065C329.065 242.598 353.348 345.783 345.606 386.937Z" fill="#F7D46B"/>
<path d="M275.119 429.321C265.718 430.351 257.676 430.581 252.853 430.581C248.031 430.581 239.989 430.352 230.588 429.321C227.969 415.813 211.943 328.512 216.923 242.598H288.785C293.764 328.511 277.738 415.813 275.119 429.321Z" fill="#F1E4C9"/>
<path d="M386.109 167.592C389.018 160.49 390.164 152.555 389.048 144.405C387.304 131.679 380.407 120.935 370.76 113.962C371.492 103.918 368.885 93.5688 362.628 84.698C355.689 74.8618 345.531 68.6546 334.59 66.4709C330.54 57.6782 323.653 50.1118 314.393 45.3112C304.136 39.9944 292.783 39.0056 282.41 41.6723C274.403 34.4197 263.782 30 252.127 30C238.825 30 226.87 35.758 218.611 44.9156C206.739 41.2662 193.424 42.498 181.964 49.4387C173.11 54.8004 166.767 62.7255 163.292 71.6825C152.492 74.575 142.739 81.4498 136.454 91.7463C130.882 100.875 128.948 111.2 130.226 121.04C120.951 128.64 114.699 139.887 113.797 152.792C113.238 160.778 114.803 168.418 117.994 175.176C110.931 187.174 109.49 202.262 115.443 216.018C121.251 229.439 132.799 238.598 145.971 241.883C148.064 251.511 153.3 260.526 161.529 267.237C172.583 276.253 186.62 279.152 199.559 276.37C205.755 283.282 214.125 288.355 223.907 290.399C235.216 292.762 246.417 290.661 255.69 285.303C265.353 290.135 276.771 291.536 287.996 288.402C297.4 285.777 305.262 280.351 310.956 273.29C324.122 275.29 338.041 271.482 348.537 261.694C356.102 254.639 360.689 245.592 362.263 236.12C375.341 232.037 386.408 222.073 391.358 208.173C396.386 194.053 393.95 179.096 386.109 167.592Z" fill="#F69B39"/>
<path d="M190.881 129.774C206.484 127.155 217.01 112.384 214.392 96.7808C211.773 81.1777 197.002 70.6515 181.398 73.27C165.795 75.8884 155.269 90.6599 157.888 106.263C160.506 121.866 175.278 132.392 190.881 129.774Z" fill="#F7D46B"/>
<path d="M186.151 120.144C196.44 120.144 204.781 111.803 204.781 101.514C204.781 91.2244 196.44 82.8834 186.151 82.8834C175.862 82.8834 167.521 91.2244 167.521 101.514C167.521 111.803 175.862 120.144 186.151 120.144Z" fill="#F1E4C9"/>
<path d="M346.113 107.977C349.677 92.5623 340.071 77.1764 324.656 73.6119C309.241 70.0473 293.855 79.6538 290.291 95.0687C286.726 110.484 296.333 125.869 311.747 129.434C327.162 132.999 342.548 123.392 346.113 107.977Z" fill="#F7D46B"/>
<path d="M318.187 120.144C328.476 120.144 336.817 111.803 336.817 101.514C336.817 91.2244 328.476 82.8834 318.187 82.8834C307.898 82.8834 299.557 91.2244 299.557 101.514C299.557 111.803 307.898 120.144 318.187 120.144Z" fill="#F1E4C9"/>
<path d="M356.462 179.324C356.462 121.725 309.769 77.3492 252.17 77.3492C194.57 77.3492 147.877 121.725 147.877 179.324C147.877 236.923 194.57 255.805 252.17 255.805C309.769 255.805 356.462 236.923 356.462 179.324Z" fill="#F7D46B"/>
<path d="M208.866 161.822C211.066 156.574 208.594 150.536 203.346 148.336C198.098 146.135 192.06 148.606 189.86 153.854C187.66 159.102 190.131 165.14 195.379 167.34C200.628 169.54 206.666 167.069 208.866 161.822Z" fill="black"/>
<path d="M312.243 165.122C316.267 161.099 316.267 154.575 312.243 150.551C308.219 146.527 301.695 146.527 297.672 150.551C293.648 154.575 293.648 161.099 297.672 165.122C301.695 169.146 308.219 169.146 312.243 165.122Z" fill="black"/>
<path d="M311.099 208.298C311.099 187.193 284.715 166.618 252.169 166.618C219.623 166.618 193.239 187.194 193.239 208.298C193.239 229.402 219.623 243.042 252.169 243.042C284.715 243.042 311.099 229.402 311.099 208.298Z" fill="#F1E4C9"/>
<path d="M238.264 218.417C232.589 218.417 227.424 215.474 223.721 210.131C223.046 209.156 223.289 207.82 224.263 207.143C225.237 206.474 226.574 206.712 227.251 207.685C230.169 211.898 233.977 214.124 238.264 214.124C245.322 214.124 250.023 210.639 250.023 193.633C250.023 192.448 250.984 191.487 252.169 191.487C253.354 191.487 254.315 192.448 254.315 193.633C254.316 205.173 252.491 218.417 238.264 218.417Z" fill="black"/>
<path d="M266.074 218.417C251.847 218.417 250.022 205.173 250.022 193.633C250.022 192.448 250.984 191.487 252.169 191.487C253.354 191.487 254.315 192.448 254.315 193.633C254.315 210.639 259.016 214.124 266.074 214.124C270.361 214.124 274.169 211.898 277.087 207.685C277.765 206.711 279.1 206.472 280.074 207.143C281.049 207.819 281.292 209.155 280.617 210.131C276.914 215.475 271.749 218.417 266.074 218.417Z" fill="black"/>
<path d="M281.046 164.362C279.272 145.62 272.51 113.468 252.17 113.468C231.828 113.468 225.067 145.62 223.293 164.362C221.809 180.036 217.695 187.59 252.17 187.59C286.644 187.59 282.529 180.036 281.046 164.362Z" fill="#F69B39"/>
<path d="M282.013 181.339C282.013 173.186 268.651 166.578 252.17 166.578C235.688 166.578 222.327 173.186 222.327 181.339C222.327 189.491 235.688 200.657 252.17 200.657C268.651 200.657 282.013 189.491 282.013 181.339Z" fill="black"/>
<path d="M354.619 273.09H151.087V281.86L156.445 284.152L151.087 286.186V314.795V320.38L160.098 323.984L151.087 326.816V331.296L156.079 335.647L151.087 337.21V356.5V365L159.732 367.881L151.087 371.854V388.609L155.348 389.802L151.087 392.188V398.205H354.619V389.117L344.963 385.784L354.619 383.751V372.091L344.963 367.516L354.619 363.705V356.5V348.08L348.616 345.54L354.619 344.184V330.412L344.232 327.273L354.619 324.132V314.795V307.508L343.136 304.931L354.619 301.65V295.999L347.52 291.778L354.619 287.394V273.09Z" fill="#A86531"/>
<path d="M207.707 312.322C223.311 308.854 231.753 305.091 233.509 300.819C234.544 298.305 233.121 296.093 232.081 294.479L231.882 294.169C229.373 290.227 214.887 289 196.667 291.188C182.93 292.836 165.716 292.126 151.087 290.417V291.137C165.75 292.843 182.989 293.55 196.752 291.898C214.426 289.776 228.949 290.892 231.279 294.553L231.48 294.866C232.486 296.431 233.739 298.379 232.848 300.546C231.209 304.531 222.697 308.258 207.549 311.624L201.389 312.988C185.185 316.571 171.578 319.586 159.228 323.638L160.097 323.985L151.086 326.817V327.316C165.621 321.641 181.615 318.092 201.544 313.687L207.707 312.322Z" fill="#8F562A"/>
<path d="M173.23 312.662C178.662 310.687 184.013 309.425 188.732 308.312C195.512 306.714 200.411 305.559 201.49 303.183C201.846 302.396 201.767 301.506 201.252 300.533C199.496 297.214 188.207 298.514 173.909 300.16C166.449 301.02 158.408 301.941 151.088 302.249V302.964C158.443 302.656 166.509 301.733 173.992 300.871C186.9 299.385 199.092 297.981 200.621 300.869C201.032 301.645 201.103 302.306 200.839 302.888C199.905 304.944 194.903 306.124 188.568 307.617C183.83 308.734 178.458 310 172.987 311.99C165.224 314.812 157.805 316.821 151.088 318.356V319.09C157.869 317.545 165.372 315.519 173.23 312.662Z" fill="#8F562A"/>
<path d="M174.64 331.771C184.021 326.505 194.653 320.535 216.222 316.905C232.524 314.16 243.454 309.408 247.834 303.161C249.699 300.499 250.369 297.635 249.82 294.649C248.247 286.082 217.935 283.437 199.167 283.788C187.192 284.013 167.251 283.028 151.086 278.955V279.685C167.312 283.742 187.213 284.726 199.182 284.503C218.458 284.139 247.72 287.163 249.117 294.777C249.628 297.568 248.999 300.25 247.247 302.75C242.98 308.837 232.21 313.487 216.101 316.199C194.411 319.85 183.721 325.852 174.288 331.148C171.904 332.485 169.653 333.751 167.345 334.901C163.439 336.849 157.419 338.91 151.086 340.83V341.577C157.529 339.63 163.677 337.529 167.663 335.541C169.988 334.382 172.247 333.114 174.64 331.771Z" fill="#8F562A"/>
<path d="M354.619 284.85C333.447 282.259 317.212 277.893 302.63 273.09H300.35C315.518 278.178 332.343 282.853 354.619 285.572V284.85Z" fill="#8F562A"/>
<path d="M262.099 385.75C258.804 387.278 255.088 389.175 250.787 391.371C246.669 393.474 242.118 395.798 237.134 398.205H238.772C243.245 396.025 247.358 393.925 251.113 392.007C255.408 389.815 259.117 387.921 262.401 386.398C291.493 372.907 321.796 365.119 354.62 362.721V362.003C321.689 364.403 291.286 372.213 262.099 385.75Z" fill="#8F562A"/>
<path d="M233.526 322.546C253.905 321.737 264.703 313.537 264.753 298.829C264.811 281.739 215.893 274.46 203.781 273.573C201.922 273.438 199.766 273.314 197.37 273.175C196.901 273.148 196.393 273.118 195.906 273.09H185.214C189.647 273.44 193.762 273.683 197.329 273.889C199.72 274.027 201.872 274.151 203.727 274.287C215.707 275.163 264.094 282.284 264.036 298.826C263.988 313.289 253.714 321.028 233.498 321.83C214.85 322.568 195.919 329.867 186.856 336.696C181.078 341.05 169.282 345.133 151.086 349.052V349.78C169.478 345.823 181.42 341.689 187.287 337.268C196.261 330.507 215.024 323.278 233.526 322.546Z" fill="#8F562A"/>
<path d="M271.911 335.554C292.698 327.255 304.83 324.099 354.619 322.655V321.939C304.698 323.386 292.522 326.555 271.646 334.888C265.312 337.418 255.495 343.418 243.067 351.013C219.285 365.548 185.352 386.277 151.087 397.043V397.794C185.509 387.02 219.575 366.208 243.439 351.623C255.838 344.046 265.633 338.06 271.911 335.554Z" fill="#8F562A"/>
<path d="M252.493 377.548C262.645 372.484 270.662 368.484 275.383 366.883C278.48 365.834 281.384 364.76 284.457 363.623C299.846 357.931 315.716 352.066 354.618 349.626V348.915C315.447 351.402 298.937 357.505 284.208 362.952C281.14 364.087 278.241 365.159 275.154 366.206C270.387 367.822 262.35 371.832 252.174 376.908C239.589 383.186 223.83 391.046 206.719 398.205H208.557C225.081 391.216 240.281 383.64 252.493 377.548Z" fill="#8F562A"/>
<path d="M238.299 327.314C259.782 322.928 282.671 316.375 282.312 294.003C282.137 283.101 268.643 276.891 251.977 273.09H248.669C266.48 276.743 281.417 282.856 281.597 294.014C281.947 315.84 260.329 322.086 238.157 326.613C216.198 331.097 207.865 333.219 193.346 344.449C183.648 351.951 169.258 357.044 151.086 359.534V360.253C169.431 357.749 183.972 352.603 193.785 345.014C208.179 333.882 216.462 331.773 238.299 327.314Z" fill="#8F562A"/>
<path d="M354.619 335.704V334.989C304.142 335.834 286.704 339.908 266.496 354.303C253.27 363.725 213.555 384.935 175.652 398.205H177.767C215.184 384.868 253.881 364.169 266.913 354.886C286.974 340.594 304.332 336.547 354.619 335.704Z" fill="#8F562A"/>
<path d="M183.75 361.957C187.394 360.065 191.328 357.863 195.49 355.531C209.042 347.941 225.909 338.495 245.063 333.1C264.063 327.748 268.989 323.524 277.931 315.858C280.844 313.359 284.148 310.528 288.512 307.149C302.174 296.567 312.961 297.823 339.016 300.859C343.087 301.333 347.43 301.839 352.173 302.349L354.013 301.824C348.586 301.252 343.663 300.68 339.1 300.148C312.839 297.09 301.968 295.823 288.074 306.583C283.696 309.973 280.387 312.811 277.466 315.315C268.601 322.915 263.719 327.102 244.871 332.411C225.634 337.83 208.727 347.298 195.141 354.907C190.982 357.235 187.054 359.435 183.42 361.323C175.155 365.614 164.324 369.34 151.087 372.474V373.209C164.46 370.052 175.4 366.292 183.75 361.957Z" fill="#8F562A"/>
<path d="M287.118 393.063C285.894 393.47 284.652 393.882 283.38 394.3C280.708 395.176 277.24 396.524 273.107 398.205H275.011C278.418 396.836 281.304 395.733 283.603 394.979C284.875 394.562 286.119 394.149 287.342 393.742C303.879 388.252 316.667 384.017 349.579 384.811L352.589 384.178C317.312 383.042 304.217 387.386 287.118 393.063Z" fill="#8F562A"/>
<path d="M289.646 317.662C277.754 325.389 252.148 337.471 233.731 344.043C228.081 346.059 218.425 351.087 207.244 356.911C190.52 365.62 169.534 376.548 151.087 383.124V383.88C169.647 377.294 190.759 366.302 207.573 357.546C218.732 351.735 228.368 346.716 233.971 344.716C252.431 338.128 278.106 326.014 290.036 318.261C301.608 310.739 314.333 310.56 354.619 310.81V310.095C314.179 309.846 301.394 310.026 289.646 317.662Z" fill="#8F562A"/>
<path d="M354.619 295.999L354.193 295.746C322.724 291.328 297.076 283.9 277.895 273.616C277.549 273.43 277.226 273.27 276.885 273.09H275.335C276.07 273.47 276.794 273.837 277.557 274.246C296.918 284.628 322.825 292.11 354.618 296.53V295.999H354.619Z" fill="#8F562A"/>
<path d="M354.62 313.364H151.087V316.226H354.62V313.364Z" fill="#7D4B25"/>
<path d="M354.62 355.069H151.087V357.931H354.62V355.069Z" fill="#7D4B25"/>
<path d="M144.602 362.945C157.533 365.254 172.413 355.389 173.193 340.045C173.973 324.701 155.418 316.737 144.602 317.613V362.945Z" fill="#F7D46B"/>
<path d="M359.737 362.945C346.806 365.254 331.926 355.389 331.146 340.045C330.366 324.701 348.921 316.737 359.737 317.613V362.945Z" fill="#F7D46B"/>
<path d="M228.238 296.32C228.798 296.32 229.185 296.72 229.398 297.52C229.238 300.213 229.065 302.133 228.878 303.28C228.692 304.4 228.532 305.387 228.398 306.24C228.292 307.093 228.212 307.68 228.158 308C228.132 308.32 228.025 308.973 227.838 309.96C227.652 310.947 227.452 311.933 227.238 312.92C227.052 313.88 226.932 314.453 226.878 314.64C226.852 314.827 226.612 316.027 226.158 318.24C225.705 320.427 225.358 321.773 225.118 322.28C224.905 322.76 224.518 323 223.958 323C223.425 323 222.998 322.84 222.678 322.52C221.452 320.84 220.292 318.76 219.198 316.28C218.932 315.64 218.625 314.947 218.278 314.2C217.958 313.453 217.718 312.893 217.558 312.52L217.198 311.68C216.638 312.64 215.865 314.267 214.878 316.56C213.892 318.853 213.025 320.693 212.278 322.08C211.798 322.693 211.265 323 210.678 323C209.452 323 208.518 319.733 207.878 313.2C207.878 313.173 207.852 313.027 207.798 312.76C207.772 312.493 207.718 312.027 207.638 311.36C207.585 310.693 207.505 309.96 207.398 309.16C207.318 308.333 206.985 304.96 206.398 299.04C206.398 298.507 206.598 298.027 206.998 297.6C207.398 297.147 207.838 296.92 208.318 296.92C208.905 296.92 209.305 297.307 209.518 298.08C210.238 306.747 210.958 313.147 211.678 317.28C211.892 316.907 212.438 315.68 213.318 313.6C214.198 311.493 214.998 309.827 215.718 308.6C216.438 307.347 217.132 306.72 217.798 306.72C218.252 306.72 218.638 306.96 218.958 307.44C220.638 312.213 222.078 315.573 223.278 317.52C223.305 317.227 223.465 316.427 223.758 315.12L224.278 312.56C224.278 312.4 224.305 312.173 224.358 311.88C224.438 311.587 224.492 311.307 224.518 311.04C224.572 310.747 224.625 310.48 224.678 310.24L225.118 307.72C225.758 303.773 226.158 300.533 226.318 298C226.425 297.547 226.665 297.16 227.038 296.84C227.438 296.493 227.838 296.32 228.238 296.32ZM238.487 304.36C240.407 304.36 241.98 305.28 243.207 307.12C244.46 308.96 245.087 311.173 245.087 313.76C245.087 316.32 244.447 318.507 243.167 320.32C241.913 322.133 240.233 323.04 238.127 323.04C236.047 323.04 234.367 322.12 233.087 320.28C231.807 318.413 231.167 316.347 231.167 314.08C231.167 311.173 231.753 308.853 232.927 307.12C234.18 305.28 236.033 304.36 238.487 304.36ZM238.007 307.64C236.887 307.64 235.967 308.227 235.247 309.4C234.527 310.573 234.167 311.813 234.167 313.12C234.167 315.147 234.567 316.693 235.367 317.76C236.167 318.827 237.073 319.36 238.087 319.36C239.9 319.36 241.06 318.573 241.567 317C241.78 316.253 241.887 315.32 241.887 314.2C241.887 309.827 240.593 307.64 238.007 307.64ZM254.62 304.36C256.54 304.36 258.113 305.28 259.34 307.12C260.593 308.96 261.22 311.173 261.22 313.76C261.22 316.32 260.58 318.507 259.3 320.32C258.046 322.133 256.366 323.04 254.26 323.04C252.18 323.04 250.5 322.12 249.22 320.28C247.94 318.413 247.3 316.347 247.3 314.08C247.3 311.173 247.886 308.853 249.06 307.12C250.313 305.28 252.166 304.36 254.62 304.36ZM254.14 307.64C253.02 307.64 252.1 308.227 251.38 309.4C250.66 310.573 250.3 311.813 250.3 313.12C250.3 315.147 250.7 316.693 251.5 317.76C252.3 318.827 253.206 319.36 254.22 319.36C256.033 319.36 257.193 318.573 257.7 317C257.913 316.253 258.02 315.32 258.02 314.2C258.02 309.827 256.726 307.64 254.14 307.64ZM273.232 304.28L273.192 296.56C273.192 295.12 273.646 294.4 274.552 294.4C275.486 294.4 276.006 294.8 276.112 295.6C276.166 295.947 276.232 298.04 276.312 301.88C276.392 305.72 276.512 309.32 276.672 312.68C276.859 316.04 276.952 319.173 276.952 322.08C276.952 322.88 276.352 323.28 275.152 323.28C274.352 323.28 273.952 322.72 273.952 321.6C272.806 322.507 271.446 322.96 269.872 322.96C267.872 322.96 266.246 322.213 264.992 320.72C263.766 319.227 263.152 317.387 263.152 315.2C263.152 313.013 263.592 310.973 264.472 309.08C265.379 307.16 266.779 305.787 268.672 304.96C269.846 304.453 270.979 304.2 272.072 304.2C272.472 304.2 272.859 304.227 273.232 304.28ZM273.432 309.76C273.246 309.173 273.019 308.733 272.752 308.44C272.486 308.12 272.192 307.933 271.872 307.88C271.579 307.8 271.219 307.76 270.792 307.76C270.366 307.76 269.846 307.92 269.232 308.24C268.619 308.56 268.099 309.08 267.672 309.8C266.819 311.24 266.392 312.76 266.392 314.36C266.392 315.933 266.699 317.227 267.312 318.24C267.952 319.227 268.846 319.72 269.992 319.72C271.166 319.72 272.086 319.147 272.752 318C273.419 316.853 273.752 315.387 273.752 313.6C273.752 311.6 273.646 310.32 273.432 309.76ZM285.018 304.48C286.432 304.48 287.778 304.893 289.058 305.72C290.338 306.547 290.978 307.573 290.978 308.8C290.978 310 290.458 311.173 289.418 312.32C288.378 313.44 286.992 314.12 285.258 314.36C284.512 314.467 283.392 314.52 281.898 314.52C282.192 316.787 282.765 318.28 283.618 319C283.885 319.293 284.245 319.44 284.698 319.44C286.352 319.44 287.738 318.92 288.858 317.88C289.978 316.813 290.778 316.28 291.258 316.28C291.472 316.28 291.792 316.48 292.218 316.88C292.645 317.28 292.858 317.653 292.858 318C292.858 318.693 292.018 319.693 290.338 321C289.592 321.613 288.685 322.133 287.618 322.56C286.578 322.96 285.605 323.16 284.698 323.16C282.378 323.16 280.672 321.667 279.578 318.68C278.885 316.84 278.538 314.813 278.538 312.6C278.538 310.387 279.058 308.48 280.098 306.88C281.138 305.28 282.778 304.48 285.018 304.48ZM285.218 307.24C284.205 307.24 283.338 307.813 282.618 308.96C282.352 309.36 282.098 310.267 281.858 311.68C285.592 311.68 287.458 310.76 287.458 308.92C287.458 307.8 286.712 307.24 285.218 307.24ZM296.716 321.76L296.276 305.52C296.276 305.013 296.449 304.6 296.796 304.28C297.142 303.96 297.489 303.8 297.836 303.8C298.689 303.8 299.182 304.16 299.316 304.88C299.422 305.6 299.476 306.347 299.476 307.12C300.916 305.227 302.716 304.28 304.876 304.28C308.182 304.28 309.836 308.053 309.836 315.6C309.836 316.293 309.836 317.347 309.836 318.76C309.836 320.147 309.756 321.16 309.596 321.8C309.409 322.6 308.836 323 307.876 323C307.236 323 306.916 322.573 306.916 321.72L306.956 319.48C306.956 316.387 306.849 314.28 306.636 313.16C306.449 312.013 306.262 311.107 306.076 310.44C305.622 309 304.889 308.28 303.876 308.28C302.542 308.28 301.609 308.76 301.076 309.72C300.489 310.76 300.142 311.987 300.036 313.4C299.849 315.88 299.756 318.507 299.756 321.28C299.756 321.813 299.556 322.24 299.156 322.56C298.756 322.88 298.276 323.04 297.716 323.04C297.049 323.04 296.716 322.613 296.716 321.76ZM226.686 351.04L242.886 350.8C243.659 351.04 244.046 351.427 244.046 351.96C244.046 353.293 243.499 353.96 242.406 353.96C240.406 353.96 238.286 354.013 236.046 354.12C235.912 356.413 235.846 358.147 235.846 359.32C235.846 360.467 235.846 361.2 235.846 361.52L236.006 375.56C236.006 376.387 235.792 376.867 235.366 377C235.046 377.107 234.646 377.16 234.166 377.16C233.392 377.16 232.966 376.72 232.886 375.84C232.726 373.787 232.646 369.96 232.646 364.36C232.646 358.733 232.726 355.347 232.886 354.2C232.326 354.227 231.499 354.24 230.406 354.24C229.312 354.24 227.952 354.227 226.326 354.2C225.899 354.2 225.566 354.067 225.326 353.8C225.086 353.533 224.966 353.213 224.966 352.84C224.966 352.44 225.126 352.053 225.446 351.68C225.792 351.307 226.206 351.093 226.686 351.04ZM252.237 358.36C254.157 358.36 255.73 359.28 256.957 361.12C258.21 362.96 258.837 365.173 258.837 367.76C258.837 370.32 258.197 372.507 256.917 374.32C255.663 376.133 253.983 377.04 251.877 377.04C249.797 377.04 248.117 376.12 246.837 374.28C245.557 372.413 244.917 370.347 244.917 368.08C244.917 365.173 245.503 362.853 246.677 361.12C247.93 359.28 249.783 358.36 252.237 358.36ZM251.757 361.64C250.637 361.64 249.717 362.227 248.997 363.4C248.277 364.573 247.917 365.813 247.917 367.12C247.917 369.147 248.317 370.693 249.117 371.76C249.917 372.827 250.823 373.36 251.837 373.36C253.65 373.36 254.81 372.573 255.317 371C255.53 370.253 255.637 369.32 255.637 368.2C255.637 363.827 254.343 361.64 251.757 361.64ZM274.05 358.52C274.396 358.52 274.73 358.64 275.05 358.88C275.396 359.12 275.57 359.387 275.57 359.68C275.57 360.453 274.436 364.64 272.17 372.24C269.903 379.84 268.223 385.173 267.13 388.24C266.89 388.96 266.516 389.32 266.01 389.32C265.503 389.32 265.103 389.133 264.81 388.76C264.516 388.413 264.37 387.893 264.37 387.2C264.37 386.507 264.81 384.84 265.69 382.2C266.596 379.587 267.143 377.92 267.33 377.2C266.663 376.08 264.41 370.48 260.57 360.4C260.516 360.267 260.49 360.093 260.49 359.88C260.49 359.667 260.65 359.387 260.97 359.04C261.29 358.693 261.73 358.52 262.29 358.52C262.85 358.52 263.303 358.8 263.65 359.36C264.023 360.32 264.636 362 265.49 364.4C266.343 366.773 266.996 368.493 267.45 369.56C267.93 370.627 268.383 371.733 268.81 372.88C269.183 371.627 269.823 369.2 270.73 365.6C271.636 361.973 272.156 359.907 272.29 359.4C272.396 358.813 272.983 358.52 274.05 358.52ZM278.884 363.4C278.884 361.827 279.444 360.573 280.564 359.64C281.684 358.707 282.977 358.24 284.444 358.24C285.937 358.24 287.364 358.507 288.724 359.04C290.084 359.573 290.764 360.28 290.764 361.16C290.764 361.613 290.59 361.973 290.244 362.24C289.897 362.507 289.59 362.64 289.324 362.64C289.084 362.64 288.884 362.64 288.724 362.64C288.59 362.613 288.057 362.36 287.124 361.88C286.217 361.4 285.377 361.16 284.604 361.16C283.83 361.16 283.164 361.36 282.604 361.76C282.07 362.133 281.804 362.693 281.804 363.44C281.804 364.187 282.11 364.773 282.724 365.2C283.364 365.627 284.47 366 286.044 366.32C287.617 366.613 288.817 367.04 289.644 367.6C290.497 368.16 290.924 369.2 290.924 370.72C290.924 372.933 290.337 374.507 289.164 375.44C288.017 376.347 286.617 376.8 284.964 376.8C283.31 376.8 281.897 376.573 280.724 376.12C279.577 375.667 279.004 374.987 279.004 374.08C279.004 373.04 279.524 372.52 280.564 372.52C280.83 372.52 281.417 372.707 282.324 373.08C283.23 373.453 284.124 373.64 285.004 373.64C285.91 373.64 286.59 373.36 287.044 372.8C287.524 372.213 287.764 371.547 287.764 370.8C287.764 370.053 287.457 369.52 286.844 369.2C286.23 368.853 285.297 368.573 284.044 368.36C282.79 368.147 281.87 367.92 281.284 367.68C279.684 367.04 278.884 365.613 278.884 363.4Z" fill="white"/>
</svg>
