<svg width="501" height="501" viewBox="0 0 501 501" fill="none" xmlns="http://www.w3.org/2000/svg">
<rect width="501" height="501" rx="20.4143" fill="#F4EDE8"/>
<path d="M337.041 224.938C337.041 224.938 388.88 231.746 402 264.309C410.067 284.316 406.893 326.916 363.617 326.916C320.348 326.916 337.041 224.938 337.041 224.938Z" fill="#86B877"/>
<path d="M183.192 224.938C183.192 224.938 131.353 231.746 118.227 264.309C110.166 284.316 113.34 326.916 156.61 326.916C199.885 326.916 183.192 224.938 183.192 224.938Z" fill="#86B877"/>
<path d="M182.437 375.551C182.437 375.551 133.195 393.293 120.388 397.91C107.582 402.527 94.1862 407.051 104.218 434.899C114.728 464.066 131.439 457.927 147.198 452.248C162.964 446.569 216.614 416.278 216.614 416.278L182.437 375.551Z" fill="#86B877"/>
<path d="M338.932 375.551C338.932 375.551 388.174 393.293 400.98 397.91C413.787 402.527 427.183 407.051 417.145 434.899C406.635 464.066 389.924 457.927 374.164 452.248C358.399 446.569 304.749 416.278 304.749 416.278L338.932 375.551Z" fill="#86B877"/>
<path d="M273.347 94.6273H295.46C304.485 94.6273 309.955 104.585 305.117 112.198L291.672 133.372L273.347 94.6273Z" fill="#005C04"/>
<path d="M294.815 143.213L322.387 145.202C330.19 145.767 335.138 153.821 332.111 161.035L316.542 198.183L294.815 143.213Z" fill="#005C04"/>
<path d="M366.804 339.139C366.276 414.007 324.4 432.958 263.665 432.958C202.93 432.958 164.714 416.622 157.899 347.519C151.103 278.404 173.094 254.848 177.274 221.85C177.944 216.509 178.459 211.745 178.846 207.502C180.755 186.341 179.472 178.231 179.386 177.647C179.374 177.623 179.374 177.623 179.374 177.623C149.531 182.847 108.687 186.261 84.6032 182.59C60.513 178.918 65.2279 155.89 65.2279 155.89C132.243 148.038 147.966 123.954 147.966 123.954C85.6592 139.13 27.5332 131.278 24.439 118.195C21.3265 105.107 22.8245 78.395 33.2918 78.395C43.7714 78.395 48.4802 87.303 48.4802 87.303C48.4802 87.303 49.5238 75.4114 61.5751 75.4114C73.6079 75.4114 76.2355 87.303 76.2355 87.303L147.966 82.0601C147.966 63.2742 158.63 48.0429 171.78 48.0429C180.884 48.0429 188.81 55.3363 192.807 66.0737C209.112 62.0894 221.618 63.4891 229.089 65.2756C233.172 54.9802 240.907 48.0429 249.791 48.0429C260.651 48.0429 269.835 58.4488 272.659 72.6242C272.677 72.6426 272.677 72.6549 272.677 72.6672C272.69 72.6856 272.69 72.6856 272.69 72.7102L272.702 72.7286C275.317 79.1195 293.465 116.041 313.153 161.9C317.678 172.454 322.288 183.474 326.788 194.708C347.913 247.205 367.049 304.287 366.804 339.139Z" fill="#86B877"/>
<path d="M35.9069 92.27C35.9069 87.7883 34.2677 84.154 32.2418 84.154C30.222 84.154 28.5767 87.7883 28.5767 92.27C28.5767 96.7516 30.222 100.386 32.2418 100.386C34.2677 100.386 35.9069 96.7516 35.9069 92.27Z" fill="black"/>
<path d="M62.318 92.27C62.318 87.7883 60.6788 84.154 58.6529 84.154C56.6331 84.154 54.9878 87.7883 54.9878 92.27C54.9878 96.7516 56.6331 100.386 58.6529 100.386C60.6788 100.386 62.318 96.7516 62.318 92.27Z" fill="black"/>
<path d="M180.939 71.0651C180.939 64.8522 175.899 59.8119 169.68 59.8119C163.461 59.8119 158.421 64.8522 158.421 71.0651C158.421 77.2841 163.461 82.3243 169.68 82.3243C175.899 82.3243 180.939 77.2841 180.939 71.0651Z" fill="black"/>
<path d="M261.044 71.0651C261.044 64.8522 256.004 59.8119 249.785 59.8119C243.572 59.8119 238.532 64.8522 238.532 71.0651C238.532 77.2841 243.572 82.3243 249.785 82.3243C256.004 82.3243 261.044 77.2841 261.044 71.0651Z" fill="black"/>
<path d="M332.283 326.597C332.283 261.804 293.532 187.747 253.314 187.747C213.096 187.747 186.643 252.577 186.643 317.37C186.643 382.157 218.106 411.017 258.324 411.017C298.542 411.017 332.283 391.384 332.283 326.597Z" fill="#FFDEA6"/>
<path d="M229.906 247.052C221.366 247.052 216.08 246.763 215.933 246.757C215.171 246.714 214.588 246.063 214.631 245.302C214.674 244.541 215.343 243.97 216.086 244.006C216.534 244.031 261.412 246.456 302.612 236.873C303.349 236.701 304.092 237.161 304.263 237.904C304.435 238.647 303.975 239.384 303.232 239.556C275.716 245.959 246.598 247.052 229.906 247.052Z" fill="#DEC190"/>
<path d="M249.287 294.151C222.852 294.151 204.072 291.266 203.753 291.217C202.997 291.094 202.488 290.388 202.605 289.639C202.727 288.89 203.427 288.381 204.182 288.491C204.735 288.577 260.067 297.074 314.657 284.617C315.394 284.445 316.137 284.906 316.302 285.649C316.474 286.391 316.008 287.128 315.271 287.3C292.004 292.61 268.601 294.151 249.287 294.151Z" fill="#DEC190"/>
<path d="M255.972 343.836C230.065 343.836 208.842 340.956 208.492 340.907C207.737 340.803 207.209 340.109 207.313 339.354C207.417 338.605 208.111 338.071 208.866 338.181C209.462 338.261 268.76 346.291 309.893 335.29C310.623 335.093 311.385 335.529 311.581 336.266C311.778 337.003 311.342 337.758 310.605 337.954C293.667 342.485 273.721 343.836 255.972 343.836Z" fill="#DEC190"/>
<path d="M258.613 386.141C235.444 386.141 220.298 381.856 220.077 381.788C219.347 381.574 218.923 380.812 219.138 380.082C219.353 379.351 220.114 378.934 220.845 379.142C221.176 379.241 254.561 388.67 298.174 379.124C298.917 378.964 299.653 379.431 299.819 380.174C299.979 380.917 299.506 381.647 298.763 381.813C283.937 385.061 270.259 386.141 258.613 386.141Z" fill="#DEC190"/>
<path d="M381.593 227.099H139.776V235.663L156.554 238.825L139.776 243.423V248.003L148.309 250.864L139.776 255.75V273.959V274.628V289.946L149.175 292.653L139.776 297.522V304.213L147.149 310.138L139.776 313.109V321.489V333.35L150.624 337.512L139.776 340.784V369.012H381.593V356.789L367.08 353.051L381.593 345.248L372.286 342.755L381.593 338.169V321.489V313.299L375.183 311.249L381.593 308.173V289.841L367.945 286.821L381.593 281.406V274.628V273.959V242.87L367.08 239.236L381.593 235.608V227.099Z" fill="#A86531"/>
<path d="M362.629 355.021C335.328 347.077 316.438 344.063 290.076 344.063C285.269 344.063 280.217 344.167 274.82 344.351C246.991 345.321 237.095 350.196 219.132 359.036C214.275 361.431 208.769 364.138 202.15 367.146C200.726 367.791 199.357 368.411 198.013 369.012H199.756C200.64 368.613 201.53 368.208 202.445 367.797C209.075 364.783 214.588 362.069 219.451 359.675C237.322 350.877 247.169 346.033 274.845 345.07C310.2 343.836 329.84 346.224 362.427 355.709C369.302 357.71 375.73 359.288 381.587 360.528V359.798C375.785 358.564 369.431 357.004 362.629 355.021Z" fill="#8F562A"/>
<path d="M198.737 352.4C202.046 351.246 205.564 350.024 209.382 348.723C212.593 347.624 215.705 346.543 218.744 345.493C247.967 335.339 269.086 328.003 303.465 333.178C317.585 335.302 331.773 338.133 345.494 340.864C356.704 343.099 367.62 345.266 378.265 347.04L379.29 346.488C368.369 344.689 357.159 342.461 345.635 340.165C331.902 337.433 317.708 334.602 303.57 332.472C295.914 331.318 288.86 330.802 282.211 330.802C258.852 330.802 240.471 337.187 218.505 344.818C215.472 345.868 212.36 346.948 209.149 348.047C205.33 349.349 201.813 350.571 198.503 351.725C178.477 358.693 166.058 363.002 139.776 366.612V367.337C166.187 363.715 178.637 359.386 198.737 352.4Z" fill="#8F562A"/>
<path d="M273.469 367.637C272.254 368.128 270.964 368.583 269.626 369.012H271.854C272.493 368.779 273.125 368.546 273.739 368.294C289.763 361.768 303.975 359.644 323.252 369.012H324.848C314.982 364.015 306.43 361.952 298.333 361.959C289.885 361.959 281.929 364.187 273.469 367.637Z" fill="#8F562A"/>
<path d="M297.762 351.559C289.137 351.559 279.787 352.762 268.208 355.015C248.28 358.895 233.951 362.296 219.475 369.012H221.182C235.13 362.744 249.127 359.46 268.343 355.715C300.967 349.361 315.762 352.013 341.08 362.677C346.022 364.758 350.51 366.882 354.74 369.012H356.336C351.726 366.661 346.814 364.316 341.357 362.02C324.284 354.831 312.011 351.559 297.762 351.559Z" fill="#8F562A"/>
<path d="M224.055 333.503C248.225 325.4 271.057 317.75 317.414 322.115C346.968 324.902 366.816 327.469 381.587 329.445V328.727C366.822 326.75 346.98 324.184 317.481 321.409C308.125 320.525 299.727 320.132 292.077 320.132C261.706 320.132 243.197 326.333 223.828 332.828C218.493 334.615 212.974 336.463 207.111 338.224C180.755 346.132 167.439 348.213 139.776 350.092V350.804C167.531 348.925 180.872 346.838 207.319 338.906C213.188 337.144 218.714 335.296 224.055 333.503Z" fill="#8F562A"/>
<path d="M272.726 306.651C254.702 309.229 244.775 310.647 219.905 311.568C209.247 311.967 201.383 311.98 193.782 311.992C180.816 312.016 167.482 312.041 139.776 313.981V314.693C167.494 312.753 180.816 312.729 193.782 312.71C201.389 312.692 209.259 312.679 219.929 312.287C244.836 311.36 254.781 309.941 272.825 307.357C279.007 306.473 286.012 305.466 294.938 304.287C318.451 301.187 352.475 299.971 381.587 299.947V299.235C352.444 299.259 318.39 300.475 294.846 303.581C285.913 304.76 278.909 305.767 272.726 306.651Z" fill="#8F562A"/>
<path d="M324.824 311.568C277.595 311.568 253.425 312.501 220.236 321.415C198.049 327.377 175.893 331.177 139.776 331.189V331.901C175.96 331.895 198.178 328.083 220.42 322.109C253.529 313.213 277.656 312.286 324.824 312.286C347.79 312.286 366.14 313.195 381.587 314.361V313.649C366.14 312.483 347.79 311.568 324.824 311.568Z" fill="#8F562A"/>
<path d="M225.97 269.484C226.885 267.851 226.817 266.218 225.774 264.616C221.409 257.967 200.284 253.399 183.07 253.399C180.209 253.399 177.458 253.528 174.91 253.792C164.179 254.897 151.643 254.909 141.722 254.639L140.537 255.315C150.648 255.622 163.786 255.658 174.984 254.504C192.69 252.675 220.206 257.439 225.172 265.008C226.075 266.384 226.136 267.734 225.344 269.134C221.034 276.796 187.103 274.862 151.176 272.818C147.413 272.603 143.588 272.388 139.776 272.179V272.891C143.576 273.1 147.382 273.315 151.14 273.53C187.287 275.586 221.439 277.532 225.97 269.484Z" fill="#8F562A"/>
<path d="M361.186 282.898C346.397 282.898 333.191 283.979 322.706 286.189C297.909 291.401 271.953 293.875 239.09 297L236.689 297.227C210.874 299.689 182.149 302.421 139.776 302.188V302.9C182.185 303.139 210.929 300.401 236.751 297.939L239.157 297.712C272.045 294.581 298.02 292.107 322.853 286.882C336.519 284.009 354.832 283.052 375.263 283.917L376.872 283.285C371.488 283.033 366.239 282.898 361.186 282.898Z" fill="#8F562A"/>
<path d="M221.464 284.095C230.759 281.136 240.33 280.633 248.022 280.234C257.36 279.749 264.107 279.393 265.341 275.089C265.685 273.88 265.427 272.572 264.573 271.197C260.116 263.996 239.587 255.37 216.811 251.134C205.06 248.948 188.362 247.923 172.215 246.929C160.109 246.186 148.426 245.461 139.776 244.295V245.013C148.469 246.18 160.109 246.898 172.172 247.641C188.3 248.629 204.974 249.654 216.676 251.834C238.906 255.972 259.681 264.64 263.966 271.571C264.709 272.769 264.942 273.886 264.653 274.893C263.561 278.705 257.028 279.049 247.985 279.522C240.256 279.927 230.63 280.43 221.243 283.414C204.532 288.73 166.825 285.2 139.776 282.419V283.138C166.88 285.925 204.624 289.449 221.464 284.095Z" fill="#8F562A"/>
<path d="M367.215 239.205C364.563 239.23 361.899 239.261 359.246 239.285C353.985 239.334 348.755 239.39 343.641 239.445C343.223 239.451 342.806 239.457 342.388 239.457C322.706 239.457 307.904 233.95 291.881 227.099H290.064C306.763 234.282 321.932 240.169 342.388 240.169C342.806 240.169 343.229 240.163 343.653 240.163C348.761 240.102 353.998 240.046 359.253 239.997C362.727 239.96 366.215 239.93 369.689 239.893L367.08 239.236L367.215 239.205Z" fill="#8F562A"/>
<path d="M209.745 293.801C214.607 292.788 218.505 291.843 221.943 291.008C231.588 288.675 237.967 287.128 253.327 286.895C274.096 286.569 291.39 285.458 292.691 275.034C294.011 264.425 271.057 255.481 255.304 252.055C247.599 250.379 242.792 246.818 237.696 243.043C231.735 238.622 225.571 234.049 214.331 232.483C205.791 231.292 195.422 231.022 184.451 230.733C169.429 230.341 153.915 229.923 141.679 227.099H140.188C140.181 227.111 140.175 227.111 140.175 227.117C140.132 227.308 140.243 227.504 140.439 227.547C152.902 230.623 168.931 231.04 184.433 231.446C195.385 231.734 205.73 232.004 214.239 233.189C225.295 234.73 231.385 239.249 237.273 243.613C242.424 247.438 247.292 251.048 255.15 252.755C270.645 256.119 293.244 264.812 291.979 274.948C290.751 284.789 272.991 285.876 253.315 286.177C237.874 286.416 231.471 287.969 221.771 290.314C218.34 291.149 214.447 292.089 209.603 293.108C196.668 295.815 172.805 295.711 148.095 293.212L146.935 293.814C172.105 296.423 196.564 296.564 209.745 293.801Z" fill="#8F562A"/>
<path d="M367.945 272.197C354.439 271.424 342.775 270.749 334.259 270.589C312.146 270.184 304.184 265.371 285.299 250.587C269.387 238.137 256.353 233.723 239.845 228.136C238.85 227.799 237.819 227.449 236.8 227.099H234.583C236.296 227.688 237.978 228.259 239.618 228.812C256.697 234.595 269.037 238.769 284.857 251.146C303.508 265.745 312.017 270.89 334.247 271.307C342.744 271.461 354.402 272.136 367.902 272.91C372.365 273.167 376.951 273.431 381.587 273.689V272.971C376.964 272.719 372.39 272.455 367.945 272.197Z" fill="#8F562A"/>
<path d="M291.107 240.434C282.322 236.357 272.082 231.612 261.381 227.099H259.527C270.787 231.802 281.598 236.811 290.807 241.078C296.645 243.792 301.691 246.131 305.835 247.917C318.089 253.209 351.063 257.298 381.587 258.299V257.593C351.161 256.598 318.316 252.534 306.118 247.26C301.986 245.48 296.946 243.141 291.107 240.434Z" fill="#8F562A"/>
<path d="M381.593 273.604H139.776V270.749H381.593V273.604Z" fill="#7D4B25"/>
<path d="M381.593 321.207H139.776V318.346H381.593V321.207Z" fill="#7D4B25"/>
<path d="M136.215 266.863C136.215 266.863 172.584 279.436 172.664 298.915C172.768 323.257 155.652 329.292 136.215 322.803V266.863Z" fill="#86B877"/>
<path d="M384.018 266.863C384.018 266.863 347.649 279.436 347.563 298.915C347.459 323.257 364.575 329.292 384.018 322.803V266.863Z" fill="#86B877"/>
<path d="M221.186 283.92L216.026 283.8C215.732 282.68 215.559 277.64 215.506 268.68V265.84C215.506 263.573 215.719 261.853 216.146 260.68C216.572 259.48 217.466 258.52 218.826 257.8C219.519 257.453 220.479 257.28 221.706 257.28C222.959 257.28 223.919 257.36 224.586 257.52C226.372 257.893 227.586 258.587 228.226 259.6C228.892 260.613 229.226 261.973 229.226 263.68C229.226 266.053 228.599 267.8 227.346 268.92C227.986 269 228.626 269.32 229.266 269.88C229.906 270.44 230.426 271.013 230.826 271.6C231.519 272.667 231.866 274.12 231.866 275.96C231.866 278.84 230.986 280.893 229.226 282.12C227.492 283.32 224.812 283.92 221.186 283.92ZM218.706 264.44L218.786 269C218.839 269 219.292 268.947 220.146 268.84C220.999 268.707 221.719 268.573 222.306 268.44C224.999 267.8 226.346 266.267 226.346 263.84C226.346 262.64 225.986 261.76 225.266 261.2C224.572 260.64 223.652 260.36 222.506 260.36C221.066 260.36 220.092 260.613 219.586 261.12C219.372 261.333 219.199 261.52 219.066 261.68C218.932 261.813 218.839 262.04 218.786 262.36C218.732 262.68 218.692 262.907 218.666 263.04C218.666 263.173 218.666 263.427 218.666 263.8C218.692 264.173 218.706 264.387 218.706 264.44ZM227.706 272.96C227.439 272.667 227.026 272.4 226.466 272.16C225.906 271.92 225.092 271.8 224.026 271.8C222.986 271.8 221.199 271.973 218.666 272.32C218.666 276.48 218.732 279.293 218.866 280.76C221.986 280.76 224.172 280.56 225.426 280.16C226.679 279.733 227.519 279.227 227.946 278.64C228.399 278.027 228.626 277.387 228.626 276.72C228.626 276.027 228.612 275.547 228.586 275.28C228.586 274.987 228.506 274.6 228.346 274.12C228.212 273.613 227.999 273.227 227.706 272.96ZM242.139 265.36C244.059 265.36 245.632 266.28 246.859 268.12C248.112 269.96 248.739 272.173 248.739 274.76C248.739 277.32 248.099 279.507 246.819 281.32C245.566 283.133 243.886 284.04 241.779 284.04C239.699 284.04 238.019 283.12 236.739 281.28C235.459 279.413 234.819 277.347 234.819 275.08C234.819 272.173 235.406 269.853 236.579 268.12C237.832 266.28 239.686 265.36 242.139 265.36ZM241.659 268.64C240.539 268.64 239.619 269.227 238.899 270.4C238.179 271.573 237.819 272.813 237.819 274.12C237.819 276.147 238.219 277.693 239.019 278.76C239.819 279.827 240.726 280.36 241.739 280.36C243.552 280.36 244.712 279.573 245.219 278C245.432 277.253 245.539 276.32 245.539 275.2C245.539 270.827 244.246 268.64 241.659 268.64ZM252.192 265.32L254.192 265.36C254.645 265.36 254.899 265.347 254.952 265.32V257.12C254.979 256.667 255.205 256.28 255.632 255.96C256.059 255.64 256.459 255.48 256.832 255.48C257.205 255.48 257.499 255.6 257.712 255.84C257.952 256.08 258.059 256.453 258.032 256.96C258.005 257.467 257.992 260.24 257.992 265.28L262.672 265.12C263.472 265.12 263.872 265.587 263.872 266.52C263.872 267.213 263.659 267.733 263.232 268.08C262.832 268.427 262.392 268.613 261.912 268.64C261.459 268.667 261.005 268.68 260.552 268.68L258.112 268.64C258.112 269.733 258.219 271.893 258.432 275.12C258.672 278.347 258.859 280.44 258.992 281.4C259.125 282.333 259.152 282.947 259.072 283.24C258.992 283.507 258.845 283.693 258.632 283.8C258.285 283.96 257.819 284.04 257.232 284.04C256.645 284.04 256.299 283.72 256.192 283.08C255.659 279.587 255.299 274.787 255.112 268.68C254.872 268.707 253.952 268.72 252.352 268.72C250.752 268.72 249.952 268.253 249.952 267.32C249.952 265.987 250.699 265.32 252.192 265.32ZM265.942 265.32L267.942 265.36C268.395 265.36 268.649 265.347 268.702 265.32V257.12C268.729 256.667 268.955 256.28 269.382 255.96C269.809 255.64 270.209 255.48 270.582 255.48C270.955 255.48 271.249 255.6 271.462 255.84C271.702 256.08 271.809 256.453 271.782 256.96C271.755 257.467 271.742 260.24 271.742 265.28L276.422 265.12C277.222 265.12 277.622 265.587 277.622 266.52C277.622 267.213 277.409 267.733 276.982 268.08C276.582 268.427 276.142 268.613 275.662 268.64C275.209 268.667 274.755 268.68 274.302 268.68L271.862 268.64C271.862 269.733 271.969 271.893 272.182 275.12C272.422 278.347 272.609 280.44 272.742 281.4C272.875 282.333 272.902 282.947 272.822 283.24C272.742 283.507 272.595 283.693 272.382 283.8C272.035 283.96 271.569 284.04 270.982 284.04C270.395 284.04 270.049 283.72 269.942 283.08C269.409 279.587 269.049 274.787 268.862 268.68C268.622 268.707 267.702 268.72 266.102 268.72C264.502 268.72 263.702 268.253 263.702 267.32C263.702 265.987 264.449 265.32 265.942 265.32ZM278.572 258.12C278.652 257.107 278.812 256.453 279.052 256.16C279.319 255.84 279.732 255.68 280.292 255.68C281.439 255.68 282.012 256.147 282.012 257.08C282.012 257.8 281.945 259.68 281.812 262.72C281.705 265.76 281.652 268.48 281.652 270.88C281.652 273.28 281.745 275.213 281.932 276.68C282.252 279.24 282.705 280.52 283.292 280.52C283.879 280.52 284.319 280.107 284.612 279.28C284.745 278.96 284.959 278.68 285.252 278.44C285.545 278.173 285.919 278.04 286.372 278.04C287.305 278.04 287.772 278.827 287.772 280.4C287.772 281.253 287.305 282.107 286.372 282.96C285.465 283.787 284.559 284.2 283.652 284.2C282.745 284.2 282.012 284.053 281.452 283.76C280.919 283.44 280.479 282.973 280.132 282.36C279.812 281.747 279.545 281.16 279.332 280.6C279.145 280.013 279.012 279.307 278.932 278.48C278.772 277.147 278.652 275.013 278.572 272.08C278.519 269.12 278.492 266.307 278.492 263.64C278.492 260.947 278.519 259.107 278.572 258.12ZM295.077 265.48C296.49 265.48 297.837 265.893 299.117 266.72C300.397 267.547 301.037 268.573 301.037 269.8C301.037 271 300.517 272.173 299.477 273.32C298.437 274.44 297.05 275.12 295.317 275.36C294.57 275.467 293.45 275.52 291.957 275.52C292.25 277.787 292.824 279.28 293.677 280C293.944 280.293 294.304 280.44 294.757 280.44C296.41 280.44 297.797 279.92 298.917 278.88C300.037 277.813 300.837 277.28 301.317 277.28C301.53 277.28 301.85 277.48 302.277 277.88C302.704 278.28 302.917 278.653 302.917 279C302.917 279.693 302.077 280.693 300.397 282C299.65 282.613 298.744 283.133 297.677 283.56C296.637 283.96 295.664 284.16 294.757 284.16C292.437 284.16 290.73 282.667 289.637 279.68C288.944 277.84 288.597 275.813 288.597 273.6C288.597 271.387 289.117 269.48 290.157 267.88C291.197 266.28 292.837 265.48 295.077 265.48ZM295.277 268.24C294.264 268.24 293.397 268.813 292.677 269.96C292.41 270.36 292.157 271.267 291.917 272.68C295.65 272.68 297.517 271.76 297.517 269.92C297.517 268.8 296.77 268.24 295.277 268.24ZM207.467 311.84C209.254 311.84 211.227 312.187 213.387 312.88C213.867 313.253 214.107 313.667 214.107 314.12C214.107 314.547 213.881 314.933 213.427 315.28C213.001 315.6 212.507 315.76 211.947 315.76C210.507 315.387 209.161 315.2 207.907 315.2C205.027 315.2 202.841 316.053 201.347 317.76C199.854 319.467 199.107 322 199.107 325.36C199.107 328.72 199.987 331.347 201.747 333.24C202.654 334.227 203.734 334.72 204.987 334.72C206.241 334.72 208.241 334.053 210.987 332.72C211.947 332.267 212.587 332.04 212.907 332.04C213.601 332.04 213.947 332.4 213.947 333.12C213.947 333.84 213.614 334.44 212.947 334.92C210.654 336.12 208.867 336.933 207.587 337.36C206.307 337.76 205.201 337.96 204.267 337.96C202.347 337.96 200.707 337.253 199.347 335.84C196.921 333.227 195.707 329.667 195.707 325.16C195.707 320.627 196.854 317.28 199.147 315.12C201.467 312.933 204.241 311.84 207.467 311.84ZM217.341 312.12C217.421 311.107 217.581 310.453 217.821 310.16C218.088 309.84 218.501 309.68 219.061 309.68C220.208 309.68 220.781 310.147 220.781 311.08C220.781 311.8 220.715 313.68 220.581 316.72C220.475 319.76 220.421 322.48 220.421 324.88C220.421 327.28 220.515 329.213 220.701 330.68C221.021 333.24 221.475 334.52 222.061 334.52C222.648 334.52 223.088 334.107 223.381 333.28C223.515 332.96 223.728 332.68 224.021 332.44C224.315 332.173 224.688 332.04 225.141 332.04C226.075 332.04 226.541 332.827 226.541 334.4C226.541 335.253 226.075 336.107 225.141 336.96C224.235 337.787 223.328 338.2 222.421 338.2C221.515 338.2 220.781 338.053 220.221 337.76C219.688 337.44 219.248 336.973 218.901 336.36C218.581 335.747 218.315 335.16 218.101 334.6C217.915 334.013 217.781 333.307 217.701 332.48C217.541 331.147 217.421 329.013 217.341 326.08C217.288 323.12 217.261 320.307 217.261 317.64C217.261 314.947 217.288 313.107 217.341 312.12ZM233.846 319.48C235.26 319.48 236.606 319.893 237.886 320.72C239.166 321.547 239.806 322.573 239.806 323.8C239.806 325 239.286 326.173 238.246 327.32C237.206 328.44 235.82 329.12 234.086 329.36C233.34 329.467 232.22 329.52 230.726 329.52C231.02 331.787 231.593 333.28 232.446 334C232.713 334.293 233.073 334.44 233.526 334.44C235.18 334.44 236.566 333.92 237.686 332.88C238.806 331.813 239.606 331.28 240.086 331.28C240.3 331.28 240.62 331.48 241.046 331.88C241.473 332.28 241.686 332.653 241.686 333C241.686 333.693 240.846 334.693 239.166 336C238.42 336.613 237.513 337.133 236.446 337.56C235.406 337.96 234.433 338.16 233.526 338.16C231.206 338.16 229.5 336.667 228.406 333.68C227.713 331.84 227.366 329.813 227.366 327.6C227.366 325.387 227.886 323.48 228.926 321.88C229.966 320.28 231.606 319.48 233.846 319.48ZM234.046 322.24C233.033 322.24 232.166 322.813 231.446 323.96C231.18 324.36 230.926 325.267 230.686 326.68C234.42 326.68 236.286 325.76 236.286 323.92C236.286 322.8 235.54 322.24 234.046 322.24ZM255.184 319.32C256.357 319.32 256.944 320.32 256.944 322.32C256.944 322.533 256.944 322.76 256.944 323L256.864 325.8C256.837 326.68 256.824 327.547 256.824 328.4L257.424 337.44C257.424 338.107 256.744 338.44 255.384 338.44C255.304 338.44 255.104 338.44 254.784 338.44C254.491 338.44 254.277 338.32 254.144 338.08C254.037 337.84 254.024 337.547 254.104 337.2C254.211 336.853 254.184 336.467 254.024 336.04C252.797 337.347 251.171 338 249.144 338C245.384 338 243.504 335.093 243.504 329.28C243.504 326.053 244.104 323.613 245.304 321.96C246.531 320.307 248.277 319.48 250.544 319.48C251.611 319.48 252.677 319.667 253.744 320.04C254.091 319.56 254.571 319.32 255.184 319.32ZM251.024 322.96C249.504 322.96 248.371 323.4 247.624 324.28C246.877 325.16 246.504 326.773 246.504 329.12C246.504 333.067 247.571 335.04 249.704 335.04C250.264 335.04 250.877 334.787 251.544 334.28C252.237 333.773 252.717 333.2 252.984 332.56C253.491 331.12 253.744 329.547 253.744 327.84C253.744 326.133 253.531 324.893 253.104 324.12C252.704 323.347 252.011 322.96 251.024 322.96ZM261.208 336.76L260.768 320.52C260.768 320.013 260.941 319.6 261.288 319.28C261.635 318.96 261.981 318.8 262.328 318.8C263.181 318.8 263.675 319.16 263.808 319.88C263.915 320.6 263.968 321.347 263.968 322.12C265.408 320.227 267.208 319.28 269.368 319.28C272.675 319.28 274.328 323.053 274.328 330.6C274.328 331.293 274.328 332.347 274.328 333.76C274.328 335.147 274.248 336.16 274.088 336.8C273.901 337.6 273.328 338 272.368 338C271.728 338 271.408 337.573 271.408 336.72L271.448 334.48C271.448 331.387 271.341 329.28 271.128 328.16C270.941 327.013 270.755 326.107 270.568 325.44C270.115 324 269.381 323.28 268.368 323.28C267.035 323.28 266.101 323.76 265.568 324.72C264.981 325.76 264.635 326.987 264.528 328.4C264.341 330.88 264.248 333.507 264.248 336.28C264.248 336.813 264.048 337.24 263.648 337.56C263.248 337.88 262.768 338.04 262.208 338.04C261.541 338.04 261.208 337.613 261.208 336.76ZM278.454 324.4C278.454 322.827 279.014 321.573 280.134 320.64C281.254 319.707 282.547 319.24 284.014 319.24C285.507 319.24 286.934 319.507 288.294 320.04C289.654 320.573 290.334 321.28 290.334 322.16C290.334 322.613 290.161 322.973 289.814 323.24C289.467 323.507 289.161 323.64 288.894 323.64C288.654 323.64 288.454 323.64 288.294 323.64C288.161 323.613 287.627 323.36 286.694 322.88C285.787 322.4 284.947 322.16 284.174 322.16C283.401 322.16 282.734 322.36 282.174 322.76C281.641 323.133 281.374 323.693 281.374 324.44C281.374 325.187 281.681 325.773 282.294 326.2C282.934 326.627 284.041 327 285.614 327.32C287.187 327.613 288.387 328.04 289.214 328.6C290.067 329.16 290.494 330.2 290.494 331.72C290.494 333.933 289.907 335.507 288.734 336.44C287.587 337.347 286.187 337.8 284.534 337.8C282.881 337.8 281.467 337.573 280.294 337.12C279.147 336.667 278.574 335.987 278.574 335.08C278.574 334.04 279.094 333.52 280.134 333.52C280.401 333.52 280.987 333.707 281.894 334.08C282.801 334.453 283.694 334.64 284.574 334.64C285.481 334.64 286.161 334.36 286.614 333.8C287.094 333.213 287.334 332.547 287.334 331.8C287.334 331.053 287.027 330.52 286.414 330.2C285.801 329.853 284.867 329.573 283.614 329.36C282.361 329.147 281.441 328.92 280.854 328.68C279.254 328.04 278.454 326.613 278.454 324.4ZM298.925 319.48C300.338 319.48 301.685 319.893 302.965 320.72C304.245 321.547 304.885 322.573 304.885 323.8C304.885 325 304.365 326.173 303.325 327.32C302.285 328.44 300.898 329.12 299.165 329.36C298.418 329.467 297.298 329.52 295.805 329.52C296.098 331.787 296.671 333.28 297.525 334C297.791 334.293 298.151 334.44 298.605 334.44C300.258 334.44 301.645 333.92 302.765 332.88C303.885 331.813 304.685 331.28 305.165 331.28C305.378 331.28 305.698 331.48 306.125 331.88C306.551 332.28 306.765 332.653 306.765 333C306.765 333.693 305.925 334.693 304.245 336C303.498 336.613 302.591 337.133 301.525 337.56C300.485 337.96 299.511 338.16 298.605 338.16C296.285 338.16 294.578 336.667 293.485 333.68C292.791 331.84 292.445 329.813 292.445 327.6C292.445 325.387 292.965 323.48 294.005 321.88C295.045 320.28 296.685 319.48 298.925 319.48ZM299.125 322.24C298.111 322.24 297.245 322.813 296.525 323.96C296.258 324.36 296.005 325.267 295.765 326.68C299.498 326.68 301.365 325.76 301.365 323.92C301.365 322.8 300.618 322.24 299.125 322.24ZM314.262 332.16L314.302 336.28C314.302 336.76 314.075 337.2 313.622 337.6C313.195 338 312.769 338.2 312.342 338.2C311.729 338.2 311.342 337.72 311.182 336.76C311.155 336.547 311.049 334.6 310.862 330.92C310.675 327.213 310.315 324.307 309.782 322.2C309.542 321.187 309.422 320.587 309.422 320.4C309.422 319.52 309.955 319.08 311.022 319.08C311.475 319.08 311.835 319.253 312.102 319.6C312.369 319.947 312.529 320.307 312.582 320.68C312.662 321.027 312.729 321.507 312.782 322.12C312.835 322.733 312.875 323.12 312.902 323.28C313.462 321.947 314.302 320.947 315.422 320.28C316.542 319.613 317.769 319.28 319.102 319.28C321.289 319.28 322.382 319.84 322.382 320.96C322.382 321.52 322.182 321.973 321.782 322.32C321.409 322.64 320.969 322.8 320.462 322.8C318.195 322.8 316.595 323.52 315.662 324.96C314.729 326.4 314.262 328.8 314.262 332.16Z" fill="white"/>
</svg>
