<svg width="500" height="500" viewBox="0 0 500 500" fill="none" xmlns="http://www.w3.org/2000/svg">
<g clip-path="url(#clip0_9_1209)">
<rect width="501" height="501" rx="20.4143" fill="#E7E7E7"/>
<path d="M255.847 418.445C217.382 418.445 119.696 418.594 135.844 315.371C142.061 275.547 153.103 249.584 167.544 232.755C190.291 206.245 221.51 202.282 255.847 202.282C284.844 202.282 311.603 205.118 332.941 221.962C352.902 237.729 368.106 265.798 375.848 315.371C391.997 418.594 294.311 418.445 255.847 418.445Z" fill="#9AC4CC"/>
<path d="M154.279 88.8686C154.279 88.8686 136.392 52.939 82.7937 58.8733C18.3054 66.0132 31.4979 138.547 50.9933 160.112C70.4888 181.677 57.0303 193.239 57.4466 218.322C57.9849 250.742 77.0547 267.348 112.643 263.403C148.231 259.458 169.136 231.54 167.28 206.146L154.279 88.8686Z" fill="#8EB5BD"/>
<path d="M127.671 115.867C127.671 115.867 114.315 98.3947 95.2335 99.8719C78.2646 101.185 65.1612 106.906 63.5322 128.94C62.1406 147.763 70.3448 164.457 76.3262 172.312C82.3076 180.167 79.8701 186.281 78.4279 194.794C74.9945 215.05 88.1663 230.129 107.204 228.018C126.242 225.908 147.962 205.792 142.675 166.684C140.308 149.176 138.139 129.613 127.671 115.867Z" fill="#B7E1EB"/>
<path d="M316.713 77.6245C316.713 77.6245 329.478 39.5733 383.383 38.0662C448.24 36.2526 445.167 109.913 428.83 133.958C412.492 158.003 427.415 167.601 430.459 192.502C434.393 224.687 417.792 243.762 382 244.757C346.208 245.753 321.656 220.982 319.995 195.575L316.713 77.6245Z" fill="#8EB5BD"/>
<path d="M346.786 100.699C346.786 100.699 357.607 81.5539 376.711 80.3876C393.698 79.3503 407.465 83.2115 412.115 104.811C416.087 123.262 410.261 140.928 405.418 149.532C400.576 158.136 403.833 163.856 406.434 172.089C412.625 191.678 401.657 208.428 382.51 208.961C363.364 209.493 339.079 192.562 338.928 153.099C338.859 135.433 338.312 115.757 346.786 100.699Z" fill="#B7E1EB"/>
<path d="M124.347 160.069C121.592 93.3893 173.524 39.7837 240.204 37.0282C306.884 34.2728 363.062 83.4114 365.817 150.091C368.572 216.771 315.421 240.863 248.741 243.619C182.061 246.374 127.102 226.749 124.347 160.069Z" fill="#9AC4CC"/>
<path d="M256.11 211.747C235.503 211.747 225.417 199.687 221.128 192.148C220.202 190.519 220.77 188.45 222.398 187.524C224.025 186.595 226.096 187.166 227.022 188.794C231.657 196.936 241.137 206.312 260.077 204.803C279.003 203.278 286.875 192.492 290.145 183.709C290.799 181.954 292.753 181.064 294.505 181.716C296.26 182.368 297.152 184.321 296.498 186.076C293.259 194.776 284.289 209.655 260.621 211.561C259.065 211.687 257.559 211.747 256.11 211.747Z" fill="black"/>
<path d="M183.915 142.003C190.509 142.003 195.854 136.658 195.854 130.065C195.854 123.471 190.509 118.126 183.915 118.126C177.322 118.126 171.977 123.471 171.977 130.065C171.977 136.658 177.322 142.003 183.915 142.003Z" fill="black"/>
<path d="M306.248 142.004C312.842 142.004 318.187 136.658 318.187 130.065C318.187 123.471 312.842 118.125 306.248 118.125C299.654 118.125 294.309 123.471 294.309 130.065C294.309 136.658 299.654 142.004 306.248 142.004Z" fill="black"/>
<path d="M225.581 415.87C225.581 415.87 170.053 442.32 153.826 450.914C152.425 451.652 149.841 453.156 146.451 454.947C136.804 460.057 120.576 467.565 106.212 466.966C100.282 466.723 94.6784 465.089 89.9703 461.349C72.2265 447.218 65.1615 420.133 66.3185 401.275C66.7955 393.497 69.6022 387.833 73.8412 383.973C81.7268 376.758 94.5715 375.733 106.538 378.63C108.41 379.077 110.517 379.248 112.784 379.154C135.002 378.389 173.044 354.313 173.044 354.313L225.581 415.87Z" fill="#9AC4CC"/>
<path d="M106.212 466.966C100.282 466.722 94.6784 465.089 89.9703 461.349C72.2265 447.218 65.1615 420.133 66.3185 401.274C66.7955 393.497 69.6022 387.832 73.8412 383.973C74.244 383.829 74.6383 383.717 75.0482 383.61C88.0668 380.342 103.657 397.79 109.87 422.544C114.443 440.781 112.659 457.909 106.212 466.966Z" fill="#D3E6EB"/>
<path d="M286.111 415.87C286.111 415.87 341.64 442.32 357.867 450.914C359.267 451.652 361.852 453.156 365.242 454.947C374.889 460.057 391.117 467.565 405.481 466.966C411.411 466.723 417.014 465.089 421.722 461.349C439.466 447.218 446.531 420.133 445.374 401.275C444.897 393.497 442.091 387.833 437.851 383.973C429.966 376.758 417.121 375.733 405.156 378.63C403.284 379.077 401.177 379.248 398.908 379.154C376.69 378.389 338.649 354.313 338.649 354.313L286.111 415.87Z" fill="#9AC4CC"/>
<path d="M405.481 466.966C411.411 466.723 417.015 465.089 421.723 461.349C439.467 447.218 446.532 420.133 445.375 401.275C444.898 393.497 442.091 387.833 437.852 383.973C437.449 383.829 437.055 383.718 436.645 383.61C423.626 380.342 408.036 397.79 401.823 422.545C397.251 440.781 399.034 457.909 405.481 466.966Z" fill="#D3E6EB"/>
<path d="M170.367 231.87C170.367 231.87 101.243 242.647 86.8507 276.935C72.4583 311.223 99.5499 336.621 138.494 338.738L170.367 231.87Z" fill="#9AC4CC"/>
<path d="M341.326 231.87C341.326 231.87 410.45 242.647 424.842 276.935C439.235 311.223 412.143 336.621 373.199 338.738L341.326 231.87Z" fill="#9AC4CC"/>
<path d="M382.121 221.749H129.57V231.068L147.097 234.512L129.57 239.519V244.51L138.484 247.624L129.57 252.946V272.775V273.498V290.18L139.391 293.126L129.57 298.429V305.715L137.275 312.166L129.57 315.402V324.525V337.438L140.902 341.972L129.57 345.539V376.274H382.121V362.962L366.966 358.896L382.121 350.399L372.406 347.68L382.121 342.687V324.525V315.606L375.428 313.375L382.121 310.028V290.067L367.872 286.779L382.121 280.883V273.498V272.775V238.918L366.966 234.965L382.121 231.011V221.749Z" fill="#A86531"/>
<path d="M310.091 260.724C304.931 261.804 300.792 262.806 297.142 263.69C286.896 266.171 280.126 267.81 263.816 268.062C241.76 268.403 223.392 269.586 222.012 280.657C220.607 291.923 244.985 301.421 261.715 305.056C269.898 306.835 275.003 310.622 280.409 314.631C286.738 319.325 293.284 324.178 305.221 325.842C314.293 327.106 325.301 327.394 336.957 327.699C352.806 328.115 369.168 328.553 382.122 331.499V330.721C369.123 327.793 352.795 327.357 336.976 326.942C325.342 326.637 314.355 326.348 305.324 325.091C293.58 323.455 287.114 318.66 280.86 314.022C275.388 309.963 270.218 306.129 261.874 304.316C245.419 300.74 221.421 291.512 222.764 280.75C224.067 270.299 242.931 269.144 263.827 268.821C280.222 268.567 287.024 266.92 297.318 264.427C300.965 263.545 305.096 262.544 310.244 261.466C325.124 258.35 353.616 258.735 382.121 262.064V261.303C353.565 257.975 325.017 257.599 310.091 260.724Z" fill="#7D4B25"/>
<path d="M297.649 271.035C287.779 274.176 277.612 274.707 269.443 275.135C259.527 275.653 252.363 276.027 251.055 280.6C250.688 281.881 250.962 283.273 251.867 284.734C256.599 292.38 278.405 301.539 302.591 306.039C315.068 308.36 332.799 309.45 349.947 310.502C359.704 311.102 369.194 311.688 377.228 312.477L378.492 311.844C370.188 310.989 360.236 310.375 349.993 309.746C332.868 308.694 315.16 307.607 302.73 305.295C279.124 300.902 257.066 291.696 252.512 284.336C251.723 283.063 251.478 281.876 251.783 280.809C252.943 276.757 259.879 276.394 269.482 275.893C277.694 275.463 287.917 274.928 297.88 271.758C315.167 266.259 353.592 269.669 382.122 272.58V271.817C353.534 268.899 315.063 265.494 297.649 271.035Z" fill="#7D4B25"/>
<path d="M223.694 317.401C244.48 327.041 272.944 340.243 297.459 346.287C319.187 351.645 335.665 354.816 360.791 354.816C365.162 354.816 369.806 354.717 374.775 354.519L376.24 353.698C341.856 355.181 323.449 351.917 297.64 345.552C273.197 339.525 244.77 326.341 224.015 316.716C217.809 313.838 212.451 311.352 208.052 309.453C195.3 303.946 161.428 299.665 129.572 298.494V299.246C161.323 300.41 195.061 304.667 207.754 310.148C212.141 312.043 217.495 314.526 223.694 317.401Z" fill="#7D4B25"/>
<path d="M264.317 368.759C258.509 368.061 253.162 367.419 248.416 366.867C230.698 364.807 211.749 365.372 187.757 366.087C171.23 366.58 152.167 367.147 129.57 366.939V367.698C152.177 367.907 171.247 367.339 187.779 366.846C211.738 366.131 230.667 365.568 248.327 367.621C253.073 368.173 258.418 368.815 264.226 369.513C281.656 371.607 302.912 374.162 324.505 376.275H332.484C308.234 374.039 283.868 371.11 264.317 368.759Z" fill="#7D4B25"/>
<path d="M292.865 286.55C291.89 288.282 291.96 290.021 293.074 291.716C297.708 298.781 320.141 303.628 338.42 303.628C341.457 303.628 344.379 303.494 347.086 303.214C358.409 302.044 371.622 302.027 382.121 302.311V301.552C371.6 301.269 358.361 301.287 347.009 302.46C328.205 304.4 298.981 299.338 293.707 291.301C292.749 289.84 292.689 288.408 293.526 286.921C298.105 278.783 334.141 280.837 372.288 283.011C373.654 283.089 375.037 283.167 376.414 283.245L378.028 282.577C376.123 282.47 374.217 282.362 372.331 282.254C333.942 280.067 297.675 277.999 292.865 286.55Z" fill="#7D4B25"/>
<path d="M142.138 282.909C138.033 282.672 133.827 282.43 129.57 282.193V282.953C133.811 283.189 138.002 283.429 142.093 283.665C156.437 284.492 168.824 285.207 177.866 285.374C201.345 285.809 209.803 290.92 229.861 306.617C246.759 319.841 260.599 324.526 278.124 330.457C281.503 331.6 284.996 332.783 288.717 334.092C305.036 339.834 326.425 340.767 353.504 341.948C361.91 342.314 371.124 342.719 380.921 343.304L382.121 342.688V342.614C371.882 341.991 362.277 341.571 353.537 341.191C326.522 340.013 305.183 339.083 288.969 333.378C285.244 332.068 281.747 330.884 278.368 329.74C260.23 323.6 247.125 319.165 230.329 306.021C210.52 290.517 201.482 285.054 177.881 284.616C168.854 284.449 156.474 283.735 142.138 282.909Z" fill="#7D4B25"/>
<path d="M151.334 318.62C156.916 318.566 162.474 318.511 167.902 318.447C168.349 318.442 168.791 318.439 169.232 318.439C192.62 318.439 209.506 325.754 228.999 334.196C239.519 338.753 251.441 343.917 265.665 348.457C300.689 359.635 332.227 364.725 368.999 364.725C373.292 364.725 377.671 364.645 382.122 364.507V363.746C339.641 365.058 304.925 360.191 265.896 347.735C251.707 343.207 239.803 338.05 229.301 333.501C209.729 325.024 192.782 317.682 169.236 317.682C168.793 317.682 168.343 317.684 167.894 317.689C162.467 317.753 156.909 317.808 151.327 317.863C144.05 317.934 136.719 318.006 129.57 318.099V318.858C136.72 318.764 144.054 318.692 151.334 318.62Z" fill="#7D4B25"/>
<path d="M252.182 354.802C287.255 365.135 330.905 370.723 382.121 371.471V370.704C330.982 369.951 287.398 364.388 252.395 354.075C223.463 345.551 179.543 341.789 136.993 343.203L133.87 344.186C177.382 342.551 223.151 346.25 252.182 354.802Z" fill="#7D4B25"/>
<path d="M243.212 247.083C262.35 244.344 272.894 242.835 299.301 241.857C310.623 241.437 318.971 241.422 327.045 241.408C340.454 241.383 354.238 241.356 382.121 239.457V238.919L381.447 238.743C353.998 240.599 340.341 240.625 327.043 240.649C318.964 240.664 310.609 240.679 299.275 241.098C272.826 242.079 262.27 243.589 243.105 246.332C236.543 247.272 229.102 248.336 219.623 249.588C195.178 252.817 160.045 254.118 129.57 254.195V254.953C160.078 254.875 195.248 253.573 219.724 250.34C229.205 249.087 236.647 248.022 243.212 247.083Z" fill="#7D4B25"/>
<path d="M187.883 241.856C238.044 241.856 263.709 240.868 298.95 231.399C316.666 226.639 334.371 223.179 358.369 221.749H348.17C329.087 223.467 313.922 226.592 298.755 230.667C263.599 240.111 237.974 241.098 187.883 241.098C165.123 241.098 146.615 240.254 130.911 239.136L129.57 239.519V239.796C145.565 240.963 164.466 241.856 187.883 241.856Z" fill="#7D4B25"/>
<path d="M222.663 232.765C251.029 232.765 269.655 227.666 287.724 221.749H285.275C262.768 229.002 238.822 234.713 195.753 230.655C165.676 227.821 145.046 225.2 129.57 223.136V223.9C145.042 225.963 165.655 228.581 195.681 231.41C205.621 232.347 214.539 232.765 222.663 232.765Z" fill="#7D4B25"/>
<path d="M281.411 256.331L278.86 256.574C243.937 259.899 216.352 262.525 189.981 268.071C174.415 271.345 153.174 272.28 129.57 270.988V271.73C136.35 272.1 142.957 272.307 149.27 272.307C164.978 272.307 179.001 271.154 190.138 268.812C216.465 263.275 244.031 260.65 278.932 257.329L281.482 257.086C308.425 254.519 338.37 251.673 382.121 251.815V251.057C338.334 250.915 308.371 253.764 281.411 256.331Z" fill="#7D4B25"/>
<path d="M382.122 270.014H129.599V273.046H382.122V270.014Z" fill="#8F562A"/>
<path d="M382.122 320.56H129.599V323.592H382.122V320.56Z" fill="#8F562A"/>
<path d="M238.208 160.472C240.223 145.041 260.855 137.835 277.007 142.004C293.159 146.173 331.16 185.904 357.236 191.271C391.241 198.268 436.416 181.121 455.266 148.824C480.522 105.549 502.934 116.793 514.122 109.152C525.311 101.512 533.941 108.626 530.674 116.155C527.407 123.685 520.452 136.281 522.244 144.301C524.036 152.322 520.871 167.771 510.474 161.891C500.076 156.009 482.894 172.367 477.017 182.93C468.422 198.377 424.167 249.808 372.437 251.163C320.708 252.519 265.674 212.329 253.505 196.959C241.336 181.588 236.452 173.923 238.208 160.472Z" fill="#C7E4EB"/>
<path d="M284.789 180.555C284.467 180.555 284.143 180.461 283.857 180.268C283.1 179.753 282.905 178.721 283.421 177.963L296.667 158.528C297.183 157.77 298.214 157.577 298.971 158.092C299.728 158.607 299.923 159.639 299.407 160.396L286.161 179.832C285.84 180.303 285.318 180.555 284.789 180.555Z" fill="#9AC4CC"/>
<path d="M317.603 201.312C317.382 201.312 317.156 201.268 316.941 201.173C316.101 200.805 315.718 199.829 316.086 198.991L324.122 180.622C324.487 179.782 325.465 179.395 326.304 179.768C327.144 180.135 327.526 181.111 327.159 181.95L319.123 200.318C318.851 200.941 318.243 201.312 317.603 201.312Z" fill="#9AC4CC"/>
<path d="M351.641 216.106C351.487 216.106 351.329 216.084 351.174 216.038C350.295 215.779 349.793 214.858 350.051 213.98L355.252 196.324C355.51 195.446 356.428 194.938 357.31 195.202C358.189 195.46 358.691 196.382 358.432 197.259L353.231 214.915C353.019 215.637 352.358 216.106 351.641 216.106Z" fill="#9AC4CC"/>
<path d="M390.517 212.293C389.729 212.293 389.031 211.73 388.887 210.926L386.743 198.927C386.581 198.025 387.182 197.164 388.083 197.004C388.992 196.838 389.845 197.442 390.007 198.344L392.151 210.343C392.312 211.245 391.711 212.106 390.81 212.267C390.712 212.285 390.614 212.293 390.517 212.293Z" fill="#9AC4CC"/>
<path d="M422.837 202.308C422.128 202.308 421.471 201.849 421.252 201.136L416.978 187.205C416.709 186.331 417.201 185.403 418.077 185.134C418.953 184.861 419.879 185.358 420.148 186.234L424.423 200.164C424.692 201.038 424.2 201.966 423.323 202.235C423.162 202.285 422.998 202.308 422.837 202.308Z" fill="#9AC4CC"/>
<path d="M124.244 273.046C124.244 273.046 169 276.411 170.367 301.629C171.976 331.299 149.348 344.372 121.062 336.051L124.244 273.046Z" fill="#9AC4CC"/>
<path d="M387.45 273.046C387.45 273.046 342.694 276.411 341.327 301.629C339.718 331.299 362.346 344.372 390.632 336.051L387.45 273.046Z" fill="#9AC4CC"/>
<path d="M239.484 282.32C240.044 282.32 240.431 282.72 240.644 283.52C240.484 286.213 240.311 288.133 240.124 289.28C239.938 290.4 239.778 291.387 239.644 292.24C239.538 293.093 239.458 293.68 239.404 294C239.378 294.32 239.271 294.973 239.084 295.96C238.898 296.947 238.698 297.933 238.484 298.92C238.298 299.88 238.178 300.453 238.124 300.64C238.098 300.827 237.858 302.027 237.404 304.24C236.951 306.427 236.604 307.773 236.364 308.28C236.151 308.76 235.764 309 235.204 309C234.671 309 234.244 308.84 233.924 308.52C232.698 306.84 231.538 304.76 230.444 302.28C230.178 301.64 229.871 300.947 229.524 300.2C229.204 299.453 228.964 298.893 228.804 298.52L228.444 297.68C227.884 298.64 227.111 300.267 226.124 302.56C225.138 304.853 224.271 306.693 223.524 308.08C223.044 308.693 222.511 309 221.924 309C220.698 309 219.764 305.733 219.124 299.2C219.124 299.173 219.098 299.027 219.044 298.76C219.018 298.493 218.964 298.027 218.884 297.36C218.831 296.693 218.751 295.96 218.644 295.16C218.564 294.333 218.231 290.96 217.644 285.04C217.644 284.507 217.844 284.027 218.244 283.6C218.644 283.147 219.084 282.92 219.564 282.92C220.151 282.92 220.551 283.307 220.764 284.08C221.484 292.747 222.204 299.147 222.924 303.28C223.138 302.907 223.684 301.68 224.564 299.6C225.444 297.493 226.244 295.827 226.964 294.6C227.684 293.347 228.378 292.72 229.044 292.72C229.498 292.72 229.884 292.96 230.204 293.44C231.884 298.213 233.324 301.573 234.524 303.52C234.551 303.227 234.711 302.427 235.004 301.12L235.524 298.56C235.524 298.4 235.551 298.173 235.604 297.88C235.684 297.587 235.738 297.307 235.764 297.04C235.818 296.747 235.871 296.48 235.924 296.24L236.364 293.72C237.004 289.773 237.404 286.533 237.564 284C237.671 283.547 237.911 283.16 238.284 282.84C238.684 282.493 239.084 282.32 239.484 282.32ZM245.293 283.72C245.773 283.72 246.226 283.947 246.653 284.4C247.079 284.853 247.293 285.333 247.293 285.84C247.293 286.32 247.053 286.813 246.573 287.32C246.119 287.827 245.639 288.08 245.133 288.08C244.626 288.08 244.159 287.867 243.733 287.44C243.333 287.013 243.133 286.467 243.133 285.8C243.133 284.52 243.826 283.827 245.213 283.72C245.239 283.72 245.266 283.72 245.293 283.72ZM246.973 304.68L247.013 307.48C247.013 307.987 246.813 308.413 246.413 308.76C246.013 309.08 245.586 309.24 245.133 309.24C244.466 309.24 244.119 308.907 244.093 308.24C243.746 299.733 243.573 295.027 243.573 294.12C243.573 293.213 243.613 292.107 243.693 290.8C243.746 290.32 244.053 290.08 244.613 290.08C246.026 290.08 246.826 290.653 247.013 291.8C247.093 292.387 247.133 292.853 247.133 293.2L246.973 295.72V304.68ZM257.918 308.96C257.011 308.96 256.171 308.653 255.398 308.04C255.398 308.04 255.225 307.893 254.878 307.6V319.6C254.718 320.133 254.438 320.573 254.038 320.92C253.638 321.293 253.211 321.48 252.758 321.48C252.065 321.48 251.718 321.013 251.718 320.08V292.2C251.878 291.507 252.065 291.013 252.278 290.72C252.518 290.427 252.878 290.28 253.358 290.28C253.865 290.28 254.185 290.4 254.318 290.64C254.478 290.853 254.665 291.467 254.878 292.48C254.985 291.947 255.411 291.453 256.158 291C256.905 290.547 257.905 290.32 259.158 290.32C261.878 290.32 263.811 291.307 264.958 293.28C266.105 295.253 266.678 297.587 266.678 300.28C266.678 302.947 265.891 305.067 264.318 306.64C262.771 308.187 260.638 308.96 257.918 308.96ZM254.878 296.96V304.4C255.038 304.48 255.225 304.613 255.438 304.8C256.211 305.493 257.051 305.84 257.958 305.84C261.638 305.84 263.478 303.947 263.478 300.16C263.478 296.933 262.651 294.893 260.998 294.04C260.305 293.667 259.451 293.48 258.438 293.48C257.451 293.613 256.611 294.053 255.918 294.8C255.225 295.52 254.878 296.24 254.878 296.96ZM274.468 290.48C275.881 290.48 277.228 290.893 278.508 291.72C279.788 292.547 280.428 293.573 280.428 294.8C280.428 296 279.908 297.173 278.868 298.32C277.828 299.44 276.441 300.12 274.708 300.36C273.961 300.467 272.841 300.52 271.348 300.52C271.641 302.787 272.214 304.28 273.067 305C273.334 305.293 273.694 305.44 274.148 305.44C275.801 305.44 277.188 304.92 278.308 303.88C279.428 302.813 280.228 302.28 280.708 302.28C280.921 302.28 281.241 302.48 281.668 302.88C282.094 303.28 282.308 303.653 282.308 304C282.308 304.693 281.468 305.693 279.788 307C279.041 307.613 278.134 308.133 277.068 308.56C276.028 308.96 275.054 309.16 274.148 309.16C271.828 309.16 270.121 307.667 269.028 304.68C268.334 302.84 267.988 300.813 267.988 298.6C267.988 296.387 268.508 294.48 269.548 292.88C270.588 291.28 272.228 290.48 274.468 290.48ZM274.668 293.24C273.654 293.24 272.788 293.813 272.068 294.96C271.801 295.36 271.548 296.267 271.308 297.68C275.041 297.68 276.908 296.76 276.908 294.92C276.908 293.8 276.161 293.24 274.668 293.24ZM285.325 295.4C285.325 293.827 285.885 292.573 287.005 291.64C288.125 290.707 289.418 290.24 290.885 290.24C292.378 290.24 293.805 290.507 295.165 291.04C296.525 291.573 297.205 292.28 297.205 293.16C297.205 293.613 297.032 293.973 296.685 294.24C296.338 294.507 296.032 294.64 295.765 294.64C295.525 294.64 295.325 294.64 295.165 294.64C295.032 294.613 294.498 294.36 293.565 293.88C292.658 293.4 291.818 293.16 291.045 293.16C290.272 293.16 289.605 293.36 289.045 293.76C288.512 294.133 288.245 294.693 288.245 295.44C288.245 296.187 288.552 296.773 289.165 297.2C289.805 297.627 290.912 298 292.485 298.32C294.058 298.613 295.258 299.04 296.085 299.6C296.938 300.16 297.365 301.2 297.365 302.72C297.365 304.933 296.778 306.507 295.605 307.44C294.458 308.347 293.058 308.8 291.405 308.8C289.752 308.8 288.338 308.573 287.165 308.12C286.018 307.667 285.445 306.987 285.445 306.08C285.445 305.04 285.965 304.52 287.005 304.52C287.272 304.52 287.858 304.707 288.765 305.08C289.672 305.453 290.565 305.64 291.445 305.64C292.352 305.64 293.032 305.36 293.485 304.8C293.965 304.213 294.205 303.547 294.205 302.8C294.205 302.053 293.898 301.52 293.285 301.2C292.672 300.853 291.738 300.573 290.485 300.36C289.232 300.147 288.312 299.92 287.725 299.68C286.125 299.04 285.325 297.613 285.325 295.4Z" fill="white"/>
</g>
<defs>
<clipPath id="clip0_9_1209">
<rect width="500" height="500" fill="white"/>
</clipPath>
</defs>
</svg>
