<svg width="501" height="501" viewBox="0 0 501 501" fill="none" xmlns="http://www.w3.org/2000/svg">
<rect width="501" height="501" rx="20.4143" fill="#F3F1F0"/>
<path d="M158.144 206.91C158.144 206.91 115.956 218.287 96.2581 248.328C76.5609 278.369 81.3029 301.486 94.3309 313.183C94.3309 313.183 127.937 322.975 142.373 277.852C156.81 232.724 158.144 206.91 158.144 206.91Z" fill="#ED9893"/>
<path d="M341.253 206.91C341.253 206.91 383.441 218.287 403.139 248.328C422.836 278.369 418.094 301.486 405.066 313.183C405.066 313.183 371.46 322.975 357.023 277.852C342.587 232.724 341.253 206.91 341.253 206.91Z" fill="#ED9893"/>
<path d="M162.773 366.998C162.773 366.998 104.473 370.5 104.91 401.29C105.21 422.41 118.985 445.558 141.672 439.157C163.968 432.872 198.211 411.303 198.211 411.303L162.773 366.998Z" fill="#ED9893"/>
<path d="M108.662 388.622C106.249 392.222 104.841 396.412 104.911 401.29C105.187 420.752 116.91 441.909 136.499 440.115C137.204 432.989 135.928 424.204 132.474 415.315C126.875 400.903 117.238 390.533 108.662 388.622Z" fill="#F4CEBD"/>
<path d="M336.623 366.998C336.623 366.998 394.924 370.5 394.486 401.29C394.186 422.41 380.412 445.558 357.725 439.157C335.429 432.872 301.186 411.303 301.186 411.303L336.623 366.998Z" fill="#ED9893"/>
<path d="M390.735 388.622C393.148 392.222 394.556 396.412 394.486 401.29C394.211 420.752 382.487 441.909 362.898 440.115C362.192 432.989 363.469 424.204 366.923 415.315C372.522 400.903 382.159 390.533 390.735 388.622Z" fill="#F4CEBD"/>
<path d="M374.97 320.432C376.284 383.394 329.224 418.521 249.69 418.521C170.142 418.521 123.081 383.394 124.41 320.432C125.224 281.643 143.897 236.152 158.127 206.922C158.169 206.855 158.198 206.769 158.241 206.695C167.041 188.609 174.127 176.808 174.127 176.808H325.252C325.252 176.808 332.338 188.597 341.153 206.695C341.182 206.769 341.225 206.836 341.253 206.91C355.468 236.14 374.156 281.643 374.97 320.432Z" fill="#ED9893"/>
<path d="M181.315 52.0193C172.75 40.8385 159.307 39.1184 149.879 46.3429C140.451 53.5613 138.609 66.9905 147.173 78.1712C155.738 89.352 171.467 94.0578 180.894 86.8333C190.322 79.6149 189.879 63.2062 181.315 52.0193Z" fill="#ED9893"/>
<path d="M179.227 59.9319C173.237 52.1115 163.836 50.9073 157.244 55.9571C150.651 61.0069 149.362 70.3938 155.352 78.2142C161.341 86.0346 172.339 89.3213 178.932 84.2715C185.525 79.2217 185.216 67.7461 179.227 59.9319Z" fill="#F4CEBD"/>
<path d="M318.08 52.0193C326.645 40.8385 340.089 39.1184 349.517 46.3429C358.944 53.5613 360.787 66.9905 352.222 78.1712C343.657 89.352 327.929 94.0578 318.501 86.8333C309.073 79.6149 309.516 63.2062 318.08 52.0193Z" fill="#ED9893"/>
<path d="M320.168 59.9319C326.158 52.1115 335.558 50.9073 342.151 55.9571C348.744 61.0069 350.033 70.3938 344.043 78.2142C338.054 86.0346 327.056 89.3213 320.463 84.2715C313.87 79.2217 314.179 67.7461 320.168 59.9319Z" fill="#F4CEBD"/>
<path d="M362.687 154.962C362.687 162.69 361.772 169.706 360.036 176.089C358.749 180.819 357.013 185.175 354.873 189.205C353.369 192.049 351.648 194.734 349.742 197.253C330.827 222.194 293.123 231.323 249.697 231.323C206.256 231.323 168.552 222.194 149.638 197.253C147.73 194.734 146.025 192.061 144.522 189.217C142.366 185.193 140.645 180.819 139.358 176.107C137.607 169.731 136.692 162.69 136.692 154.962C136.692 97.4427 187.28 53.1372 249.697 53.1372C312.099 53.1372 362.687 97.4427 362.687 154.962Z" fill="#ED9893"/>
<path d="M207.272 133.504C207.272 127.821 202.665 123.214 196.984 123.214C191.302 123.214 186.696 127.821 186.696 133.504C186.696 139.186 191.302 143.788 196.984 143.788C202.665 143.788 207.272 139.186 207.272 133.504Z" fill="black"/>
<path d="M312.687 133.504C312.687 127.821 308.082 123.214 302.4 123.214C296.718 123.214 292.112 127.821 292.112 133.504C292.112 139.186 296.718 143.788 302.4 143.788C308.082 143.788 312.687 139.186 312.687 133.504Z" fill="black"/>
<path d="M360.036 176.089C342.234 166.677 316.836 161.081 287.416 158.63C285.873 152.48 281.799 148.076 277.003 148.076C272.579 148.076 268.771 151.823 266.994 157.235C261.346 156.873 255.573 156.688 249.698 156.688C243.818 156.688 238.04 156.873 232.388 157.235C230.61 151.823 226.803 148.076 222.378 148.076C217.582 148.076 213.507 152.48 211.965 158.63C182.549 161.087 157.157 166.684 139.358 176.107C140.645 180.819 142.366 185.193 144.521 189.217C146.025 192.061 147.73 194.734 149.637 197.253C165.596 218.293 194.932 228.086 229.804 230.629C230.003 230.641 230.205 230.654 230.405 230.666C236.675 231.108 243.119 231.323 249.697 231.323C249.697 231.323 249.697 231.323 249.697 231.323C249.698 231.323 249.698 231.323 249.698 231.323C293.124 231.323 330.828 222.194 349.743 197.253C351.65 194.734 353.371 192.049 354.874 189.205C354.874 189.205 354.874 189.205 354.873 189.205C357.013 185.175 358.749 180.819 360.036 176.089Z" fill="#F4CEBD"/>
<path d="M249.683 213.864C188.993 213.864 191.351 178.116 191.351 178.116H308.031C308.031 178.116 310.388 213.864 249.683 213.864Z" fill="#D33541"/>
<path d="M232.006 178.116V186.889C232.006 189.856 229.6 192.264 226.632 192.264H211.078C208.11 192.264 205.704 189.856 205.704 186.889V178.116H232.006Z" fill="#F2F2F2"/>
<path d="M293.678 178.116V186.889C293.678 189.856 291.272 192.264 288.303 192.264H272.749C269.781 192.264 267.375 189.856 267.375 186.889V178.116H293.678Z" fill="#F2F2F2"/>
<path d="M229.264 157.149C229.264 154.379 227.018 152.13 224.248 152.13C221.478 152.13 219.232 154.379 219.232 157.149C219.232 159.914 221.478 162.162 224.248 162.162C227.018 162.162 229.264 159.914 229.264 157.149Z" fill="black"/>
<path d="M280.149 157.149C280.149 154.379 277.904 152.13 275.134 152.13C272.364 152.13 270.118 154.379 270.118 157.149C270.118 159.914 272.364 162.162 275.134 162.162C277.904 162.162 280.149 159.914 280.149 157.149Z" fill="black"/>
<path d="M370.677 233.431H128.701V241.994L145.494 245.158L128.701 249.759V254.349L137.242 257.205L128.701 262.095V280.322V280.986V296.313L138.11 299.022L128.701 303.894V310.59L136.083 316.519L128.701 319.492V327.877V339.746L139.558 343.911L128.701 347.186V375.433H370.677V363.201L356.157 359.466L370.677 351.658L361.369 349.158L370.677 344.569V327.877V319.682L364.265 317.63L370.677 314.559V296.209L357.025 293.192L370.677 287.774V280.986V280.322V249.207L356.157 245.576L370.677 241.939V233.431Z" fill="#A86531"/>
<path d="M351.703 361.432C324.382 353.483 305.484 350.472 279.104 350.472C274.295 350.472 269.237 350.571 263.835 350.761C235.99 351.732 226.089 356.603 208.113 365.45C203.25 367.846 197.74 370.555 191.119 373.565C189.695 374.21 188.325 374.831 186.979 375.433H188.723C189.605 375.039 190.499 374.634 191.415 374.216C198.045 371.2 203.562 368.485 208.428 366.095C226.316 357.285 236.168 352.438 263.86 351.474C299.238 350.239 318.894 352.629 351.502 362.12C358.384 364.123 364.814 365.702 370.677 366.943V366.212C364.871 364.977 358.509 363.416 351.703 361.432Z" fill="#8F562A"/>
<path d="M187.701 358.809C191.016 357.654 194.533 356.431 198.353 355.129C201.569 354.029 204.683 352.954 207.721 351.898C236.966 341.737 258.098 334.395 292.499 339.574C306.628 341.706 320.826 344.532 334.557 347.266C345.774 349.502 356.695 351.67 367.35 353.446L368.379 352.893C357.446 351.093 346.228 348.863 334.697 346.565C320.958 343.831 306.751 340.999 292.605 338.868C284.943 337.719 277.887 337.203 271.232 337.203C247.856 337.203 229.466 343.586 207.486 351.222C204.45 352.278 201.336 353.36 198.122 354.453C194.302 355.756 190.783 356.978 187.467 358.133C167.428 365.106 155.001 369.418 128.701 373.03V373.755C155.13 370.131 167.591 365.806 187.701 358.809Z" fill="#8F562A"/>
<path d="M262.483 374.056C261.269 374.548 259.977 375.003 258.641 375.433H260.866C261.509 375.205 262.144 374.966 262.754 374.72C278.787 368.184 293.01 366.058 312.302 375.433H313.898C304.025 370.432 295.471 368.374 287.368 368.374C278.914 368.374 270.948 370.61 262.483 374.056Z" fill="#8F562A"/>
<path d="M286.795 357.967C278.162 357.967 268.805 359.171 257.219 361.426C237.281 365.308 222.938 368.718 208.456 375.433H210.162C224.12 369.16 238.126 365.874 257.356 362.126C290 355.768 304.803 358.428 330.14 369.099C335.088 371.181 339.577 373.307 343.812 375.433H345.404C340.792 373.086 335.877 370.739 330.416 368.435C313.332 361.242 301.05 357.967 286.795 357.967Z" fill="#8F562A"/>
<path d="M213.036 339.9C237.225 331.79 260.071 324.136 306.461 328.51C336.029 331.293 355.894 333.861 370.677 335.839V335.12C355.897 333.142 336.046 330.574 306.528 327.797C297.162 326.913 288.758 326.52 281.103 326.52C250.715 326.52 232.189 332.73 212.81 339.224C207.469 341.012 201.947 342.861 196.083 344.624C169.706 352.536 156.382 354.619 128.701 356.499V357.218C156.475 355.332 169.823 353.249 196.29 345.306C202.163 343.543 207.691 341.693 213.036 339.9Z" fill="#8F562A"/>
<path d="M261.739 313.029C243.705 315.609 233.77 317.034 208.887 317.956C198.217 318.349 190.352 318.361 182.744 318.374C169.767 318.398 156.43 318.423 128.701 320.364V321.077C156.441 319.142 169.773 319.117 182.745 319.092C190.358 319.074 198.232 319.062 208.912 318.668C233.834 317.741 243.782 316.322 261.841 313.735C268.025 312.851 275.036 311.849 283.967 310.67C307.498 307.561 341.543 306.345 370.677 306.32V305.608C341.513 305.632 307.432 306.849 283.873 309.957C274.938 311.143 267.926 312.144 261.739 313.029Z" fill="#8F562A"/>
<path d="M313.876 317.956C266.61 317.956 242.426 318.884 209.218 327.81C187.017 333.769 164.846 337.578 128.701 337.584V338.302C164.913 338.29 187.146 334.475 209.402 328.498C242.529 319.596 266.676 318.669 313.876 318.669C336.858 318.669 355.218 319.584 370.677 320.745V320.032C355.216 318.865 336.855 317.956 313.876 317.956Z" fill="#8F562A"/>
<path d="M214.952 275.838C215.87 274.203 215.804 272.569 214.755 270.972C210.388 264.313 189.25 259.748 172.024 259.748C169.163 259.748 166.409 259.871 163.859 260.135C153.12 261.247 140.574 261.253 130.651 260.983L129.463 261.659C139.582 261.966 152.73 262.003 163.931 260.848C181.65 259.017 209.188 263.791 214.158 271.359C215.061 272.735 215.118 274.087 214.329 275.487C210.014 283.16 176.058 281.219 140.111 279.173C136.343 278.958 132.521 278.743 128.701 278.534V279.253C132.507 279.456 136.316 279.671 140.071 279.886C176.245 281.95 210.419 283.898 214.952 275.838Z" fill="#8F562A"/>
<path d="M350.261 289.261C335.46 289.261 322.246 290.348 311.751 292.553C286.944 297.769 260.968 300.245 228.081 303.372L225.678 303.605C199.849 306.062 171.104 308.796 128.701 308.563V309.275C171.139 309.515 199.9 306.775 225.745 304.312L228.149 304.084C261.057 300.951 287.051 298.475 311.899 293.254C325.577 290.372 343.903 289.414 364.348 290.287L365.954 289.648C360.57 289.396 355.318 289.261 350.261 289.261Z" fill="#8F562A"/>
<path d="M210.444 290.458C219.744 287.497 229.325 287 237.022 286.594C246.365 286.109 253.117 285.753 254.349 281.446C254.695 280.236 254.437 278.927 253.584 277.551C249.126 270.345 228.577 261.714 205.787 257.475C194.03 255.288 177.322 254.262 161.163 253.267C149.048 252.524 137.36 251.805 128.701 250.638V251.35C137.4 252.517 149.048 253.242 161.12 253.979C177.257 254.975 193.943 255.994 205.656 258.175C227.899 262.316 248.685 270.99 252.976 277.926C253.72 279.124 253.95 280.242 253.662 281.25C252.57 285.065 246.034 285.409 236.986 285.882C229.247 286.287 219.615 286.791 210.226 289.776C193.499 295.097 155.769 291.564 128.701 288.787V289.5C155.826 292.295 193.596 295.821 210.444 290.458Z" fill="#8F562A"/>
<path d="M356.296 245.539C353.637 245.57 350.973 245.594 348.316 245.619C343.056 245.668 337.819 245.723 332.704 245.785C332.282 245.785 331.867 245.791 331.451 245.791C311.752 245.791 296.944 240.28 280.906 233.431H279.092C295.8 240.612 310.98 246.503 331.449 246.503C331.866 246.503 332.29 246.503 332.712 246.497C337.825 246.436 343.063 246.387 348.323 246.331C351.801 246.301 355.293 246.264 358.769 246.227L356.157 245.576L356.296 245.539Z" fill="#8F562A"/>
<path d="M198.72 300.177C203.582 299.157 207.482 298.211 210.922 297.376C220.577 295.041 226.956 293.5 242.325 293.26C263.108 292.94 280.417 291.822 281.717 281.391C283.041 270.776 260.069 261.825 244.305 258.397C236.594 256.726 231.783 253.157 226.69 249.378C220.725 244.955 214.557 240.379 203.309 238.812C194.761 237.62 184.387 237.35 173.405 237.061C158.372 236.668 142.852 236.256 130.608 233.43H129.112C129.11 233.437 129.104 233.437 129.102 233.443C129.056 233.633 129.171 233.83 129.364 233.873C141.839 236.951 157.876 237.368 173.386 237.774C184.348 238.063 194.702 238.339 203.211 239.518C214.278 241.06 220.371 245.582 226.264 249.95C231.421 253.777 236.292 257.389 244.155 259.097C259.661 262.47 282.274 271.163 281.008 281.305C279.781 291.153 262.004 292.24 242.314 292.547C226.866 292.787 220.456 294.335 210.755 296.688C207.319 297.517 203.426 298.463 198.575 299.477C185.631 302.186 161.752 302.082 137.025 299.588L135.868 300.183C161.055 302.794 185.531 302.936 198.72 300.177Z" fill="#8F562A"/>
<path d="M357.023 278.559C343.506 277.779 331.834 277.103 323.314 276.95C301.189 276.538 293.22 271.722 274.319 256.929C258.396 244.47 245.354 240.053 228.841 234.463C227.843 234.125 226.812 233.775 225.79 233.431H223.572C225.29 234.014 226.967 234.586 228.612 235.138C245.703 240.925 258.051 245.109 273.878 257.494C292.545 272.103 301.061 277.251 323.3 277.662C331.806 277.822 343.473 278.492 356.982 279.272C361.445 279.53 366.034 279.794 370.677 280.046V279.333C366.048 279.075 361.473 278.811 357.023 278.559Z" fill="#8F562A"/>
<path d="M280.132 246.768C271.345 242.695 261.096 237.946 250.386 233.431H248.533C259.802 238.13 270.62 243.143 279.831 247.413C285.678 250.128 290.727 252.469 294.872 254.256C307.137 259.552 340.128 263.643 370.677 264.645V263.938C340.228 262.943 307.362 258.876 295.154 253.605C291.018 251.817 285.974 249.477 280.132 246.768Z" fill="#8F562A"/>
<path d="M370.678 279.966H128.701V277.109H370.678V279.966Z" fill="#7D4B25"/>
<path d="M370.678 327.595H128.701V324.738H370.678V327.595Z" fill="#7D4B25"/>
<path d="M352.443 302.199C354.778 319.59 381.047 332.89 405.066 313.183L384.931 262.095C384.931 262.095 348.414 272.164 352.443 302.199Z" fill="#ED9893"/>
<path d="M146.953 302.199C144.619 319.59 118.35 332.89 94.3311 313.183L114.466 262.095C114.466 262.095 150.983 272.164 146.953 302.199Z" fill="#ED9893"/>
<path d="M217.154 323.92L211.994 323.8C211.701 322.68 211.528 317.64 211.474 308.68V305.84C211.474 303.573 211.688 301.853 212.114 300.68C212.541 299.48 213.434 298.52 214.794 297.8C215.488 297.453 216.448 297.28 217.674 297.28C218.928 297.28 219.888 297.36 220.554 297.52C222.341 297.893 223.554 298.587 224.194 299.6C224.861 300.613 225.194 301.973 225.194 303.68C225.194 306.053 224.568 307.8 223.314 308.92C223.954 309 224.594 309.32 225.234 309.88C225.874 310.44 226.394 311.013 226.794 311.6C227.488 312.667 227.834 314.12 227.834 315.96C227.834 318.84 226.954 320.893 225.194 322.12C223.461 323.32 220.781 323.92 217.154 323.92ZM214.674 304.44L214.754 309C214.808 309 215.261 308.947 216.114 308.84C216.968 308.707 217.688 308.573 218.274 308.44C220.968 307.8 222.314 306.267 222.314 303.84C222.314 302.64 221.954 301.76 221.234 301.2C220.541 300.64 219.621 300.36 218.474 300.36C217.034 300.36 216.061 300.613 215.554 301.12C215.341 301.333 215.168 301.52 215.034 301.68C214.901 301.813 214.808 302.04 214.754 302.36C214.701 302.68 214.661 302.907 214.634 303.04C214.634 303.173 214.634 303.427 214.634 303.8C214.661 304.173 214.674 304.387 214.674 304.44ZM223.674 312.96C223.408 312.667 222.994 312.4 222.434 312.16C221.874 311.92 221.061 311.8 219.994 311.8C218.954 311.8 217.168 311.973 214.634 312.32C214.634 316.48 214.701 319.293 214.834 320.76C217.954 320.76 220.141 320.56 221.394 320.16C222.648 319.733 223.488 319.227 223.914 318.64C224.368 318.027 224.594 317.387 224.594 316.72C224.594 316.027 224.581 315.547 224.554 315.28C224.554 314.987 224.474 314.6 224.314 314.12C224.181 313.613 223.968 313.227 223.674 312.96ZM238.108 305.36C240.028 305.36 241.601 306.28 242.828 308.12C244.081 309.96 244.708 312.173 244.708 314.76C244.708 317.32 244.068 319.507 242.788 321.32C241.534 323.133 239.854 324.04 237.748 324.04C235.668 324.04 233.988 323.12 232.708 321.28C231.428 319.413 230.788 317.347 230.788 315.08C230.788 312.173 231.374 309.853 232.548 308.12C233.801 306.28 235.654 305.36 238.108 305.36ZM237.628 308.64C236.508 308.64 235.588 309.227 234.868 310.4C234.148 311.573 233.788 312.813 233.788 314.12C233.788 316.147 234.188 317.693 234.988 318.76C235.788 319.827 236.694 320.36 237.708 320.36C239.521 320.36 240.681 319.573 241.188 318C241.401 317.253 241.508 316.32 241.508 315.2C241.508 310.827 240.214 308.64 237.628 308.64ZM254.241 305.36C256.161 305.36 257.734 306.28 258.961 308.12C260.214 309.96 260.841 312.173 260.841 314.76C260.841 317.32 260.201 319.507 258.921 321.32C257.667 323.133 255.987 324.04 253.881 324.04C251.801 324.04 250.121 323.12 248.841 321.28C247.561 319.413 246.921 317.347 246.921 315.08C246.921 312.173 247.507 309.853 248.681 308.12C249.934 306.28 251.787 305.36 254.241 305.36ZM253.761 308.64C252.641 308.64 251.721 309.227 251.001 310.4C250.281 311.573 249.921 312.813 249.921 314.12C249.921 316.147 250.321 317.693 251.121 318.76C251.921 319.827 252.827 320.36 253.841 320.36C255.654 320.36 256.814 319.573 257.321 318C257.534 317.253 257.641 316.32 257.641 315.2C257.641 310.827 256.347 308.64 253.761 308.64ZM277.573 322.2C277.573 323.453 277 324.08 275.853 324.08C275.373 324.08 274.72 322.907 273.893 320.56C273.067 318.187 271.96 316.36 270.573 315.08C270.44 315.267 269.867 315.8 268.853 316.68C267.867 317.533 267.28 318.053 267.093 318.24V322.24C267.04 322.64 266.973 322.947 266.893 323.16C266.813 323.373 266.627 323.573 266.333 323.76C266.067 323.947 265.693 324.04 265.213 324.04C264.493 324.04 264.133 323.6 264.133 322.72C264.133 320.24 264.027 316.4 263.813 311.2C263.6 305.973 263.493 301.293 263.493 297.16C263.493 296.653 263.693 296.253 264.093 295.96C264.52 295.667 264.96 295.52 265.413 295.52C266.027 295.52 266.4 295.907 266.533 296.68V303.76C266.533 304.613 266.547 305.253 266.573 305.68C266.6 306.107 266.627 306.747 266.653 307.6C266.707 309.36 266.8 311.347 266.933 313.56C267.707 312.973 268.693 312.053 269.893 310.8C271.12 309.52 272.04 308.427 272.653 307.52C273.613 306 274.493 305.24 275.293 305.24C275.507 305.24 275.72 305.293 275.933 305.4C276.493 305.72 276.773 306.093 276.773 306.52C276.773 306.947 276.587 307.507 276.213 308.2C275.253 309.853 274.147 311.36 272.893 312.72C274.093 314.053 275.293 315.96 276.493 318.44C277.213 320.04 277.573 321.293 277.573 322.2ZM280.575 310.4C280.575 308.827 281.135 307.573 282.255 306.64C283.375 305.707 284.668 305.24 286.135 305.24C287.628 305.24 289.055 305.507 290.415 306.04C291.775 306.573 292.455 307.28 292.455 308.16C292.455 308.613 292.282 308.973 291.935 309.24C291.588 309.507 291.282 309.64 291.015 309.64C290.775 309.64 290.575 309.64 290.415 309.64C290.282 309.613 289.748 309.36 288.815 308.88C287.908 308.4 287.068 308.16 286.295 308.16C285.522 308.16 284.855 308.36 284.295 308.76C283.762 309.133 283.495 309.693 283.495 310.44C283.495 311.187 283.802 311.773 284.415 312.2C285.055 312.627 286.162 313 287.735 313.32C289.308 313.613 290.508 314.04 291.335 314.6C292.188 315.16 292.615 316.2 292.615 317.72C292.615 319.933 292.028 321.507 290.855 322.44C289.708 323.347 288.308 323.8 286.655 323.8C285.002 323.8 283.588 323.573 282.415 323.12C281.268 322.667 280.695 321.987 280.695 321.08C280.695 320.04 281.215 319.52 282.255 319.52C282.522 319.52 283.108 319.707 284.015 320.08C284.922 320.453 285.815 320.64 286.695 320.64C287.602 320.64 288.282 320.36 288.735 319.8C289.215 319.213 289.455 318.547 289.455 317.8C289.455 317.053 289.148 316.52 288.535 316.2C287.922 315.853 286.988 315.573 285.735 315.36C284.482 315.147 283.562 314.92 282.975 314.68C281.375 314.04 280.575 312.613 280.575 310.4Z" fill="white"/>
</svg>
