<svg width="501" height="501" viewBox="0 0 501 501" fill="none" xmlns="http://www.w3.org/2000/svg">
<rect width="501" height="501" rx="20.4143" fill="#EAEBE8"/>
<path d="M385.881 438.604L367.741 473.997L353.794 467.76L328.89 456.624L312.449 449.259L290.581 439.475L323.014 412.858L349.014 423.515L360.407 428.173L364.404 429.812L385.881 438.604Z" fill="#F2F2F2"/>
<path d="M353.791 467.763L367.738 474L385.878 438.606L364.402 429.814L353.791 467.763Z" fill="#574D47"/>
<path d="M209.303 439.475L175.036 454.805L162.126 460.591L146.09 467.76L132.143 473.997L114.003 438.604L135.479 429.811L140.514 427.752L148.901 424.31L176.869 412.858L209.303 439.475Z" fill="#F2F2F2"/>
<path d="M146.087 467.763L132.14 474L114 438.606L135.477 429.814L146.087 467.763Z" fill="#574D47"/>
<path d="M175.036 454.805L162.127 460.592L159.992 437.116L175.036 454.805Z" fill="#574D47"/>
<path d="M149.531 443.428L140.514 427.752L148.9 424.311L149.531 443.428Z" fill="#574D47"/>
<path d="M360.407 428.173L349.014 441.624V423.514L360.407 428.173Z" fill="#574D47"/>
<path d="M328.891 437.116V456.624L312.449 449.26L328.891 437.116Z" fill="#574D47"/>
<path d="M336.357 388.787C336.102 393.16 335.576 397.278 334.75 401.14C332.57 411.36 328.362 419.882 321.719 426.675C308.479 440.216 285.589 446.995 249.94 446.995C214.29 446.995 191.401 440.216 178.175 426.675C171.517 419.882 167.309 411.36 165.144 401.14C164.318 397.278 163.777 393.16 163.521 388.801C163.205 383.407 163.295 377.635 163.777 371.488C164.032 368.136 164.408 364.664 164.874 361.087C165.806 353.873 167.128 346.284 168.721 338.559C170.194 331.39 171.878 324.131 173.696 316.962C178.385 298.386 183.856 280.471 188.289 266.855C193.099 252.051 196.691 242.327 196.691 242.327H303.188C303.188 242.327 306.765 252.05 311.589 266.839C316.022 280.456 321.494 298.386 326.182 316.962V316.977C328.001 324.131 329.699 331.405 331.157 338.559V338.574C332.75 346.284 334.073 353.889 335.004 361.087C335.485 364.664 335.846 368.136 336.102 371.488C336.568 377.635 336.673 383.392 336.357 388.787Z" fill="#F2F2F2"/>
<path d="M363.23 332.398C361.487 331.976 359.548 331.495 357.504 330.954C354.092 330.068 350.35 329.031 346.472 327.859C342.489 326.656 338.357 325.318 334.314 323.846C324.98 320.449 316.098 316.391 310.447 311.807L306.314 259.175C306.314 259.175 313.543 265.788 324.981 274.37C329.445 277.736 334.54 281.373 340.1 285.055C345.691 288.753 367.213 300.641 367.934 300.971C369.107 301.542 372.523 304.276 373.205 305.381C380.304 316.865 369.392 333.9 363.23 332.398Z" fill="#F2F2F2"/>
<path d="M200.464 326.37L168.723 338.559C170.195 331.39 171.879 324.131 173.698 316.962L200.464 326.37Z" fill="#574D47"/>
<path d="M199.832 366.589L168.707 385.631L163.522 388.802C163.206 383.407 163.296 377.635 163.778 371.488C164.033 368.137 164.409 364.665 164.875 361.088L199.832 366.589Z" fill="#574D47"/>
<path d="M359.127 257.401L358.69 258.032L358.706 257.236L359.127 257.401Z" fill="#574D47"/>
<path d="M359.127 257.401L358.69 258.032L358.706 257.236L359.127 257.401Z" fill="#574D47"/>
<path d="M331.156 338.559L299.43 326.37L326.181 316.977C328 324.131 329.698 331.405 331.156 338.559Z" fill="#574D47"/>
<path d="M336.102 371.488C336.568 377.635 336.673 383.391 336.357 388.786L331.187 385.63L300.047 366.588L335.005 361.087C335.486 364.664 335.846 368.137 336.102 371.488Z" fill="#574D47"/>
<path d="M202.692 262.941L187.754 306.48C180.552 305.127 173.99 303.149 168.056 300.746C163.853 299.06 159.966 297.155 156.374 295.102C151.566 292.39 147.292 289.413 143.476 286.369C138.776 282.608 134.799 278.731 131.5 275.057C130.438 273.879 129.439 272.705 128.517 271.585C121.438 262.948 118.346 256.199 118.346 256.199L139.155 231.975C142.21 235.892 145.4 239.299 148.649 242.301C151.985 245.375 155.396 247.986 158.78 250.213C162.806 252.865 166.805 254.976 170.669 256.64C188.126 264.216 202.692 262.941 202.692 262.941Z" fill="#F2F2F2"/>
<path d="M148.648 242.301L128.517 271.585C121.438 262.948 118.346 256.199 118.346 256.199L139.155 231.975C142.209 235.891 145.4 239.299 148.648 242.301Z" fill="#574D47"/>
<path d="M150.876 262.902L143.476 286.369C138.776 282.607 134.799 278.731 131.5 275.057L150.876 262.902Z" fill="#574D47"/>
<path d="M170.668 256.639L158.335 270.522L158.779 250.212C162.805 252.864 166.803 254.975 170.668 256.639Z" fill="#574D47"/>
<path d="M168.055 300.746C163.852 299.06 159.965 297.155 156.373 295.102L167.79 281.292L168.055 300.746Z" fill="#574D47"/>
<path d="M223.167 68.7381C213.299 47.3871 198.288 35.0998 192.103 36.5274C185.918 37.9556 177.812 55.579 178.3 79.095C178.79 102.611 189.423 121.456 189.423 121.456L211.139 112.031L230.993 102.637C230.993 102.637 233.036 90.0891 223.167 68.7381Z" fill="#F2F2F2"/>
<path d="M216.446 71.1498C209.638 56.419 199.281 47.9414 195.014 48.9263C190.746 49.9112 185.154 62.0712 185.491 78.2954C185.828 94.5204 193.165 107.522 193.165 107.522L208.148 101.02L221.846 94.5378C221.845 94.5384 223.254 85.8806 216.446 71.1498Z" fill="#D4D4D4"/>
<path d="M306.344 74.7696C319.19 55.0659 335.816 45.0722 341.73 47.3774C347.645 49.6826 353.124 68.2915 349.247 91.4908C345.371 114.69 332.13 131.805 332.13 131.805L312.001 119.346L293.709 107.185C293.709 107.185 293.498 94.4733 306.344 74.7696Z" fill="#F2F2F2"/>
<path d="M312.649 78.1263C321.511 64.5316 332.982 57.6367 337.063 59.2271C341.145 60.8176 344.924 73.6568 342.25 89.6632C339.575 105.67 330.439 117.477 330.439 117.477L316.552 108.882L303.932 100.491C303.932 100.491 303.786 91.7203 312.649 78.1263Z" fill="#D4D4D4"/>
<path d="M365.001 204.103C364.875 205.843 364.706 207.548 364.494 209.22C364.401 210.088 364.28 210.938 364.158 211.773C362.972 219.824 360.884 226.996 358.012 233.357C355.699 238.449 352.88 243.036 349.614 247.139C329.51 272.322 292.347 276.943 250.106 273.88C207.879 270.818 171.772 260.885 155.511 233.064C152.856 228.532 150.742 223.587 149.189 218.2C147.059 210.798 146.016 202.539 146.257 193.396C146.288 191.71 146.367 189.998 146.493 188.259C146.826 183.672 147.437 179.196 148.311 174.829C149.792 167.297 152.06 160.123 155.008 153.33L155.01 153.315C157.814 146.843 161.241 140.732 165.21 135.053C169.16 129.403 173.639 124.167 178.594 119.418C200.206 98.5931 230.658 86.9682 263.487 89.3484C266.845 89.592 270.161 89.983 273.408 90.5052C302.024 95.0665 326.631 110.036 343.17 131.321C347.388 136.751 351.064 142.578 354.157 148.754C357.265 154.947 359.774 161.487 361.616 168.297C363.554 175.445 364.761 182.9 365.154 190.569C365.374 195.014 365.332 199.532 365.001 204.103Z" fill="#F2F2F2"/>
<path d="M212.255 173.289C214.278 167.664 211.358 161.465 205.734 159.441C200.109 157.418 193.909 160.337 191.886 165.962C189.863 171.586 192.782 177.785 198.407 179.809C204.032 181.832 210.231 178.913 212.255 173.289Z" fill="black"/>
<path d="M312.681 188.507C318.659 188.507 323.504 183.661 323.504 177.684C323.504 171.707 318.659 166.861 312.681 166.861C306.704 166.861 301.858 171.707 301.858 177.684C301.858 183.661 306.704 188.507 312.681 188.507Z" fill="black"/>
<path d="M349.609 247.143C329.504 272.326 292.165 279.368 249.924 276.305C207.698 273.243 171.766 260.888 155.505 233.067C162.95 205.821 205.881 187.325 256.112 190.968C306.358 194.611 346.172 219.107 349.609 247.143Z" fill="#574D47"/>
<path d="M237.575 202.664C237.79 199.705 235.565 197.132 232.606 196.918C229.646 196.703 227.074 198.928 226.859 201.887C226.644 204.847 228.87 207.419 231.829 207.634C234.787 207.848 237.361 205.623 237.575 202.664Z" fill="black"/>
<path d="M283.501 205.994C283.716 203.035 281.491 200.463 278.531 200.248C275.572 200.033 272.999 202.258 272.785 205.218C272.57 208.177 274.795 210.75 277.754 210.964C280.714 211.179 283.286 208.954 283.501 205.994Z" fill="black"/>
<path d="M257.562 245.679C255.821 245.679 254.025 245.617 252.165 245.482C227.069 243.662 214.541 230.358 214.02 229.792C213.177 228.877 213.235 227.45 214.15 226.606C215.066 225.763 216.493 225.824 217.336 226.736C217.45 226.858 229.271 239.301 252.491 240.985C275.717 242.651 289.205 232.063 289.339 231.955C290.309 231.177 291.728 231.328 292.508 232.295C293.288 233.262 293.14 234.678 292.176 235.461C291.622 235.909 279.304 245.679 257.562 245.679Z" fill="black"/>
<path d="M194.211 144.057L165.961 135.288L165.209 135.053C169.16 129.403 173.638 124.167 178.594 119.418L194.211 144.057Z" fill="#574D47"/>
<path d="M181.6 169.799L152.348 174.217L148.311 174.829C149.791 167.297 152.059 160.123 155.008 153.329L156.45 154.217L181.6 169.799Z" fill="#574D47"/>
<path d="M176.869 191.426L155.608 211.99L149.19 218.2C147.06 210.797 146.017 202.539 146.258 193.395L147.348 193.323L176.869 191.426Z" fill="#574D47"/>
<path d="M354.158 148.754L353.351 148.876L324.131 153.478L343.172 131.321C347.389 136.75 351.065 142.577 354.158 148.754Z" fill="#574D47"/>
<path d="M365.153 190.568L361.202 189.362L332.894 180.77L360.028 168.98L361.614 168.296C363.553 175.443 364.76 182.9 365.153 190.568Z" fill="#574D47"/>
<path d="M364.494 209.221C364.401 210.088 364.28 210.938 364.158 211.773C362.972 219.824 360.884 226.996 358.012 233.358L352.544 226.271L334.472 202.854L363.395 208.99L364.494 209.221Z" fill="#574D47"/>
<path d="M285.803 44.8699L276.184 56.297L276.116 42.838C273.209 42.3631 270.142 41.9837 266.952 41.7517C266.951 41.7517 266.949 41.7517 266.947 41.751C266.945 41.751 266.943 41.751 266.941 41.7504C262.464 41.4266 258.184 41.424 254.225 41.6186L252.313 54.5695L244.767 42.4839C235.692 43.6969 229.855 45.5853 229.855 45.5853C247.181 74.2584 247.591 112.276 247.591 112.276L261.759 113.303L275.926 114.331C275.926 114.331 281.816 76.7704 303.097 50.8969C303.096 50.8969 296.331 47.5654 285.803 44.8699Z" fill="#574D47"/>
<path d="M356.823 274.565H143.053V283.775L148.679 286.183L143.053 288.32V318.368V324.234L152.516 328.019L143.053 330.993V335.699L148.295 340.269L143.053 341.91V362.171V371.098L152.133 374.125L143.053 378.297V395.896L147.528 397.149L143.053 399.655V405.974H356.823V396.429L346.681 392.927L356.823 390.792V378.546L346.681 373.741L356.823 369.738V362.171V353.327L350.518 350.659L356.823 349.236V334.771L345.913 331.473L356.823 328.175V318.368V310.715L344.762 308.007L356.823 304.562V298.626L349.367 294.193L356.823 289.588V274.565Z" fill="#A86531"/>
<path d="M202.521 315.77C218.911 312.127 227.778 308.175 229.622 303.688C230.708 301.049 229.214 298.725 228.122 297.029L227.913 296.704C225.277 292.563 210.063 291.274 190.926 293.573C176.498 295.304 158.418 294.558 143.053 292.763V293.519C158.454 295.311 176.56 296.054 191.015 294.318C209.579 292.09 224.833 293.262 227.279 297.107L227.491 297.436C228.547 299.08 229.864 301.126 228.927 303.402C227.206 307.587 218.266 311.501 202.356 315.037L195.886 316.47C178.867 320.232 164.576 323.4 151.604 327.654L152.517 328.019L143.053 330.993V331.517C158.318 325.558 175.117 321.83 196.049 317.203L202.521 315.77Z" fill="#8F562A"/>
<path d="M166.309 316.127C172.014 314.052 177.634 312.728 182.59 311.558C189.711 309.88 194.857 308.667 195.99 306.171C196.364 305.345 196.281 304.41 195.741 303.389C193.896 299.902 182.039 301.267 167.022 302.996C159.187 303.898 150.741 304.866 143.053 305.19V305.941C150.778 305.617 159.249 304.647 167.109 303.743C180.666 302.181 193.472 300.707 195.078 303.741C195.509 304.555 195.584 305.249 195.306 305.861C194.326 308.02 189.072 309.259 182.419 310.828C177.442 312.001 171.8 313.33 166.054 315.42C157.9 318.385 150.108 320.494 143.053 322.107V322.878C150.175 321.256 158.056 319.128 166.309 316.127Z" fill="#8F562A"/>
<path d="M167.791 336.198C177.644 330.667 188.811 324.397 211.465 320.584C228.587 317.701 240.067 312.71 244.667 306.149C246.626 303.352 247.329 300.344 246.754 297.208C245.101 288.21 213.264 285.432 193.552 285.801C180.974 286.038 160.031 285.003 143.053 280.725V281.492C160.095 285.752 180.996 286.786 193.567 286.552C213.815 286.17 244.548 289.346 246.014 297.342C246.551 300.274 245.891 303.091 244.05 305.717C239.569 312.11 228.258 316.994 211.338 319.842C188.556 323.677 177.329 329.981 167.422 335.543C164.918 336.949 162.554 338.277 160.129 339.485C156.026 341.53 149.704 343.696 143.053 345.712V346.497C149.819 344.452 156.276 342.245 160.464 340.157C162.905 338.941 165.278 337.609 167.791 336.198Z" fill="#8F562A"/>
<path d="M356.824 286.917C334.587 284.195 317.536 279.61 302.22 274.565H299.825C315.756 279.909 333.428 284.82 356.824 287.675V286.917Z" fill="#8F562A"/>
<path d="M259.649 392.891C256.189 394.496 252.286 396.489 247.768 398.795C243.443 401.004 238.663 403.445 233.429 405.974H235.149C239.847 403.685 244.167 401.478 248.11 399.465C252.622 397.162 256.517 395.172 259.967 393.573C290.522 379.403 322.349 371.223 356.824 368.705V367.951C322.237 370.471 290.305 378.674 259.649 392.891Z" fill="#8F562A"/>
<path d="M229.639 326.509C251.044 325.66 262.385 317.046 262.437 301.599C262.498 283.649 211.119 276.004 198.398 275.073C196.446 274.93 194.181 274.8 191.664 274.655C191.172 274.626 190.639 274.594 190.127 274.565H178.897C183.553 274.933 187.875 275.188 191.621 275.404C194.133 275.55 196.393 275.679 198.342 275.822C210.924 276.743 261.745 284.222 261.685 301.596C261.633 316.787 250.843 324.915 229.61 325.757C210.023 326.532 190.14 334.199 180.622 341.371C174.553 345.944 162.163 350.232 143.053 354.348V355.113C162.369 350.957 174.912 346.615 181.074 341.972C190.501 334.87 210.207 327.278 229.639 326.509Z" fill="#8F562A"/>
<path d="M269.955 340.171C291.787 331.455 304.529 328.139 356.823 326.623V325.871C304.39 327.391 291.602 330.72 269.676 339.472C263.023 342.129 252.713 348.43 239.659 356.408C214.68 371.674 179.041 393.446 143.053 404.754V405.543C179.206 394.227 214.986 372.368 240.051 357.049C253.073 349.09 263.36 342.803 269.955 340.171Z" fill="#8F562A"/>
<path d="M249.561 384.277C260.224 378.958 268.644 374.757 273.604 373.076C276.856 371.974 279.906 370.846 283.133 369.652C299.297 363.674 315.965 357.513 356.825 354.951V354.204C315.683 356.816 298.342 363.227 282.872 368.947C279.649 370.14 276.605 371.265 273.363 372.365C268.355 374.062 259.915 378.273 249.227 383.605C236.009 390.199 219.457 398.454 201.485 405.974H203.416C220.77 398.634 236.735 390.676 249.561 384.277Z" fill="#8F562A"/>
<path d="M234.653 331.517C257.216 326.91 281.257 320.027 280.88 296.53C280.696 285.079 266.523 278.557 249.019 274.565H245.544C264.25 278.402 279.94 284.822 280.128 296.541C280.497 319.466 257.792 326.026 234.503 330.781C211.44 335.49 202.688 337.719 187.438 349.514C177.252 357.393 162.138 362.742 143.053 365.357V366.113C162.32 363.482 177.593 358.078 187.899 350.107C203.017 338.415 211.717 336.2 234.653 331.517Z" fill="#8F562A"/>
<path d="M356.824 340.328V339.577C303.808 340.465 285.493 344.744 264.268 359.864C250.377 369.759 208.664 392.035 168.854 405.974H171.074C210.375 391.966 251.018 370.226 264.705 360.475C285.776 345.464 304.008 341.214 356.824 340.328Z" fill="#8F562A"/>
<path d="M177.357 367.902C181.185 365.915 185.317 363.602 189.689 361.153C203.923 353.182 221.638 343.26 241.755 337.594C261.712 331.973 266.885 327.536 276.277 319.484C279.337 316.86 282.807 313.886 287.391 310.336C301.74 299.222 313.07 300.542 340.435 303.73C344.711 304.229 349.272 304.76 354.254 305.295L356.186 304.744C350.486 304.143 345.316 303.542 340.523 302.984C312.941 299.772 301.524 298.441 286.931 309.742C282.333 313.304 278.857 316.284 275.789 318.914C266.478 326.897 261.35 331.294 241.554 336.871C221.349 342.562 203.592 352.507 189.323 360.498C184.955 362.944 180.829 365.254 177.012 367.237C168.331 371.744 156.955 375.657 143.053 378.949V379.722C157.097 376.404 168.588 372.456 177.357 367.902Z" fill="#8F562A"/>
<path d="M285.925 400.573C284.64 401 283.335 401.433 281.999 401.872C279.193 402.792 275.551 404.209 271.21 405.974H273.209C276.788 404.535 279.819 403.377 282.234 402.585C283.57 402.147 284.876 401.713 286.161 401.286C303.529 395.52 316.961 391.072 351.528 391.906L354.69 391.24C317.638 390.048 303.885 394.61 285.925 400.573Z" fill="#8F562A"/>
<path d="M288.582 321.378C276.092 329.495 249.198 342.184 229.853 349.087C223.919 351.204 213.778 356.486 202.035 362.602C184.469 371.749 162.427 383.227 143.053 390.133V390.928C162.546 384.011 184.72 372.465 202.381 363.269C214.101 357.165 224.222 351.894 230.106 349.794C249.496 342.875 276.462 330.151 288.992 322.008C301.146 314.108 314.512 313.92 356.824 314.182V313.431C314.349 313.17 300.921 313.359 288.582 321.378Z" fill="#8F562A"/>
<path d="M356.823 298.626L356.375 298.36C323.323 293.72 296.385 285.919 276.239 275.117C275.876 274.921 275.537 274.753 275.179 274.565H273.552C274.323 274.963 275.084 275.349 275.884 275.779C296.22 286.683 323.429 294.542 356.823 299.184V298.626Z" fill="#8F562A"/>
<path d="M356.824 316.865H143.053V319.87H356.824V316.865Z" fill="#7D4B25"/>
<path d="M356.824 360.667H143.053V363.673H356.824V360.667Z" fill="#7D4B25"/>
<path d="M377.6 317.529C377.479 319.588 377.044 321.827 376.247 324.232C375.42 326.711 373.948 328.936 372.054 330.905C369.304 333.821 365.637 336.195 361.819 338.089C352.667 342.673 347.933 311.021 352.186 310.3C365.787 307.986 367.936 300.967 367.936 300.967C373.512 303.597 378.111 309.112 377.6 317.529Z" fill="#F2F2F2"/>
<path d="M361.822 338.092C352.667 342.67 342.745 344.493 342.745 344.493L336.216 311.008C342.672 311.372 347.925 311.026 352.193 310.297L361.822 338.092Z" fill="#574D47"/>
<path d="M377.599 317.529C377.479 319.588 377.044 321.827 376.247 324.232C375.42 326.711 373.947 328.936 372.054 330.905C369.168 323.33 365.486 313.862 365.306 313.381L377.599 317.529Z" fill="#574D47"/>
<path d="M196.108 310.68C198.188 311.027 200.095 311.2 201.828 311.2C203.561 311.2 204.668 311.187 205.148 311.16C205.095 309.133 205.068 307.187 205.068 305.32C205.068 303.453 205.068 302.187 205.068 301.52C205.068 300.853 205.095 300.44 205.148 300.28C205.201 300.093 205.375 299.92 205.668 299.76C205.961 299.6 206.388 299.52 206.948 299.52C207.748 299.52 208.148 300 208.148 300.96V315.12C208.148 318.053 208.081 321.28 207.948 324.8C207.921 325.573 207.268 325.96 205.988 325.96C205.348 325.96 205.028 325.573 205.028 324.8L205.188 314.2C204.335 314.253 203.161 314.28 201.668 314.28C200.201 314.28 198.348 314.12 196.108 313.8C196.108 317.32 196.268 321 196.588 324.84C196.615 325.267 196.428 325.6 196.028 325.84C195.628 326.053 195.121 326.16 194.508 326.16C193.921 326.16 193.601 325.853 193.548 325.24C193.201 321.453 193.028 317.72 193.028 314.04L193.268 301.56C193.268 301.027 193.468 300.64 193.868 300.4C194.268 300.133 194.695 300 195.148 300C195.895 300 196.268 300.36 196.268 301.08L196.108 310.68ZM223.819 307.52C224.166 307.52 224.499 307.64 224.819 307.88C225.166 308.12 225.339 308.387 225.339 308.68C225.339 309.453 224.206 313.64 221.939 321.24C219.672 328.84 217.992 334.173 216.899 337.24C216.659 337.96 216.286 338.32 215.779 338.32C215.272 338.32 214.872 338.133 214.579 337.76C214.286 337.413 214.139 336.893 214.139 336.2C214.139 335.507 214.579 333.84 215.459 331.2C216.366 328.587 216.912 326.92 217.099 326.2C216.432 325.08 214.179 319.48 210.339 309.4C210.286 309.267 210.259 309.093 210.259 308.88C210.259 308.667 210.419 308.387 210.739 308.04C211.059 307.693 211.499 307.52 212.059 307.52C212.619 307.52 213.072 307.8 213.419 308.36C213.792 309.32 214.406 311 215.259 313.4C216.112 315.773 216.766 317.493 217.219 318.56C217.699 319.627 218.152 320.733 218.579 321.88C218.952 320.627 219.592 318.2 220.499 314.6C221.406 310.973 221.926 308.907 222.059 308.4C222.166 307.813 222.752 307.52 223.819 307.52ZM239.453 324.36C238.493 325.48 237.28 326.04 235.813 326.04C234.346 326.04 233.08 325.587 232.013 324.68C229.773 322.947 228.653 320.293 228.653 316.72C228.653 313.92 229.426 311.68 230.973 310C232.52 308.293 234.426 307.44 236.693 307.44C238.96 307.44 240.506 308.213 241.333 309.76C242.053 311.12 242.413 313.173 242.413 315.92L242.333 319.2C242.333 320.747 242.4 322.893 242.533 325.64C242.693 328.36 242.773 330.413 242.773 331.8C242.773 334.093 242.2 335.773 241.053 336.84C239.933 337.933 238.213 338.48 235.893 338.48C234.506 338.48 233.093 338.187 231.653 337.6C230.213 337.013 229.493 336.333 229.493 335.56C229.493 335 229.64 334.573 229.933 334.28C230.253 333.987 230.613 333.84 231.013 333.84C231.413 333.84 232.306 334.133 233.693 334.72C235.106 335.307 236.12 335.6 236.733 335.6C238.653 335.6 239.613 334.027 239.613 330.88C239.613 327.733 239.56 325.56 239.453 324.36ZM239.413 315.92C239.413 313.973 239.12 312.613 238.533 311.84C237.973 311.04 237.08 310.64 235.853 310.64C234.626 310.64 233.64 311.2 232.893 312.32C232.146 313.44 231.773 314.867 231.773 316.6C231.773 318.307 232.12 319.667 232.813 320.68C233.533 321.693 234.626 322.2 236.093 322.2C237.56 322.2 238.506 321.573 238.933 320.32C239.253 319.307 239.413 317.84 239.413 315.92ZM248.426 300.72C248.906 300.72 249.359 300.947 249.786 301.4C250.212 301.853 250.426 302.333 250.426 302.84C250.426 303.32 250.186 303.813 249.706 304.32C249.252 304.827 248.772 305.08 248.266 305.08C247.759 305.08 247.292 304.867 246.866 304.44C246.466 304.013 246.266 303.467 246.266 302.8C246.266 301.52 246.959 300.827 248.346 300.72C248.372 300.72 248.399 300.72 248.426 300.72ZM250.106 321.68L250.146 324.48C250.146 324.987 249.946 325.413 249.546 325.76C249.146 326.08 248.719 326.24 248.266 326.24C247.599 326.24 247.252 325.907 247.226 325.24C246.879 316.733 246.706 312.027 246.706 311.12C246.706 310.213 246.746 309.107 246.826 307.8C246.879 307.32 247.186 307.08 247.746 307.08C249.159 307.08 249.959 307.653 250.146 308.8C250.226 309.387 250.266 309.853 250.266 310.2L250.106 312.72V321.68ZM260.491 307.48C261.904 307.48 263.251 307.893 264.531 308.72C265.811 309.547 266.451 310.573 266.451 311.8C266.451 313 265.931 314.173 264.891 315.32C263.851 316.44 262.464 317.12 260.731 317.36C259.984 317.467 258.864 317.52 257.371 317.52C257.664 319.787 258.238 321.28 259.091 322C259.358 322.293 259.718 322.44 260.171 322.44C261.824 322.44 263.211 321.92 264.331 320.88C265.451 319.813 266.251 319.28 266.731 319.28C266.944 319.28 267.264 319.48 267.691 319.88C268.118 320.28 268.331 320.653 268.331 321C268.331 321.693 267.491 322.693 265.811 324C265.064 324.613 264.158 325.133 263.091 325.56C262.051 325.96 261.078 326.16 260.171 326.16C257.851 326.16 256.144 324.667 255.051 321.68C254.358 319.84 254.011 317.813 254.011 315.6C254.011 313.387 254.531 311.48 255.571 309.88C256.611 308.28 258.251 307.48 260.491 307.48ZM260.691 310.24C259.678 310.24 258.811 310.813 258.091 311.96C257.824 312.36 257.571 313.267 257.331 314.68C261.064 314.68 262.931 313.76 262.931 311.92C262.931 310.8 262.184 310.24 260.691 310.24ZM272.188 324.76L271.748 308.52C271.748 308.013 271.922 307.6 272.268 307.28C272.615 306.96 272.962 306.8 273.308 306.8C274.162 306.8 274.655 307.16 274.788 307.88C274.895 308.6 274.948 309.347 274.948 310.12C276.388 308.227 278.188 307.28 280.348 307.28C283.655 307.28 285.308 311.053 285.308 318.6C285.308 319.293 285.308 320.347 285.308 321.76C285.308 323.147 285.228 324.16 285.068 324.8C284.882 325.6 284.308 326 283.348 326C282.708 326 282.388 325.573 282.388 324.72L282.428 322.48C282.428 319.387 282.322 317.28 282.108 316.16C281.922 315.013 281.735 314.107 281.548 313.44C281.095 312 280.362 311.28 279.348 311.28C278.015 311.28 277.082 311.76 276.548 312.72C275.962 313.76 275.615 314.987 275.508 316.4C275.322 318.88 275.228 321.507 275.228 324.28C275.228 324.813 275.028 325.24 274.628 325.56C274.228 325.88 273.748 326.04 273.188 326.04C272.522 326.04 272.188 325.613 272.188 324.76ZM294.514 307.48C295.928 307.48 297.274 307.893 298.554 308.72C299.834 309.547 300.474 310.573 300.474 311.8C300.474 313 299.954 314.173 298.914 315.32C297.874 316.44 296.488 317.12 294.754 317.36C294.008 317.467 292.888 317.52 291.394 317.52C291.688 319.787 292.261 321.28 293.114 322C293.381 322.293 293.741 322.44 294.194 322.44C295.848 322.44 297.234 321.92 298.354 320.88C299.474 319.813 300.274 319.28 300.754 319.28C300.968 319.28 301.288 319.48 301.714 319.88C302.141 320.28 302.354 320.653 302.354 321C302.354 321.693 301.514 322.693 299.834 324C299.088 324.613 298.181 325.133 297.114 325.56C296.074 325.96 295.101 326.16 294.194 326.16C291.874 326.16 290.168 324.667 289.074 321.68C288.381 319.84 288.034 317.813 288.034 315.6C288.034 313.387 288.554 311.48 289.594 309.88C290.634 308.28 292.274 307.48 294.514 307.48ZM294.714 310.24C293.701 310.24 292.834 310.813 292.114 311.96C291.848 312.36 291.594 313.267 291.354 314.68C295.088 314.68 296.954 313.76 296.954 311.92C296.954 310.8 296.208 310.24 294.714 310.24ZM185.764 375.92C185.578 373.173 185.484 369.467 185.484 364.8C185.484 360.107 185.551 357.067 185.684 355.68C185.818 354.827 186.404 354.267 187.444 354C188.484 353.707 189.858 353.56 191.564 353.56C194.071 353.56 196.178 354.107 197.884 355.2C199.618 356.267 200.484 357.853 200.484 359.96C200.484 361.693 200.244 363.147 199.764 364.32C199.284 365.467 198.684 366.32 197.964 366.88C196.791 367.787 195.058 368.24 192.764 368.24C191.778 368.24 190.484 368.107 188.884 367.84C189.018 373.173 189.071 376.533 189.044 377.92C189.018 379.307 188.551 380 187.644 380C187.058 380 186.684 379.893 186.524 379.68C186.364 379.467 186.258 379.32 186.204 379.24C186.151 379.133 186.098 378.987 186.044 378.8C185.991 378.613 185.951 378.467 185.924 378.36C185.898 378.227 185.871 378.04 185.844 377.8C185.844 377.56 185.831 377.373 185.804 377.24C185.778 376.84 185.764 376.4 185.764 375.92ZM197.164 360.08C197.164 358.987 196.578 358.133 195.404 357.52C194.231 356.88 192.978 356.56 191.644 356.56C190.311 356.56 189.378 356.68 188.844 356.92C188.738 358.493 188.684 359.947 188.684 361.28C188.684 362.587 188.738 363.773 188.844 364.84C189.564 364.92 190.058 364.987 190.324 365.04C191.018 365.12 191.604 365.16 192.084 365.16C192.591 365.16 192.924 365.16 193.084 365.16C193.271 365.133 193.604 365.093 194.084 365.04C194.591 364.96 194.951 364.84 195.164 364.68C195.378 364.52 195.644 364.307 195.964 364.04C196.284 363.773 196.511 363.467 196.644 363.12C196.991 362.16 197.164 361.147 197.164 360.08ZM209.422 374.16L209.462 378.28C209.462 378.76 209.236 379.2 208.782 379.6C208.356 380 207.929 380.2 207.502 380.2C206.889 380.2 206.502 379.72 206.342 378.76C206.316 378.547 206.209 376.6 206.022 372.92C205.836 369.213 205.476 366.307 204.942 364.2C204.702 363.187 204.582 362.587 204.582 362.4C204.582 361.52 205.116 361.08 206.182 361.08C206.636 361.08 206.996 361.253 207.262 361.6C207.529 361.947 207.689 362.307 207.742 362.68C207.822 363.027 207.889 363.507 207.942 364.12C207.996 364.733 208.036 365.12 208.062 365.28C208.622 363.947 209.462 362.947 210.582 362.28C211.702 361.613 212.929 361.28 214.262 361.28C216.449 361.28 217.542 361.84 217.542 362.96C217.542 363.52 217.342 363.973 216.942 364.32C216.569 364.64 216.129 364.8 215.622 364.8C213.356 364.8 211.756 365.52 210.822 366.96C209.889 368.4 209.422 370.8 209.422 374.16ZM226.733 361.36C228.653 361.36 230.226 362.28 231.453 364.12C232.706 365.96 233.333 368.173 233.333 370.76C233.333 373.32 232.693 375.507 231.413 377.32C230.159 379.133 228.479 380.04 226.373 380.04C224.293 380.04 222.613 379.12 221.333 377.28C220.053 375.413 219.413 373.347 219.413 371.08C219.413 368.173 219.999 365.853 221.173 364.12C222.426 362.28 224.279 361.36 226.733 361.36ZM226.253 364.64C225.133 364.64 224.213 365.227 223.493 366.4C222.773 367.573 222.413 368.813 222.413 370.12C222.413 372.147 222.813 373.693 223.613 374.76C224.413 375.827 225.319 376.36 226.333 376.36C228.146 376.36 229.306 375.573 229.813 374C230.026 373.253 230.133 372.32 230.133 371.2C230.133 366.827 228.839 364.64 226.253 364.64ZM245.346 361.28L245.306 353.56C245.306 352.12 245.759 351.4 246.666 351.4C247.599 351.4 248.119 351.8 248.226 352.6C248.279 352.947 248.346 355.04 248.426 358.88C248.506 362.72 248.626 366.32 248.786 369.68C248.972 373.04 249.066 376.173 249.066 379.08C249.066 379.88 248.466 380.28 247.266 380.28C246.466 380.28 246.066 379.72 246.066 378.6C244.919 379.507 243.559 379.96 241.986 379.96C239.986 379.96 238.359 379.213 237.106 377.72C235.879 376.227 235.266 374.387 235.266 372.2C235.266 370.013 235.706 367.973 236.586 366.08C237.492 364.16 238.892 362.787 240.786 361.96C241.959 361.453 243.092 361.2 244.186 361.2C244.586 361.2 244.972 361.227 245.346 361.28ZM245.546 366.76C245.359 366.173 245.132 365.733 244.866 365.44C244.599 365.12 244.306 364.933 243.986 364.88C243.692 364.8 243.332 364.76 242.906 364.76C242.479 364.76 241.959 364.92 241.346 365.24C240.732 365.56 240.212 366.08 239.786 366.8C238.932 368.24 238.506 369.76 238.506 371.36C238.506 372.933 238.812 374.227 239.426 375.24C240.066 376.227 240.959 376.72 242.106 376.72C243.279 376.72 244.199 376.147 244.866 375C245.532 373.853 245.866 372.387 245.866 370.6C245.866 368.6 245.759 367.32 245.546 366.76ZM251.292 362.88C251.398 362.427 251.625 362.053 251.972 361.76C252.318 361.44 252.665 361.28 253.012 361.28C253.385 361.28 253.665 361.347 253.852 361.48C254.065 361.613 254.185 361.733 254.212 361.84C254.265 361.947 254.318 362.133 254.372 362.4C254.212 364.48 254.132 366.36 254.132 368.04C254.132 369.693 254.332 371.6 254.732 373.76C255.132 375.893 255.572 376.96 256.052 376.96C256.772 376.96 257.678 376.56 258.772 375.76C259.892 374.96 260.692 374.12 261.172 373.24C260.852 369.4 260.692 366.107 260.692 363.36C260.692 362.8 260.865 362.32 261.212 361.92C261.585 361.52 262.025 361.32 262.532 361.32C263.358 361.32 263.772 361.88 263.772 363C263.772 364.893 263.905 367.707 264.172 371.44C264.465 375.173 264.758 377.547 265.052 378.56C265.105 378.773 265.132 379.027 265.132 379.32C265.132 379.587 264.945 379.84 264.572 380.08C264.225 380.347 263.758 380.48 263.172 380.48C262.612 380.48 262.238 380.16 262.052 379.52C261.998 378.987 261.865 378.187 261.652 377.12C259.785 379.067 257.905 380.04 256.012 380.04C255.132 380.04 254.345 379.707 253.652 379.04C252.958 378.373 252.412 377.467 252.012 376.32C251.318 374.107 250.972 372.027 250.972 370.08C250.972 368.133 251.078 365.733 251.292 362.88ZM266.827 370.64C266.827 368.853 267.294 367.227 268.227 365.76C269.187 364.293 270.401 363.2 271.867 362.48C273.334 361.733 274.761 361.36 276.147 361.36C277.534 361.36 278.641 361.533 279.467 361.88C280.321 362.2 280.747 362.64 280.747 363.2C280.747 363.733 280.587 364.28 280.267 364.84C279.974 365.373 279.574 365.64 279.067 365.64C278.881 365.64 278.361 365.493 277.507 365.2C276.681 364.88 276.147 364.72 275.907 364.72C274.361 364.72 273.041 365.293 271.947 366.44C270.854 367.56 270.307 369.053 270.307 370.92C270.307 372.787 270.601 374.187 271.187 375.12C271.801 376.027 272.841 376.48 274.307 376.48C274.894 376.48 275.894 376.147 277.307 375.48C278.747 374.787 279.641 374.44 279.987 374.44C280.334 374.44 280.614 374.547 280.827 374.76C281.041 374.973 281.147 375.24 281.147 375.56C281.147 376.2 280.734 376.88 279.907 377.6C279.107 378.293 278.107 378.88 276.907 379.36C275.707 379.813 274.627 380.04 273.667 380.04C271.534 380.04 269.854 379.2 268.627 377.52C267.427 375.84 266.827 373.547 266.827 370.64ZM283.895 361.32L285.895 361.36C286.348 361.36 286.602 361.347 286.655 361.32V353.12C286.682 352.667 286.908 352.28 287.335 351.96C287.762 351.64 288.162 351.48 288.535 351.48C288.908 351.48 289.202 351.6 289.415 351.84C289.655 352.08 289.762 352.453 289.735 352.96C289.708 353.467 289.695 356.24 289.695 361.28L294.375 361.12C295.175 361.12 295.575 361.587 295.575 362.52C295.575 363.213 295.362 363.733 294.935 364.08C294.535 364.427 294.095 364.613 293.615 364.64C293.162 364.667 292.708 364.68 292.255 364.68L289.815 364.64C289.815 365.733 289.922 367.893 290.135 371.12C290.375 374.347 290.562 376.44 290.695 377.4C290.828 378.333 290.855 378.947 290.775 379.24C290.695 379.507 290.548 379.693 290.335 379.8C289.988 379.96 289.522 380.04 288.935 380.04C288.348 380.04 288.002 379.72 287.895 379.08C287.362 375.587 287.002 370.787 286.815 364.68C286.575 364.707 285.655 364.72 284.055 364.72C282.455 364.72 281.655 364.253 281.655 363.32C281.655 361.987 282.402 361.32 283.895 361.32ZM297.325 366.4C297.325 364.827 297.885 363.573 299.005 362.64C300.125 361.707 301.418 361.24 302.885 361.24C304.378 361.24 305.805 361.507 307.165 362.04C308.525 362.573 309.205 363.28 309.205 364.16C309.205 364.613 309.032 364.973 308.685 365.24C308.338 365.507 308.032 365.64 307.765 365.64C307.525 365.64 307.325 365.64 307.165 365.64C307.032 365.613 306.498 365.36 305.565 364.88C304.658 364.4 303.818 364.16 303.045 364.16C302.272 364.16 301.605 364.36 301.045 364.76C300.512 365.133 300.245 365.693 300.245 366.44C300.245 367.187 300.552 367.773 301.165 368.2C301.805 368.627 302.912 369 304.485 369.32C306.058 369.613 307.258 370.04 308.085 370.6C308.938 371.16 309.365 372.2 309.365 373.72C309.365 375.933 308.778 377.507 307.605 378.44C306.458 379.347 305.058 379.8 303.405 379.8C301.752 379.8 300.338 379.573 299.165 379.12C298.018 378.667 297.445 377.987 297.445 377.08C297.445 376.04 297.965 375.52 299.005 375.52C299.272 375.52 299.858 375.707 300.765 376.08C301.672 376.453 302.565 376.64 303.445 376.64C304.352 376.64 305.032 376.36 305.485 375.8C305.965 375.213 306.205 374.547 306.205 373.8C306.205 373.053 305.898 372.52 305.285 372.2C304.672 371.853 303.738 371.573 302.485 371.36C301.232 371.147 300.312 370.92 299.725 370.68C298.125 370.04 297.325 368.613 297.325 366.4Z" fill="white"/>
</svg>
