<svg width="500" height="500" viewBox="0 0 500 500" fill="none" xmlns="http://www.w3.org/2000/svg">
<g clip-path="url(#clip0_9_1767)">
<rect width="501" height="501" rx="20.4143" fill="#E7E7E7"/>
<path d="M400.616 230.362L356.225 180.8C367.046 177.188 362.093 158.631 362.093 158.631C353.426 163.145 350.837 169.376 350.291 174.175L323.754 144.547C333.356 140.325 329.035 126.314 329.035 126.314C321.745 128.946 319.441 134.547 318.833 139.052L289.254 106.028C300.566 102.227 294.496 86.2372 294.496 86.2372C286.615 89.8944 284.176 95.3569 283.625 99.7433L252.84 65.373C251.199 63.5423 248.043 63.5423 246.403 65.373L215.619 99.7409C215.066 95.3553 212.629 89.8936 204.749 86.2364C204.749 86.2364 198.679 102.225 209.99 106.026L180.411 139.05C179.804 134.544 177.5 128.945 170.21 126.313C170.21 126.313 165.888 140.323 175.489 144.546L148.953 174.173C148.406 169.375 145.816 163.144 137.152 158.631C137.152 158.631 132.198 177.186 143.018 180.8L98.6261 230.362C97.0358 232.138 97.1851 234.87 98.9632 236.463C100.741 238.056 103.469 237.902 105.064 236.126L158.028 176.992C162.458 190.014 175.356 185.141 175.356 185.141C173.081 177.177 166.545 173.971 161.89 172.679L196.289 134.275C202.72 145.736 215.066 138.447 215.066 138.447C211.717 130.369 206.034 128.489 201.478 128.481L249.621 74.7306L297.764 128.481C293.209 128.489 287.527 130.369 284.179 138.447C284.179 138.447 296.524 145.735 302.955 134.276L337.351 172.68C332.697 173.972 326.163 177.178 323.886 185.141C323.886 185.141 336.784 190.013 341.214 176.993L394.178 236.125C395.032 237.078 396.214 237.564 397.399 237.564C398.424 237.564 399.456 237.201 400.278 236.462C402.057 234.87 402.207 232.139 400.616 230.362Z" fill="#5F945F"/>
<path d="M233.654 217.507C230.572 220.651 207.464 217.963 200.702 203.562C190.379 181.539 195.396 156.598 211.319 151.366C211.319 151.366 217.614 149.47 223.608 152.586C234.096 158.037 233.474 173.434 232.428 182.693C230.576 199.007 233.887 208.616 234.407 213.742C234.574 215.487 234.426 216.714 233.654 217.507Z" fill="#69ABCE"/>
<path d="M268.844 207.51L249.501 209.473C249.501 209.473 246.862 259.857 250.426 271.186C253.99 282.514 260.216 274.729 260.762 269.936C260.762 269.936 268.842 294.885 274.735 292.159C280.628 289.432 280.47 269.512 280.47 269.512C280.47 269.512 291.364 278.278 291.167 262.964C290.983 248.735 268.844 207.51 268.844 207.51Z" fill="#69ABCE"/>
<path d="M291.334 195.483C288.359 215.359 275.905 226.184 248.108 226.184C230.938 226.184 219.618 222.047 212.803 214.198C208.878 209.721 206.442 204.054 205.196 197.254C203.736 189.334 203.906 179.884 205.309 169.032C206.088 163.025 206.939 157.499 207.902 152.499C208.043 151.72 208.199 150.954 208.355 150.204C208.454 149.708 208.554 149.212 208.667 148.716C209.064 146.874 209.474 145.103 209.885 143.404C210.083 142.596 210.296 141.803 210.508 141.023C211.16 138.643 211.84 136.405 212.563 134.307C212.69 133.925 212.818 133.542 212.96 133.174C212.988 133.089 213.016 132.99 213.059 132.905C213.102 132.792 213.144 132.678 213.187 132.565C219.137 116.512 227.822 109.089 241.012 107.289C243.25 106.978 245.603 106.837 248.11 106.837C255.619 106.837 261.881 108.154 267.123 111.171C267.733 111.526 268.327 111.894 268.908 112.305C271.005 113.721 272.932 115.464 274.716 117.533C274.716 117.533 274.716 117.533 274.716 117.547C276.445 119.587 278.032 121.925 279.477 124.616C279.547 124.758 279.633 124.9 279.717 125.056C281.445 128.343 282.976 132.125 284.365 136.461C285.016 138.5 285.625 140.654 286.192 142.935C288.076 150.273 289.606 158.916 290.91 169.031C292.197 179.091 292.452 187.931 291.334 195.483Z" fill="#F7D46B"/>
<path d="M279.716 125.056C271.952 132.891 256.227 138.247 238.092 138.247C228.671 138.247 219.901 136.802 212.562 134.308C212.69 133.926 212.817 133.543 212.959 133.175C212.988 133.089 213.016 132.991 213.059 132.906C213.101 132.793 213.144 132.679 213.187 132.565C219.137 116.513 227.821 109.09 241.012 107.29C243.25 106.978 245.602 106.837 248.11 106.837C255.619 106.837 261.881 108.155 267.123 111.172C267.732 111.526 268.327 111.895 268.908 112.306C271.005 113.722 272.931 115.465 274.716 117.534C274.716 117.534 274.716 117.534 274.716 117.548C276.444 119.588 278.031 121.926 279.477 124.617C279.546 124.759 279.631 124.901 279.716 125.056Z" fill="#69ABCE"/>
<path d="M280.454 129.472C280.815 118.017 270.055 109.883 258.439 109.883C246.823 109.883 237.406 117.689 237.406 127.318C237.406 136.947 237.84 149.907 249.457 149.907C261.072 149.907 280.149 139.096 280.454 129.472Z" fill="#F1E4C9"/>
<path d="M263.28 124.787C263.28 121.989 261.012 119.722 258.216 119.722C255.419 119.722 253.151 121.99 253.151 124.787C253.151 127.584 255.419 129.851 258.216 129.851C261.012 129.851 263.28 127.584 263.28 124.787Z" fill="black"/>
<path d="M302.122 214.496C299.265 217.845 276.026 216.752 268.289 202.851C256.476 181.59 259.767 156.362 275.293 150.047C275.293 150.047 281.443 147.723 287.637 150.419C298.475 155.136 298.913 170.54 298.507 179.848C297.78 196.251 301.744 205.609 302.616 210.687C302.901 212.418 302.837 213.652 302.122 214.496Z" fill="#69ABCE"/>
<path d="M213.187 153.93C213.187 153.93 226.912 165.61 235.593 162.958C244.274 160.305 249.146 153.672 248.941 138.239L216.06 146.921L213.187 153.93Z" fill="black"/>
<path d="M229.745 117.803C218.776 118.984 207.499 124.675 204.967 140.229C202.435 155.784 211.297 165.731 211.297 165.731C211.297 165.731 214.553 152.709 225.947 151.039C234 149.858 247.866 149.968 248.94 138.239C250.002 126.665 241.501 116.536 229.745 117.803Z" fill="#574D47"/>
<path d="M403.245 223.177H96.001V248.983L111.809 253.594L96.001 261.169V306.404L106.846 310.4L96.001 316.726V367.278L107.949 371.066L96.001 376.076V380.255L118.979 389.266L96.001 391.158V410.998H403.245V392.459L395.837 389.266L403.245 385.033V315.456L393.631 309.848L403.245 303.787V258.61L387.565 252.491L403.245 243.575V223.177Z" fill="#A86531"/>
<path d="M308.787 276.103C321.225 278.981 331.428 281.748 340.429 284.189C361.521 289.906 376.954 294.087 403.244 295.386V294.304C377.081 293.005 361.715 288.841 340.711 283.146C331.699 280.704 321.487 277.935 309.031 275.051C296.517 272.155 280.795 267.658 262.593 262.453C214.923 248.821 150.693 230.461 96 227.994V229.074C150.555 231.544 214.694 249.878 262.296 263.492C280.514 268.701 296.246 273.2 308.787 276.103Z" fill="#8F562A"/>
<path d="M203.153 265.741C220.632 268.717 232.862 270.105 243.654 271.331C262.396 273.459 274.781 274.864 298.038 282.999C302.715 284.636 307.347 286.296 311.994 287.963C336.939 296.909 362.594 306.084 397.399 312.046L394.709 310.477C361.442 304.521 336.563 295.626 312.359 286.947C307.711 285.279 303.074 283.617 298.397 281.981C275.022 273.805 262.591 272.394 243.774 270.258C232.997 269.034 220.783 267.648 203.334 264.677C177.758 260.321 151.237 253.024 127.836 246.587C116.003 243.332 105.123 240.341 96.002 238.207V239.315C105.048 241.441 115.832 244.405 127.552 247.629C150.975 254.071 177.522 261.375 203.153 265.741Z" fill="#8F562A"/>
<path d="M166.494 348.229C159.338 349.915 151.231 351.826 142.973 354.83C125.65 361.13 109.449 364.752 96.1634 367.329L98.3115 368.011C111.258 365.451 126.786 361.865 143.34 355.845C151.54 352.864 159.617 350.959 166.741 349.279C176.976 346.867 184.372 345.123 186 341.537C186.538 340.349 186.417 339.004 185.641 337.537C182.992 332.527 165.947 334.488 144.363 336.974C128.092 338.847 109.992 340.926 96.001 340.099V341.179C110.082 341.998 128.198 339.922 144.488 338.047C163.979 335.803 182.382 333.682 184.688 338.043C185.308 339.214 185.416 340.211 185.017 341.09C183.606 344.193 176.054 345.973 166.494 348.229Z" fill="#8F562A"/>
<path d="M403.244 370.307C339.37 372.685 321.385 377.63 291.905 389.398C283.12 392.906 269.888 400.842 253.249 410.998H255.323C271.209 401.311 283.865 393.771 292.306 390.402C321.652 378.686 339.571 373.76 403.244 371.388V370.307Z" fill="#8F562A"/>
<path d="M195.385 355.333C218.94 350.099 231.681 344.418 234.334 337.968C235.895 334.174 233.75 330.835 232.18 328.397L231.881 327.928C228.095 321.977 206.234 320.128 178.718 323.428C153.42 326.462 120.308 324.194 96.001 320.357V321.451C120.37 325.283 153.495 327.542 178.848 324.499C205.529 321.298 227.455 322.983 230.969 328.508L231.272 328.981C232.791 331.343 234.681 334.284 233.335 337.556C230.86 343.571 218.012 349.197 195.147 354.277L185.863 356.333C150.834 364.076 123.826 370.061 98.9553 381.413L100.343 381.958C124.861 370.927 151.578 365.018 186.097 357.388L195.385 355.333Z" fill="#8F562A"/>
<path d="M240.795 223.992C256.88 227.537 270.771 230.598 280.858 232.538C305.058 237.194 319.958 238.834 343.568 238.834C358.472 238.834 376.875 238.179 403.244 237.217V236.136C335.187 238.618 320.423 239.051 281.06 231.478C271.221 229.585 257.724 226.616 242.114 223.177H237.094C238.337 223.45 239.581 223.724 240.795 223.992Z" fill="#8F562A"/>
<path d="M263.974 243.635C277.63 247.052 290.528 250.278 301.495 252.741C325.608 258.154 347.934 259.718 368.154 259.718C380.558 259.718 392.158 259.127 402.901 258.476L400.494 257.537C372.771 259.168 339.427 260.15 301.731 251.687C290.776 249.228 277.885 246.003 264.237 242.587C239.566 236.414 210.503 229.161 179.996 223.177H174.33C206.803 229.34 237.847 237.098 263.974 243.635Z" fill="#8F562A"/>
<path d="M234.362 370.766C265.126 369.546 281.426 357.166 281.499 334.964C281.588 309.164 207.74 298.176 189.458 296.839C186.65 296.635 183.397 296.447 179.779 296.238C158.43 295.006 124.541 293.046 96.001 282.456V283.598C124.614 294.123 158.395 296.085 179.718 297.316C183.327 297.525 186.575 297.711 189.377 297.917C207.462 299.239 280.506 309.989 280.419 334.96C280.345 356.793 264.836 368.477 234.319 369.686C206.171 370.801 177.592 381.819 163.909 392.127C155.077 398.782 136.911 405.015 108.862 410.998H113.874C139.373 405.292 156.133 399.338 164.559 392.99C178.109 382.784 206.435 371.872 234.362 370.766Z" fill="#8F562A"/>
<path d="M241.566 377.966C273.995 371.344 308.547 361.451 308.005 327.678C307.518 297.297 238.545 291.029 197.334 287.282C193.167 286.903 189.303 286.552 185.845 286.206C153.43 282.955 131.281 279.301 96.001 267.949V269.084C131.178 280.383 153.342 284.033 185.736 287.28C189.198 287.627 193.066 287.98 197.237 288.358C238.085 292.071 306.452 298.285 306.925 327.696C307.454 360.645 274.82 370.074 241.35 376.908C208.202 383.677 195.621 386.88 173.708 403.83C170.363 406.417 166.612 408.794 162.547 410.999H164.79C168.242 409.033 171.457 406.937 174.371 404.684C196.094 387.88 208.601 384.697 241.566 377.966Z" fill="#8F562A"/>
<path d="M251.777 386.698C280.459 378.619 287.895 372.243 301.393 360.67C305.791 356.899 310.778 352.624 317.365 347.523C337.989 331.55 354.269 333.446 393.605 338.028C396.705 338.389 399.91 338.763 403.243 339.143V338.056C399.955 337.68 396.791 337.312 393.73 336.956C354.085 332.338 337.679 330.425 316.703 346.669C310.093 351.788 305.098 356.071 300.69 359.851C287.308 371.325 279.937 377.644 251.485 385.659C229.403 391.879 209.363 401.633 192.006 411H194.29C211.186 401.955 230.545 392.678 251.777 386.698Z" fill="#8F562A"/>
<path d="M232.315 279.578C255.768 281.036 271.26 282 300.826 297.853C327.175 311.982 361.565 322.546 403.244 329.38V328.287C361.762 321.47 327.544 310.956 301.336 296.901C271.563 280.936 255.977 279.967 232.38 278.5C226.655 278.143 220.734 277.775 213.925 277.165C186.745 274.731 155.244 270.172 109.198 254.844L107.799 255.514C154.521 271.16 186.373 275.782 213.828 278.241C220.652 278.852 226.848 279.239 232.315 279.578Z" fill="#8F562A"/>
<path d="M145.469 384.691C159.629 376.742 175.681 367.73 208.236 362.25C232.847 358.108 249.349 350.933 255.958 341.504C258.776 337.484 259.784 333.16 258.958 328.653C256.585 315.722 210.795 311.719 182.494 312.258C160.787 312.678 121.692 310.442 96.0008 300.655V301.809C121.876 311.525 160.802 313.734 182.514 313.338C211.644 312.799 255.788 317.355 257.894 328.847C258.668 333.06 257.718 337.11 255.073 340.884C248.633 350.071 232.375 357.091 208.055 361.185C175.315 366.697 159.177 375.758 144.938 383.75C141.339 385.771 137.941 387.681 134.456 389.417C125.702 393.781 109.934 398.528 96 402.376V403.497C110.051 399.621 126.045 394.816 134.937 390.383C138.446 388.634 141.857 386.719 145.469 384.691Z" fill="#8F562A"/>
<path d="M319.075 363.393C301.126 375.057 262.472 393.295 234.669 403.217C230.312 404.772 224.371 407.518 217.358 410.999H219.8C225.922 407.997 231.131 405.626 235.032 404.234C262.9 394.289 301.655 376 319.664 364.297C335.723 353.86 353.267 352.79 403.244 352.978V351.899C353.037 351.713 335.384 352.792 319.075 363.393Z" fill="#8F562A"/>
<path d="M399.939 391.034L397.606 390.028C344.953 391.782 319.567 397.084 295.937 410.998H298.114C321.475 397.693 347.176 392.664 399.939 391.034Z" fill="#8F562A"/>
<path d="M403.244 346.231H96.001V350.551H403.244V346.231Z" fill="#8F562A"/>
<path d="M403.244 283.624H96.001V287.944H403.244V283.624Z" fill="#8F562A"/>
<path d="M230.947 216.956C225.691 216.236 221.903 222.261 221.542 225.758C221.181 229.255 222.386 230.822 224.316 231.305C226.245 231.787 227.33 229.612 227.33 229.612C227.33 229.612 228.174 232.149 230.223 232.149C232.273 232.149 233.238 229.612 233.238 229.612C233.238 229.612 233.84 232.149 236.786 231.486C239.664 230.837 239.749 218.162 230.947 216.956Z" fill="#FDBA3D"/>
<path d="M267.165 216.956C261.909 216.236 258.121 222.261 257.76 225.758C257.398 229.256 258.604 230.822 260.533 231.305C262.462 231.787 263.547 229.612 263.547 229.612C263.547 229.612 264.391 232.149 266.441 232.149C268.49 232.149 269.455 229.612 269.455 229.612C269.455 229.612 270.058 232.149 273.003 231.486C275.882 230.837 275.967 218.162 267.165 216.956Z" fill="#FDBA3D"/>
<path d="M222.252 304.92L217.092 304.8C216.799 303.68 216.625 298.64 216.572 289.68V286.84C216.572 284.573 216.785 282.853 217.212 281.68C217.639 280.48 218.532 279.52 219.892 278.8C220.585 278.453 221.545 278.28 222.772 278.28C224.025 278.28 224.985 278.36 225.652 278.52C227.439 278.893 228.652 279.587 229.292 280.6C229.959 281.613 230.292 282.973 230.292 284.68C230.292 287.053 229.665 288.8 228.412 289.92C229.052 290 229.692 290.32 230.332 290.88C230.972 291.44 231.492 292.013 231.892 292.6C232.585 293.667 232.932 295.12 232.932 296.96C232.932 299.84 232.052 301.893 230.292 303.12C228.559 304.32 225.879 304.92 222.252 304.92ZM219.772 285.44L219.852 290C219.905 290 220.359 289.947 221.212 289.84C222.065 289.707 222.785 289.573 223.372 289.44C226.065 288.8 227.412 287.267 227.412 284.84C227.412 283.64 227.052 282.76 226.332 282.2C225.639 281.64 224.719 281.36 223.572 281.36C222.132 281.36 221.159 281.613 220.652 282.12C220.439 282.333 220.265 282.52 220.132 282.68C219.999 282.813 219.905 283.04 219.852 283.36C219.799 283.68 219.759 283.907 219.732 284.04C219.732 284.173 219.732 284.427 219.732 284.8C219.759 285.173 219.772 285.387 219.772 285.44ZM228.772 293.96C228.505 293.667 228.092 293.4 227.532 293.16C226.972 292.92 226.159 292.8 225.092 292.8C224.052 292.8 222.265 292.973 219.732 293.32C219.732 297.48 219.799 300.293 219.932 301.76C223.052 301.76 225.239 301.56 226.492 301.16C227.745 300.733 228.585 300.227 229.012 299.64C229.465 299.027 229.692 298.387 229.692 297.72C229.692 297.027 229.679 296.547 229.652 296.28C229.652 295.987 229.572 295.6 229.412 295.12C229.279 294.613 229.065 294.227 228.772 293.96ZM247.285 286.32C248.459 286.32 249.045 287.32 249.045 289.32C249.045 289.533 249.045 289.76 249.045 290L248.965 292.8C248.939 293.68 248.925 294.547 248.925 295.4L249.525 304.44C249.525 305.107 248.845 305.44 247.485 305.44C247.405 305.44 247.205 305.44 246.885 305.44C246.592 305.44 246.379 305.32 246.245 305.08C246.139 304.84 246.125 304.547 246.205 304.2C246.312 303.853 246.285 303.467 246.125 303.04C244.899 304.347 243.272 305 241.245 305C237.485 305 235.605 302.093 235.605 296.28C235.605 293.053 236.205 290.613 237.405 288.96C238.632 287.307 240.379 286.48 242.645 286.48C243.712 286.48 244.779 286.667 245.845 287.04C246.192 286.56 246.672 286.32 247.285 286.32ZM243.125 289.96C241.605 289.96 240.472 290.4 239.725 291.28C238.979 292.16 238.605 293.773 238.605 296.12C238.605 300.067 239.672 302.04 241.805 302.04C242.365 302.04 242.979 301.787 243.645 301.28C244.339 300.773 244.819 300.2 245.085 299.56C245.592 298.12 245.845 296.547 245.845 294.84C245.845 293.133 245.632 291.893 245.205 291.12C244.805 290.347 244.112 289.96 243.125 289.96ZM251.87 277.96C251.87 276.893 252.536 276.36 253.87 276.36C254.483 276.36 254.843 276.733 254.95 277.48V283.48C254.95 284.6 254.963 285.72 254.99 286.84C255.523 286.68 256.203 286.6 257.03 286.6C259.616 286.6 261.616 287.467 263.03 289.2C264.443 290.933 265.15 293.107 265.15 295.72C265.15 298.333 264.31 300.547 262.63 302.36C260.976 304.147 258.843 305.04 256.23 305.04C253.616 305.04 252.31 304.307 252.31 302.84C252.31 301.347 252.23 297.587 252.07 291.56C251.936 285.507 251.87 280.973 251.87 277.96ZM259.95 290.84C258.99 290.093 257.976 289.72 256.91 289.72C256.323 289.72 255.723 289.827 255.11 290.04C255.27 292.227 255.35 296.107 255.35 301.68C255.803 301.84 256.27 301.92 256.75 301.92C257.79 301.92 258.83 301.533 259.87 300.76C261.416 299.693 262.19 298.067 262.19 295.88C262.19 293.667 261.443 291.987 259.95 290.84ZM281.034 286.52C281.381 286.52 281.714 286.64 282.034 286.88C282.381 287.12 282.554 287.387 282.554 287.68C282.554 288.453 281.421 292.64 279.154 300.24C276.887 307.84 275.207 313.173 274.114 316.24C273.874 316.96 273.501 317.32 272.994 317.32C272.487 317.32 272.087 317.133 271.794 316.76C271.501 316.413 271.354 315.893 271.354 315.2C271.354 314.507 271.794 312.84 272.674 310.2C273.581 307.587 274.127 305.92 274.314 305.2C273.647 304.08 271.394 298.48 267.554 288.4C267.501 288.267 267.474 288.093 267.474 287.88C267.474 287.667 267.634 287.387 267.954 287.04C268.274 286.693 268.714 286.52 269.274 286.52C269.834 286.52 270.287 286.8 270.634 287.36C271.007 288.32 271.621 290 272.474 292.4C273.327 294.773 273.981 296.493 274.434 297.56C274.914 298.627 275.367 299.733 275.794 300.88C276.167 299.627 276.807 297.2 277.714 293.6C278.621 289.973 279.141 287.907 279.274 287.4C279.381 286.813 279.967 286.52 281.034 286.52ZM209.835 332.52C211.569 332.52 213.035 332.813 214.235 333.4C215.462 333.987 216.075 334.733 216.075 335.64C216.075 336.04 215.969 336.387 215.755 336.68C215.569 336.973 215.275 337.12 214.875 337.12C214.502 337.12 213.675 336.827 212.395 336.24C211.115 335.627 209.942 335.32 208.875 335.32C207.835 335.32 206.755 335.653 205.635 336.32C204.515 336.987 203.955 337.8 203.955 338.76C203.955 340.067 204.635 341.027 205.995 341.64C207.009 342.093 208.462 342.507 210.355 342.88C212.249 343.227 213.795 343.96 214.995 345.08C216.195 346.173 216.795 347.84 216.795 350.08C216.795 353.493 215.769 356.013 213.715 357.64C212.569 358.547 210.942 359 208.835 359C206.755 359 204.675 358.427 202.595 357.28C201.235 356.56 200.555 355.84 200.555 355.12C200.555 354.853 200.662 354.56 200.875 354.24C201.115 353.92 201.435 353.653 201.835 353.44C202.235 353.227 202.595 353.2 202.915 353.36C203.262 353.493 203.809 353.747 204.555 354.12C205.302 354.493 205.849 354.747 206.195 354.88C207.315 355.307 208.369 355.52 209.355 355.52C210.342 355.52 211.289 355.04 212.195 354.08C213.129 353.093 213.595 351.893 213.595 350.48C213.595 348.613 212.662 347.307 210.795 346.56C209.889 346.187 208.862 345.907 207.715 345.72C205.342 345.293 203.555 344.587 202.355 343.6C201.155 342.587 200.555 341.067 200.555 339.04C200.555 337.013 201.422 335.427 203.155 334.28C204.889 333.107 207.115 332.52 209.835 332.52ZM220.595 357.76L220.155 341.52C220.155 341.013 220.328 340.6 220.675 340.28C221.021 339.96 221.368 339.8 221.715 339.8C222.568 339.8 223.061 340.16 223.195 340.88C223.301 341.6 223.355 342.347 223.355 343.12C224.795 341.227 226.595 340.28 228.755 340.28C232.061 340.28 233.715 344.053 233.715 351.6C233.715 352.293 233.715 353.347 233.715 354.76C233.715 356.147 233.635 357.16 233.475 357.8C233.288 358.6 232.715 359 231.755 359C231.115 359 230.795 358.573 230.795 357.72L230.835 355.48C230.835 352.387 230.728 350.28 230.515 349.16C230.328 348.013 230.141 347.107 229.955 346.44C229.501 345 228.768 344.28 227.755 344.28C226.421 344.28 225.488 344.76 224.955 345.72C224.368 346.76 224.021 347.987 223.915 349.4C223.728 351.88 223.635 354.507 223.635 357.28C223.635 357.813 223.435 358.24 223.035 358.56C222.635 358.88 222.155 359.04 221.595 359.04C220.928 359.04 220.595 358.613 220.595 357.76ZM248.321 340.32C249.494 340.32 250.081 341.32 250.081 343.32C250.081 343.533 250.081 343.76 250.081 344L250.001 346.8C249.974 347.68 249.961 348.547 249.961 349.4L250.561 358.44C250.561 359.107 249.881 359.44 248.521 359.44C248.441 359.44 248.241 359.44 247.921 359.44C247.627 359.44 247.414 359.32 247.281 359.08C247.174 358.84 247.161 358.547 247.241 358.2C247.347 357.853 247.321 357.467 247.161 357.04C245.934 358.347 244.307 359 242.281 359C238.521 359 236.641 356.093 236.641 350.28C236.641 347.053 237.241 344.613 238.441 342.96C239.667 341.307 241.414 340.48 243.681 340.48C244.747 340.48 245.814 340.667 246.881 341.04C247.227 340.56 247.707 340.32 248.321 340.32ZM244.161 343.96C242.641 343.96 241.507 344.4 240.761 345.28C240.014 346.16 239.641 347.773 239.641 350.12C239.641 354.067 240.707 356.04 242.841 356.04C243.401 356.04 244.014 355.787 244.681 355.28C245.374 354.773 245.854 354.2 246.121 353.56C246.627 352.12 246.881 350.547 246.881 348.84C246.881 347.133 246.667 345.893 246.241 345.12C245.841 344.347 245.147 343.96 244.161 343.96ZM252.265 349.64C252.265 347.853 252.731 346.227 253.665 344.76C254.625 343.293 255.838 342.2 257.305 341.48C258.771 340.733 260.198 340.36 261.585 340.36C262.971 340.36 264.078 340.533 264.905 340.88C265.758 341.2 266.185 341.64 266.185 342.2C266.185 342.733 266.025 343.28 265.705 343.84C265.411 344.373 265.011 344.64 264.505 344.64C264.318 344.64 263.798 344.493 262.945 344.2C262.118 343.88 261.585 343.72 261.345 343.72C259.798 343.72 258.478 344.293 257.385 345.44C256.291 346.56 255.745 348.053 255.745 349.92C255.745 351.787 256.038 353.187 256.625 354.12C257.238 355.027 258.278 355.48 259.745 355.48C260.331 355.48 261.331 355.147 262.745 354.48C264.185 353.787 265.078 353.44 265.425 353.44C265.771 353.44 266.051 353.547 266.265 353.76C266.478 353.973 266.585 354.24 266.585 354.56C266.585 355.2 266.171 355.88 265.345 356.6C264.545 357.293 263.545 357.88 262.345 358.36C261.145 358.813 260.065 359.04 259.105 359.04C256.971 359.04 255.291 358.2 254.065 356.52C252.865 354.84 252.265 352.547 252.265 349.64ZM282.613 357.2C282.613 358.453 282.039 359.08 280.893 359.08C280.413 359.08 279.759 357.907 278.933 355.56C278.106 353.187 276.999 351.36 275.613 350.08C275.479 350.267 274.906 350.8 273.893 351.68C272.906 352.533 272.319 353.053 272.133 353.24V357.24C272.079 357.64 272.013 357.947 271.933 358.16C271.853 358.373 271.666 358.573 271.373 358.76C271.106 358.947 270.733 359.04 270.253 359.04C269.533 359.04 269.173 358.6 269.173 357.72C269.173 355.24 269.066 351.4 268.853 346.2C268.639 340.973 268.533 336.293 268.533 332.16C268.533 331.653 268.733 331.253 269.133 330.96C269.559 330.667 269.999 330.52 270.453 330.52C271.066 330.52 271.439 330.907 271.573 331.68V338.76C271.573 339.613 271.586 340.253 271.613 340.68C271.639 341.107 271.666 341.747 271.693 342.6C271.746 344.36 271.839 346.347 271.973 348.56C272.746 347.973 273.733 347.053 274.933 345.8C276.159 344.52 277.079 343.427 277.693 342.52C278.653 341 279.533 340.24 280.333 340.24C280.546 340.24 280.759 340.293 280.973 340.4C281.533 340.72 281.813 341.093 281.813 341.52C281.813 341.947 281.626 342.507 281.253 343.2C280.293 344.853 279.186 346.36 277.933 347.72C279.133 349.053 280.333 350.96 281.533 353.44C282.253 355.04 282.613 356.293 282.613 357.2ZM285.614 345.4C285.614 343.827 286.174 342.573 287.294 341.64C288.414 340.707 289.707 340.24 291.174 340.24C292.667 340.24 294.094 340.507 295.454 341.04C296.814 341.573 297.494 342.28 297.494 343.16C297.494 343.613 297.321 343.973 296.974 344.24C296.627 344.507 296.321 344.64 296.054 344.64C295.814 344.64 295.614 344.64 295.454 344.64C295.321 344.613 294.787 344.36 293.854 343.88C292.947 343.4 292.107 343.16 291.334 343.16C290.561 343.16 289.894 343.36 289.334 343.76C288.801 344.133 288.534 344.693 288.534 345.44C288.534 346.187 288.841 346.773 289.454 347.2C290.094 347.627 291.201 348 292.774 348.32C294.347 348.613 295.547 349.04 296.374 349.6C297.227 350.16 297.654 351.2 297.654 352.72C297.654 354.933 297.067 356.507 295.894 357.44C294.747 358.347 293.347 358.8 291.694 358.8C290.041 358.8 288.627 358.573 287.454 358.12C286.307 357.667 285.734 356.987 285.734 356.08C285.734 355.04 286.254 354.52 287.294 354.52C287.561 354.52 288.147 354.707 289.054 355.08C289.961 355.453 290.854 355.64 291.734 355.64C292.641 355.64 293.321 355.36 293.774 354.8C294.254 354.213 294.494 353.547 294.494 352.8C294.494 352.053 294.187 351.52 293.574 351.2C292.961 350.853 292.027 350.573 290.774 350.36C289.521 350.147 288.601 349.92 288.014 349.68C286.414 349.04 285.614 347.613 285.614 345.4Z" fill="white"/>
</g>
<defs>
<clipPath id="clip0_9_1767">
<rect width="500" height="500" fill="white"/>
</clipPath>
</defs>
</svg>
